<svg version="1.1" id="upgrade-illu" xmlns="http://www.w3.org/2000/svg" xmlns:xlink="http://www.w3.org/1999/xlink" x="0px"
	 y="0px" viewBox="0 0 610 515" style="enable-background:new 0 0 610 515;" xml:space="preserve">
<style type="text/css">
	.st0{opacity:0.6;fill:url(#SVGID_1_);enable-background:new    ;}
	.st1{opacity:0.3;fill:#888799;enable-background:new    ;}
	.st2{fill:#31A6E0;}
	.st3{fill:#0BD9A9;}
	.st4{fill:none;stroke:#304D52;stroke-width:3.7513;stroke-miterlimit:10;}
	.st5{fill:none;stroke:#0BD9A9;stroke-width:4.5015;stroke-miterlimit:10;}
	.st6{fill:#304D52;}
	.st7{fill:none;stroke:#304D52;stroke-width:6.002;stroke-miterlimit:10;}
	.st8{fill:none;stroke:#FADF50;stroke-width:7.5025;stroke-miterlimit:10;}
	.st9{fill:#FADF50;}
	.st10{fill:#EEEFF2;}
	.st11{fill:#DBDBDB;}
	.st12{fill:#0CBF90;}
	.st13{fill:#EAC344;}
</style>
<g id="documentations">
	<linearGradient id="SVGID_1_" gradientUnits="userSpaceOnUse" x1="305" y1="72.5" x2="305" y2="435.7454">
		<stop  offset="0" style="stop-color:#89D8F6"/>
		<stop  offset="1" style="stop-color:#9AFFD3"/>
	</linearGradient>
	<path class="st0" d="M592.4,331.9c24.8-88.4-170.3-309-372.4-249.3C86,122.2-12.6,273.6,22.7,350.3
		C83.1,481.2,558.9,451.1,592.4,331.9z"/>
	<g id="circles_2_" transform="translate(0 15.165)">
		<path id="cir-1_2_" class="st1" d="M533,405.7c0-10.4-104.1-14.4-232.5-14.4c-128.4,0-232.5,4-232.5,14.4
			c0,10.4,104.1,21.6,232.5,21.6C428.9,427.3,533,416.1,533,405.7z"/>
		<path id="cir-2_2_" class="st2" d="M265,172c9.4,4.3,20.5,0.1,24.8-9.3c4.3-9.4,0.1-20.6-9.3-24.8c-9.4-4.3-20.5-0.1-24.8,9.3l0,0
			C251.4,156.6,255.6,167.7,265,172z"/>
		<path id="cir-3_2_" class="st3" d="M402.6,370c0.7,4,4.4,6.9,8.6,6.2c4-0.7,6.9-4.4,6.2-8.6c-0.7-4-4.4-6.9-8.6-6.2l0,0
			C404.8,362.1,401.9,366,402.6,370z"/>
		<path id="cir-4_2_" class="st4" d="M511.3,349.3c9.6,4.1,20.6-0.3,24.7-9.8c4.1-9.5-0.3-20.5-9.9-24.6c-9.4-4.1-20.4,0.2-24.6,9.5
			C497.5,333.8,501.8,345,511.3,349.3z"/>
		<path id="cir-5_2_" class="st2" d="M12.5,268.6c6.4,3,14,0,16.8-6.4c3-6.4,0-14-6.4-16.8c-6.4-3-14,0-16.8,6.4l0,0
			C3.2,258.1,6.2,265.8,12.5,268.6z"/>
		<path id="cir-6_2_" class="st5" d="M593.1,176.4c5.2,1.2,10.5-2.1,11.7-7.3c1.2-5.3-2.1-10.5-7.3-11.7c-5.3-1.2-10.5,2.1-11.7,7.3
			l0,0C584.6,170,587.8,175.2,593.1,176.4z"/>
		<path id="cir-8_2_" class="st6" d="M378,213.4c2.5,0.3,4.7-1.5,4.9-4c0.3-2.5-1.5-4.7-4-4.9c-2.5-0.3-4.7,1.5-4.9,4l0,0
			C373.7,211,375.5,213.2,378,213.4z"/>
		<path id="cir-9_2_" class="st7" d="M102.2,150.5c9.6,2.7,19.5-3,22.1-12.6c2.7-9.6-3-19.6-12.6-22.1c-9.6-2.7-19.5,3-22.1,12.6
			l0,0C87,137.9,92.6,147.9,102.2,150.5z"/>
		<path id="cir-10_2_" class="st8" d="M178.1,295.7c1.8,5.1,7.5,7.6,12.6,5.7c5.1-1.8,7.6-7.5,5.7-12.6c-1.8-5.1-7.5-7.6-12.6-5.7
			l0,0C178.8,285,176.3,290.7,178.1,295.7z"/>
		<path id="cir-12_2_" class="st6" d="M485.2,81.8c1.1,4.5,5.6,7.2,10,6c4.5-1.1,7.2-5.6,6-9.9c-1.1-4.5-5.6-7.2-10-6l0,0
			C486.9,72.8,484.2,77.3,485.2,81.8z"/>
	</g>
	<path id="XMLID_88_" class="st9" d="M347.5,418.5H224.6c-1,0-1.8-0.8-1.8-1.8V390c0-1,0.8-1.8,1.8-1.8h122.9c1,0,1.8,0.8,1.8,1.8
		v26.6C349.3,417.7,348.5,418.5,347.5,418.5z"/>
	<g id="XMLID_83_">
		<path id="XMLID_86_" class="st10" d="M339.7,363.8c0,0-7.3,9.4,0,21.9H218.9c0,0-6.1-2.6-6.1-11.1c0-8.5,6-11.7,8.6-11.7
			C224,363,339.7,363.8,339.7,363.8z"/>
		<path id="XMLID_85_" class="st2" d="M342.3,388.2H222.9c-6.8,0-12.4-5.6-12.4-12.6v-1.7c0-6.9,5.6-12.6,12.4-12.6h119.4
			c0.9,0,1.6,0.7,1.6,1.6c0,0.9-0.7,1.6-1.6,1.6H222.9c-5.1,0-9.2,4.2-9.2,9.4v1.7c0,5.2,4.1,9.4,9.2,9.4h119.4
			c0.9,0,1.6,0.7,1.6,1.6C343.9,387.4,343.2,388.2,342.3,388.2z"/>
	</g>
	<g id="XMLID_73_">
		<path id="XMLID_82_" class="st10" d="M226.9,336.9c0,0,7.3,9.4,0,21.9h120.8c0,0,6.1-2.6,6.1-11.1c0-8.5-6-11.7-8.6-11.7
			C342.6,336.1,226.9,336.9,226.9,336.9z"/>
		<path id="XMLID_79_" d="M224.3,361.3h119.4c6.8,0,12.4-5.6,12.4-12.6V347c0-6.9-5.6-12.6-12.4-12.6H224.3c-0.9,0-1.6,0.7-1.6,1.6
			c0,0.9,0.7,1.6,1.6,1.6h119.4c5.1,0,9.2,4.2,9.2,9.3v1.7c0,5.2-4.1,9.4-9.2,9.4H224.3c-0.9,0-1.6,0.7-1.6,1.6
			C222.7,360.5,223.4,361.3,224.3,361.3z"/>
		<polygon id="XMLID_74_" class="st3" points="342.1,343 342.1,355.5 338,349.9 333.9,355.4 333.9,343 		"/>
	</g>
	<g>
		<path id="XMLID_54_" class="st2" d="M384.2,333H261.3c-1,0-1.8-0.8-1.8-1.8v-26.6c0-1,0.8-1.8,1.8-1.8h122.9c1,0,1.8,0.8,1.8,1.8
			v26.6C386,332.1,385.2,333,384.2,333z"/>
		<path id="XMLID_46_" class="st10" d="M375.4,322.2H338c-1.8,0-3.3-2-3.3-4.4l0,0c0-2.4,1.5-4.4,3.3-4.4h37.4c1.8,0,3.3,2,3.3,4.4
			l0,0C378.7,320.2,377.2,322.2,375.4,322.2z"/>
		<path id="XMLID_43_" class="st10" d="M326.6,322.2H277c-2.4,0-4.4-2-4.4-4.4l0,0c0-2.4,2-4.4,4.4-4.4h49.5c2.4,0,4.4,2,4.4,4.4
			l0,0C331,320.2,329,322.2,326.6,322.2z"/>
	</g>
	<g>
		<path id="XMLID_52_" class="st10" d="M376.4,278.3c0,0-7.3,9.4,0,21.9H255.6c0,0-6.1-2.6-6.1-11.1c0-8.5,6-11.7,8.6-11.7
			C260.7,277.5,376.4,278.3,376.4,278.3z"/>
		<path id="XMLID_51_" class="st3" d="M379,302.6H259.6c-6.8,0-12.4-5.6-12.4-12.6v-1.7c0-6.9,5.6-12.6,12.4-12.6H379
			c0.9,0,1.6,0.7,1.6,1.6s-0.7,1.6-1.6,1.6H259.6c-5.1,0-9.2,4.2-9.2,9.4v1.7c0,5.2,4.1,9.4,9.2,9.4H379c0.9,0,1.6,0.7,1.6,1.6
			C380.6,301.9,379.9,302.6,379,302.6z"/>
	</g>
	<g id="XMLID_37_">
		<path id="XMLID_42_" class="st10" d="M223.4,251.4c0,0,7.3,9.4,0,21.9h120.8c0,0,6.1-2.6,6.1-11.1c0-8.5-6-11.7-8.6-11.7
			C339.1,250.6,223.4,251.4,223.4,251.4z"/>
		<path id="XMLID_39_" class="st6" d="M220.8,275.8h119.4c6.8,0,12.4-5.6,12.4-12.6v-1.7c0-6.9-5.6-12.6-12.4-12.6H220.8
			c-0.9,0-1.6,0.7-1.6,1.6c0,0.9,0.7,1.6,1.6,1.6h119.4c5.1,0,9.2,4.2,9.2,9.3v1.7c0,5.2-4.1,9.4-9.2,9.4H220.8
			c-0.9,0-1.6,0.7-1.6,1.6C219.2,275,219.9,275.8,220.8,275.8z"/>
	</g>
	<g id="XMLID_17_">
		<path id="XMLID_32_" class="st6" d="M451.5,270.2l-9.9-36.8c-0.3-1,0.1-2,0.9-2.7l48.8-39.8c1.5-1.2,3.8-0.5,4.3,1.4l8.4,33.5
			c0.1,0.4,2.9,2.6,3.2,2.9l28.1,30.7c1,1.1,0.9,2.8-0.2,3.7l-47.8,42.1c-1.1,1-2.7,0.9-3.7-0.2l-31.4-33.8
			C451.8,271,451.6,270.6,451.5,270.2z"/>
		<path id="XMLID_29_" class="st11" d="M454.6,270.6l28.1,30.7c0.8,0.8,2.1,0.9,3,0.1L531,262c0.8-0.7,0.9-1.9,0.2-2.7l-27.8-31.4
			L454.6,270.6z"/>
		<path id="XMLID_26_" class="st11" d="M454.6,270.6c0,0,1.7-18.2-8.3-31.9c-0.7-0.9-0.6-2.2,0.3-3l43.8-40.2c0,0,5.8,5.6,14.3,5.9
			l-1.4,26.5L454.6,270.6z"/>
		<path id="XMLID_23_" class="st10" d="M454.6,270.6l26.7,27.5c0.7,0.7,1.9,0.8,2.7,0.1l45.2-39.8c0.6-0.5,0.8-1.4,0.5-2.1
			c-1.5-3.9-7.6-16.3-26.3-28.4L454.6,270.6z"/>
		<path id="XMLID_20_" class="st10" d="M454.6,270.6c0,0,10-12.7,3.8-28.9c-0.4-0.9-0.1-2,0.7-2.6l45.6-37.7c0,0,5,9.4-1.4,26.5
			L454.6,270.6z"/>
	</g>
	<g id="XMLID_1_">
		<path id="XMLID_16_" class="st10" d="M114.2,227.4c0,0-17.5-13.9-38.8-5.7l1.2,3.4l-2.6,0.8l0.8,2.3l-0.3,0.1
			c-3.8,0.8-6.4,4.3-6,8.2c0,0.1,0,0.1,0,0.2L114.2,227.4z"/>
		<path id="XMLID_13_" class="st10" d="M114.2,227.4c0,0,2.8-22.1,23.8-31.1l1.5,3.2l2.4-1.2l1,2.2l0.3-0.2c3.3-2,7.6-1.3,10,1.7
			c0,0,0.1,0.1,0.1,0.1L114.2,227.4z"/>
		<path id="XMLID_10_" class="st3" d="M155.1,201l-35.2,22.2l24.6,63.4l33.2-21.3c1.1-0.7,1.5-2,1.1-3.2L157,201.6
			C156.7,200.9,155.8,200.6,155.1,201z"/>
		<path id="XMLID_7_" class="st3" d="M68.3,236.4l39.6-8.3l26.8,62.5l-38.2,7.8c-1.5,0.3-3.1-0.5-3.7-1.9l-25.9-57
			C66.1,238.2,66.9,236.7,68.3,236.4z"/>
		<path id="XMLID_4_" class="st12" d="M119.9,223.2l24.6,63.4c0,0-3,5.8-9.9,4l-26.8-62.5l0,0C112.3,228,116.6,226.2,119.9,223.2
			L119.9,223.2z"/>
	</g>
	<g id="XMLID_2_">
		<path id="XMLID_21_" class="st10" d="M405.8,91.2c0,0,9.7-11.3,24.7-8.7l-0.3,2.3l1.8,0.2l-0.2,1.6l0.2,0c2.6,0.1,4.8,2,5,4.6
			c0,0,0,0.1,0,0.1L405.8,91.2z"/>
		<path id="XMLID_19_" class="st10" d="M405.8,91.2c0,0-4.7-14-19.6-17.2l-0.6,2.3l-1.7-0.5l-0.4,1.6l-0.2-0.1
			c-2.4-0.9-5.2,0.1-6.4,2.4c0,0,0,0.1-0.1,0.1L405.8,91.2z"/>
		<path id="XMLID_18_" class="st9" d="M375.6,79.2l25.9,9.9l-7.8,44.4l-24.5-9.6c-0.8-0.3-1.3-1.1-1.1-2l6.5-42.2
			C374.6,79.3,375.1,79,375.6,79.2z"/>
		<path id="XMLID_15_" class="st9" d="M437,91.1l-27-0.3l-9.4,44.1l26,0.2c1,0,2-0.7,2.2-1.7l9.6-40.4C438.7,92,438,91.1,437,91.1z"
			/>
		<path id="XMLID_14_" class="st13" d="M401.5,89.1l-7.8,44.4c0,0,2.7,3.4,7,1.3l9.4-44.1l0,0C407.1,91.3,404.1,90.7,401.5,89.1
			L401.5,89.1z"/>
	</g>
</g>
</svg>
