<?xml version="1.0" encoding="utf-8"?>
<!-- Generator: Adobe Illustrator 23.1.0, SVG Export Plug-In . SVG Version: 6.00 Build 0)  -->
<svg version="1.1" id="upgrade-illu" xmlns="http://www.w3.org/2000/svg" xmlns:xlink="http://www.w3.org/1999/xlink" x="0px"
	 y="0px" viewBox="0 0 610 515" style="enable-background:new 0 0 610 515;" xml:space="preserve">
<style type="text/css">
	.st0{opacity:0.3;fill:#888799;enable-background:new    ;}
	.st1{fill:#31A6E0;}
	.st2{fill:none;stroke:#0BD9A9;stroke-width:3.0002;stroke-miterlimit:10;}
	.st3{fill:none;stroke:#0BD9A9;stroke-width:3.7502;stroke-miterlimit:10;}
	.st4{fill:#304D52;}
	.st5{fill:none;stroke:#304D52;stroke-width:4.5002;stroke-miterlimit:10;}
	.st6{fill:none;stroke:#FADF50;stroke-width:7.5004;stroke-miterlimit:10;}
	.st7{fill:#2BDEB4;}
	.st8{fill:none;stroke:#FADF50;stroke-width:2.2501;stroke-miterlimit:10;}
	.st9{opacity:0.7;fill:url(#SVGID_1_);enable-background:new    ;}
	.st10{fill:none;stroke:#000000;stroke-width:1.732;stroke-linecap:round;stroke-linejoin:round;stroke-miterlimit:10;}
	.st11{fill:#FADF50;}
	.st12{fill:#EEEFF2;}
	.st13{opacity:0.1;}
	.st14{opacity:0.2;}
	.st15{opacity:0.7;fill:url(#SVGID_2_);enable-background:new    ;}
	.st16{fill:none;stroke:#000000;stroke-width:2.4012;stroke-linecap:round;stroke-linejoin:round;stroke-miterlimit:10;}
	.st17{fill:none;stroke:#EEEFF2;stroke-width:1.4034;stroke-miterlimit:10;}
	.st18{fill:none;stroke:#EEEFF2;stroke-width:1.4439;stroke-miterlimit:10;}
	.st19{fill:none;stroke:#EEEFF2;stroke-width:1.4889;stroke-miterlimit:10;}
	.st20{opacity:0.1;enable-background:new    ;}
	.st21{opacity:0.2;enable-background:new    ;}
	.st22{fill:none;stroke:#000000;stroke-width:1.1533;stroke-miterlimit:10;}
	.st23{opacity:0.5;fill:none;stroke:#000000;stroke-width:4.8025;stroke-linecap:round;stroke-miterlimit:10;}
	.st24{opacity:0.7;fill:url(#SVGID_3_);enable-background:new    ;}
	.st25{fill:none;stroke:#000000;stroke-width:3.2798;stroke-linecap:round;stroke-linejoin:round;stroke-miterlimit:10;}
	.st26{fill:#37666E;}
	.st27{opacity:0.5;fill:none;stroke:#000000;stroke-width:6.5596;stroke-linecap:round;stroke-miterlimit:10;}
</style>
<g id="metiers_du_web">
	<g id="circles_5_" transform="translate(0 15.165)">
		<path id="cir-1_5_" class="st0" d="M75.3,474.5c0-10.6,102.4-14.7,228.7-14.7s228.7,4.1,228.7,14.7c0,10.6-102.4,22.1-228.7,22.1
			S75.3,485.2,75.3,474.5z"/>
		<path id="cir-2_5_" class="st1" d="M222,56.9c-9.4,4.3-20.5,0.1-24.8-9.3c-4.3-9.4-0.1-20.5,9.3-24.8c9.4-4.3,20.5-0.1,24.8,9.3
			l0,0C235.6,41.5,231.4,52.6,222,56.9z"/>
		<path id="cir-3_5_" class="st1" d="M246.4,385.1c-0.5,3.2-3.6,5.5-6.9,5c-3.2-0.5-5.5-3.6-5-6.9c0.5-3.2,3.6-5.5,6.9-5l0,0
			C244.7,378.7,247,381.8,246.4,385.1z"/>
		<path id="cir-4_5_" class="st2" d="M563.7,412.6c-9.6,4.1-20.6-0.3-24.7-9.8c-4.1-9.5,0.3-20.5,9.9-24.6
			c9.4-4.1,20.4,0.2,24.6,9.5C577.5,397.1,573.2,408.3,563.7,412.6z"/>
		<path id="cir-5_6_" class="st1" d="M591,337c-3,1.4-6.6,0-7.9-3c-1.4-3,0-6.6,3-7.9c3-1.4,6.6,0,7.9,3l0,0
			C595.4,332.1,594,335.7,591,337z"/>
		<path id="cir-6_5_" class="st3" d="M16,290.9c-4.8,1.1-9.7-1.9-10.8-6.8c-1.1-4.9,1.9-9.7,6.8-10.8s9.7,1.9,10.8,6.8l0,0
			C23.9,285,20.9,289.8,16,290.9z"/>
		<path id="cir-8_5_" class="st4" d="M566.5,69.1c-2.5,0.3-4.7-1.5-4.9-4c-0.3-2.5,1.5-4.7,4-4.9c2.5-0.3,4.7,1.5,4.9,4l0,0
			C570.8,66.6,569,68.9,566.5,69.1z"/>
		<path id="cir-9_5_" class="st5" d="M503.3,143.4c-9.6,2.7-19.5-3-22.1-12.6c-2.7-9.6,3-19.6,12.6-22.1c9.6-2.7,19.5,3,22.1,12.6
			l0,0C518.5,130.9,512.9,140.9,503.3,143.4z"/>
		<path id="cir-10_5_" class="st6" d="M129.4,353.1c-1.7,4.7-6.9,7-11.6,5.3c-4.7-1.7-7-6.9-5.3-11.6c1.7-4.7,6.9-7,11.6-5.3l0,0
			C128.8,343.3,131.1,348.5,129.4,353.1z"/>
		<path id="cir-11_3_" class="st7" d="M592.1,87.8c-2.9-3-2.8-7.7,0.2-10.6c3-2.9,7.7-2.8,10.6,0.2c2.9,3,2.8,7.7-0.2,10.6
			C599.7,90.8,594.9,90.8,592.1,87.8L592.1,87.8z"/>
		<path id="cir-12_5_" class="st4" d="M88.9,380.1c-0.7,2.9-3.6,4.6-6.3,3.8c-2.9-0.7-4.6-3.5-3.8-6.3c0.7-2.9,3.6-4.6,6.3-3.8l0,0
			C87.8,374.4,89.5,377.2,88.9,380.1z"/>
		<path id="cir-13_3_" class="st8" d="M162.2,11.8c-1,4.4-5.5,7.1-10,6.1c-4.4-1-7.1-5.6-6.1-10c1-4.4,5.5-7.1,10-6.1l0,0
			C160.6,2.8,163.4,7.4,162.2,11.8z"/>
	</g>
	<g>
		<linearGradient id="SVGID_1_" gradientUnits="userSpaceOnUse" x1="336.5" y1="34.6465" x2="336.5" y2="153.25">
			<stop  offset="0" style="stop-color:#89D8F6"/>
			<stop  offset="1" style="stop-color:#9AFFD3"/>
		</linearGradient>
		<path class="st9" d="M399.5,153.3h-126c-3.3,0-6-2.7-6-6V40.6c0-3.3,2.7-6,6-6h126c3.3,0,6,2.7,6,6v106.6
			C405.5,150.6,402.8,153.3,399.5,153.3z"/>
		<g>
			<polyline class="st10" points="366.4,126.2 377.9,126.2 377.9,114.6 			"/>
			<polyline class="st10" points="306.6,126.2 295.1,126.2 295.1,114.6 			"/>
			<polyline class="st10" points="366.4,45.1 377.9,45.1 377.9,56.7 			"/>
			<polyline class="st10" points="306.6,45.1 295.1,45.1 295.1,56.7 			"/>
		</g>
		<g>
			<path d="M351.1,30.9c-0.1,8.1-1.2,14.3-7.2,22.6c-4.6,6.4-17.8-9.9-20.5-18.4c-2.8-9.1,1.4-16.8,11.6-17.7
				C345,16.5,351.1,22.7,351.1,30.9z"/>
			<path d="M350.3,15.6c0,3.7-3,6.7-6.8,6.7c-3.7,0-6.8-3-6.8-6.7s3-6.7,6.8-6.7C347.3,9,350.3,12,350.3,15.6z"/>
			<path class="st4" d="M369.5,90.5C369.5,90.5,369.5,90.5,369.5,90.5c0,0.5,0,1-0.1,1.4v0c-0.6,11.5-3.5,22.1-4.5,25.6h-48.2
				l6.5-18.1c-2.4-6.6-4.2-12.5-5.1-17.7c0,0,0,0,0-0.1c-1.8-10.1-0.3-17.4,5.6-21.7c2.1-1.5,4.8-2.7,8.1-3.4
				c0.4-0.1,0.9-0.2,1.4-0.3h0c3.3-0.6,7.2-0.9,11.8-0.7c0.6,0,1.1,0,1.7,0.1c1.3,0.1,2.6,0.3,3.8,0.5c2.3,0.5,4.4,1.2,6.2,2.2
				c1.2,0.6,2.4,1.4,3.4,2.3c5.4,4.5,8,11.4,9,19C369.5,83.2,369.6,86.9,369.5,90.5z"/>
			<g>
				<path class="st11" d="M332.9,59.4c0,0-19.8,3.6-33.8-6.5c-14-10.1-8.8-29-5.8-35.3l-12.7-9.5c0,0-9.8,12.4-9.3,30.6
					c0.5,21.1,17,44.4,53.3,43L332.9,59.4z"/>
				<path class="st11" d="M278.4,11.8c2.3-4.1,6.3-9.3,8.4-8.5c0.4,0.2,0.7,0.6,0.9,1c0.8-0.8,1.8-1.3,2.7-0.9
					c0.7,0.4,0.9,1.1,1,1.8c0.8-0.6,1.6-1.1,2.5-0.7c0.7,0.4,1,1.1,1.1,1.9c0.7-0.3,1.7-0.4,2.4,0.3c1,0.9,0.2,2.2-0.9,4.4
					c-1,1.9-2.7,5.4-3.9,8.3L278.4,11.8z"/>
				<g>
					<g>
						<path d="M292.7,10.4c0.6-1.4,1.4-2.6,2.4-3.8c0.2-0.2-0.1-0.5-0.3-0.3c-1,1.2-1.8,2.4-2.4,3.8
							C292.3,10.4,292.6,10.6,292.7,10.4L292.7,10.4z"/>
					</g>
				</g>
				<g>
					<g>
						<path d="M289.3,9.1c0.6-1.4,1.4-2.6,2.4-3.8c0.2-0.2-0.1-0.5-0.3-0.3c-1,1.2-1.8,2.5-2.4,3.8C288.8,9.1,289.2,9.3,289.3,9.1
							L289.3,9.1z"/>
					</g>
				</g>
				<g>
					<g>
						<path d="M285.5,7.9c0.6-1.4,1.4-2.6,2.4-3.8c0.2-0.2-0.1-0.5-0.3-0.3c-1,1.2-1.8,2.4-2.4,3.8C285,8,285.4,8.1,285.5,7.9
							L285.5,7.9z"/>
					</g>
				</g>
				<path class="st4" d="M328.3,81.6c-23.2,1.5-32.7-5.1-32.7-5.1c7.8-9.7,8.2-20.9,8.2-20.9c13.8,4.1,20.2,0.7,29.7,0.8L328.3,81.6
					z"/>
				<g>
					<g>
						<path class="st12" d="M309.6,57.3c0.1,6-1.5,12.1-4.5,17.2c-0.9,1.5-1.9,2.9-3,4.2c-0.2,0.3,0.2,0.7,0.4,0.4
							c4.1-4.6,6.6-10.6,7.4-16.6c0.2-1.7,0.3-3.4,0.3-5.1C310.1,56.9,309.6,56.9,309.6,57.3L309.6,57.3z"/>
					</g>
				</g>
				<path class="st13" d="M273.6,45c2.4,0.4,4.8,3.7,5.3,7.4c0.4,2.7-0.8,5.1-2.2,5.9c-1.8-3.6-2.9-6.4-3.6-8.5
					c-0.4-1.3-1-3-1.1-4.8C272.4,44.8,273.1,44.9,273.6,45z"/>
			</g>
			<g>
				<path class="st11" d="M393.8,113.2c-0.1,0.2-0.1,0.5-0.2,0.7c-0.1,0.4-0.2,0.9-0.4,1.3c0,0,0,0,0,0c-0.2,0.8-0.5,1.5-0.7,2.2
					h-20.2c3-6.3,4.3-14-0.2-21.7c-0.8-1.4-1.7-2.7-2.6-4v0c-0.1-0.2-0.3-0.4-0.4-0.6c-1.4-1.8-2.9-3.4-4.3-4.8
					c-7.2-6.9-14.4-8.7-14.4-8.7l9.9-17.2l0.5-1l0,0c0.6,0.2,1.3,0.5,1.9,0.8c0.2,0.1,0.4,0.2,0.6,0.3c9.6,4,16.7,9.3,21.8,15.2
					c0,0,0,0,0,0C394.9,87.4,396.9,101.3,393.8,113.2z"/>
				<path class="st4" d="M356.8,58.3c22.1,7.2,28.4,17.9,28.4,17.9C373.9,81.9,369,91.4,369,91.4c-8-7.7-14.9-6.2-27.5-12.3
					L356.8,58.3z"/>
				<g>
					<g>
						<path class="st12" d="M364.4,87.8c2.5-5.5,6.4-10.4,11.3-13.9c1.4-1,2.9-1.8,4.5-2.6c0.3-0.2,0-0.6-0.3-0.5
							c-5.6,2.6-10.3,6.9-13.6,12.1c-0.9,1.5-1.7,3-2.5,4.6C363.7,87.9,364.2,88.2,364.4,87.8L364.4,87.8z"/>
					</g>
				</g>
				<path class="st13" d="M394,112.2c0,0.3-0.1,0.6-0.2,1c-0.1,0.2-0.1,0.5-0.2,0.7c-0.1,0.4-0.2,0.9-0.4,1.3c0,0,0,0,0,0
					c-0.2,0.7-0.5,1.5-0.8,2.2h-5.1c1-2.9,3.1-5.2,5.1-5.4C392.9,112.1,393.7,112.1,394,112.2z"/>
			</g>
			<g>
				<g>
					<path class="st12" d="M328.7,58.4c2.7,1.9,5.9,3,9.1,3.2c3.2,0.2,6.4-0.6,9.1-2.1c1.5-0.9,2.9-2,4.1-3.3
						c0.2-0.3-0.2-0.7-0.4-0.4c-2,2.2-4.7,3.9-7.6,4.7c-3,0.8-6.3,0.8-9.3-0.2c-1.7-0.5-3.3-1.3-4.8-2.4
						C328.7,57.7,328.4,58.2,328.7,58.4L328.7,58.4z"/>
				</g>
			</g>
			<g>
				<path class="st11" d="M331.9,57.7l0-3.8c0,0-9.1,1.7-9.1-6.1c0-13.6-0.8-17.3,5.1-21.3c5.9-4.1,20.8,2.1,19.8,13.5l-1,16.5
					c0,0-2.2,1.7-6.6,2.1C335.5,59,331.9,57.7,331.9,57.7z"/>
				<path d="M333.3,39c0.1,0.7-0.2,1.3-0.5,1.3c-0.3,0-0.7-0.5-0.7-1.2c-0.1-0.7,0.2-1.3,0.5-1.3C332.9,37.7,333.2,38.3,333.3,39z"
					/>
				<path d="M325.9,40c0.1,0.7-0.2,1.3-0.5,1.3c-0.3,0-0.6-0.5-0.7-1.2c-0.1-0.7,0.2-1.3,0.5-1.3C325.6,38.8,325.9,39.3,325.9,40z"
					/>
				<path d="M331.9,53.9c0,0,4.8-0.6,8.1-3.9l-8.1,7.7L331.9,53.9z"/>
				<g>
					<g>
						<path d="M328.9,46.6c0.9,0.2,2-0.2,2.5-1c0.2-0.3-0.3-0.6-0.5-0.3c-0.4,0.6-1.2,0.9-1.8,0.7c-0.1,0-0.3,0-0.3,0.2
							C328.7,46.4,328.7,46.6,328.9,46.6L328.9,46.6z"/>
					</g>
				</g>
				<path class="st13" d="M343.8,42.1c-0.4-2.6-3-4.3-5.7-4c-2.7,0.4-4.6,2.8-4.2,5.3c0.4,2.6,3,4.3,5.7,4
					C342.4,47.1,344.3,44.7,343.8,42.1z"/>
				<path class="st13" d="M325,43.5c-0.2-1.4-1.1-2.5-2.2-3.2c0,2.1,0,4.6,0,7.5c0,0.1,0,0.2,0,0.3C324.4,47.1,325.3,45.4,325,43.5z
					"/>
				<polygon class="st14" points="327.9,37 328.8,37 329.6,43.5 326.9,43.9 				"/>
				<path d="M333.3,34.8c0,0.3-0.6,0.5-1.3,0.5c-0.7,0-1.2-0.3-1.2-0.6c0-0.3,0.6-0.5,1.3-0.5C332.8,34.3,333.3,34.6,333.3,34.8z"/>
				<path d="M325.9,35.1c0.1,0.3-0.2,0.7-0.9,1c-0.6,0.3-1.2,0.3-1.4,0.1c-0.1-0.3,0.2-0.7,0.9-1C325.2,34.9,325.8,34.9,325.9,35.1z
					"/>
				<path class="st11" d="M351.8,41.3c-0.4-2.2-2.5-3.8-4.8-3.5c-2.3,0.3-3.8,2.4-3.4,4.6c0.4,2.2,2.5,3.8,4.8,3.5
					C350.7,45.7,352.2,43.6,351.8,41.3z"/>
				<g>
					<g>
						<path d="M349.2,39.9c-1.4-0.5-3.2,0.3-3.5,1.8c-0.1,0.3,0.5,0.5,0.5,0.1c0.3-1.2,1.7-1.8,2.8-1.4
							C349.4,40.5,349.5,40,349.2,39.9L349.2,39.9z"/>
					</g>
				</g>
				<g>
					<path d="M326.3,27.1c0.4,2.2,2.7,3.7,5,4.4c2.3,0.6,4.8,0.7,7,1.4c2.3,0.7,4.5,2.5,4.5,4.7c0,0.6-0.1,1.3,0.2,1.8
						c0.3,0.6,1.1,0.9,1.8,0.8c0.7-0.1,1.3-0.4,1.9-0.9c1.3-1.2,1.9-3.1,1.7-4.8c-0.2-1.8-1-3.4-2.1-4.9c-2.1-2.8-5.2-5-8.7-5.7
						c-3.5-0.7-7.4,0.1-10,2.4L326.3,27.1z"/>
				</g>
			</g>
		</g>
	</g>
	<g>
		<linearGradient id="SVGID_2_" gradientUnits="userSpaceOnUse" x1="138.5" y1="105.0513" x2="138.5" y2="297.25">
			<stop  offset="0" style="stop-color:#89D8F6"/>
			<stop  offset="1" style="stop-color:#9AFFD3"/>
		</linearGradient>
		<path class="st15" d="M228.5,297.3h-180c-3.3,0-6-2.7-6-6V111.1c0-3.3,2.7-6,6-6h180c3.3,0,6,2.7,6,6v180.2
			C234.5,294.6,231.8,297.3,228.5,297.3z"/>
		<g>
			<polyline class="st16" points="180.1,231.6 196.1,231.6 196.1,215.6 			"/>
			<polyline class="st16" points="96.9,231.6 80.9,231.6 80.9,215.6 			"/>
			<polyline class="st16" points="180.1,119.5 196.1,119.5 196.1,135.5 			"/>
			<polyline class="st16" points="96.9,119.5 80.9,119.5 80.9,135.5 			"/>
		</g>
		<g>
			<path d="M141,69.3c-17.4,0-17.6,15.8-24.4,23.2S94.3,102.7,94.3,123c0,20.3,15.9,24.2,29.7,25.7c23.2,2.5,45.7-18.6,45.8-43.9
				C169.9,79.5,158.5,69.3,141,69.3z"/>
			<g id="Groupe_59_2_" transform="translate(316.654 63.159)">
				<g>
					<path class="st1" d="M-112,156.4h-25.3c-0.3-13-4.1-25.9-8.2-36.4c-1.1-2.9-2.3-5.5-3.4-8c-0.6-1.3-1.2-2.5-1.7-3.6
						c-2.3-4.8-4.2-7.7-5.3-10.3c-5.9-13.8,21.7-16.3,26.1-10c2.7,4,5.2,8.4,7.5,13.1c1,2.1,1.9,4.2,2.7,6.4
						C-113.8,122.7-110.8,140.2-112,156.4z"/>
					<path id="Tracé_390_2_" class="st7" d="M-118.3,107.2c-5.5-12.3-8.5-14.5-16-27.4c-9.7-16.7-22.1-17.6-22.1-17.6
						s-20.3-2.9,1.5,41.6c3.4,6.9,4.9,11.2,7.7,16.3C-133.9,120.1-129.2,110.6-118.3,107.2z"/>
					<path id="Tracé_391_2_" class="st17" d="M-121.6,100.7c-7.6,5.8-17.8,9.9-28.5,11.6"/>
				</g>
				<path class="st7" d="M-152.3,117c0,0,0.2,23.8,4.3,39.4h-77.4c0.4-9.6,5.3-20.7,8.3-33.2c0.7-2.7,1.2-5.5,1.7-8.4c0,0,0,0,0-0.1
					c-1.2-5.8-2.7-11.6-3.9-17.1c0,0,0,0,0,0c-1.6-7.8-2.5-15-1-21.1c0.3-1.2,0.7-2.3,1.2-3.3c1.6-3.4,4.3-6.2,8.4-8.4
					c0,0,0.1,0,0.1,0s0,0,0,0c3.3-1.7,10.4-3.1,16.9-3.9c2-0.3,3.9-0.5,5.7-0.6c0.2,0,0.4,0,0.6,0c6.1-0.4,12.5-0.4,18.4,0h0
					c0.8,0.1,1.6,0.1,2.4,0.2c0.1,0,0.1,0,0.2,0c3.8,0.4,7.3,1,10.3,1.8c0,0,0.1,0,0.1,0c1.2,0.3,2.3,0.7,3.2,1.1
					c0.9,0.4,1.7,0.8,2.4,1.2c5,3,7.2,10.7,7.4,18.9c0.2,10.4-2.8,21.5-7.6,25c-0.2,0.1-0.3,0.2-0.5,0.3c-0.5,0.3-0.7,0.8-0.9,1.5
					C-152.3,112.2-151.9,115.4-152.3,117z"/>
				<g>
					<path class="st1" d="M-209.4,110c-1.6,11-2.4,17-2.8,28.1c-0.2,6.1-0.1,12.2,0.4,18.3H-239c-1.8-13.4-2-26.2-0.3-38.6
						c0.5-3.8,1.1-7.6,2-11.3c0.9-3.4,2-7.1,4.9-9.3C-225,91.6-207.6,94.4-209.4,110z"/>
					<path d="M-203.1,110.2c-2.1,7.4-2.9,11.9-4.8,17.4c-1.3,0-2.5,0-3.8,0c0.9-10.5,2.4-19,2.9-22.7c0,0-16.9-15.4-24.9-6.5
						c0.1-0.4,0.2-0.8,0.3-1.2c5.7-20.3,24.4-28.1,24.4-28.1S-189.3,62.5-203.1,110.2z"/>
					<path id="Tracé_390_3_" class="st7" d="M-239.2,117.8c0.6-8.4,2-16.7,4.2-24.8c5.7-20.3,24.4-28.1,24.4-28.1
						s19.5-6.4,5.8,41.2c-2.1,7.4-2.9,11.9-4.8,17.4c-5.1,0.1-10.3-0.3-15.3-1.2C-230,121.2-234.8,119.7-239.2,117.8z"/>
					<path id="Tracé_391_3_" class="st17" d="M-238.2,108.8c8.5,4.4,17.3,6.2,28.1,6.1"/>
				</g>
				<path id="Tracé_393_2_" class="st18" d="M-150.3,84.3c2.3,6.2,2.5,13.1,0.4,19.4"/>
				<path id="Tracé_394_2_" class="st19" d="M-163.4,65.2c-4.8,3.2-10.6,4.4-16.3,3.6c-5.7-0.9-10.8-3.9-14.3-8.3"/>
			</g>
			<g id="Groupe_64_2_" transform="translate(355.482 24.392)">
				<path id="Tracé_408_2_" class="st1" d="M-205.3,101.4l-0.3-5.5c0,0,13.7,3.2,14-8.8c0.5-20.8,1.9-26.5-6.6-33
					c-8.4-6.5-30.4,2.2-29.5,19.7l0.8,25.4c0,0,3.2,2.8,9.6,3.5C-213.2,103.2-209.1,102.8-205.3,101.4z"/>
				<path id="Tracé_409_2_" d="M-207,72.2c0,0.8,0.3,1.5,0.7,1.5c0.4,0,0.7-0.7,0.7-1.5s-0.3-1.5-0.7-1.5
					C-206.7,70.7-207,71.4-207,72.2z"/>
				<path id="Tracé_410_2_" d="M-196.3,72.2c0,0.8,0.3,1.5,0.7,1.5s0.7-0.7,0.7-1.5s-0.3-1.5-0.7-1.5
					C-195.9,70.7-196.3,71.3-196.3,72.2z"/>
				<path id="Tracé_411_2_" d="M-205.1,95.9c-4.5-0.9-8.5-3.2-11.7-6.4l11.5,12.3L-205.1,95.9z"/>
				<path id="Tracé_412_2_" class="st20" d="M-221.2,76.7c0.7-3.5,4-5.7,7.5-5.1c3.4,0.6,5.7,3.8,5.2,7.3c0,0,0,0.1,0,0.1
					c-0.7,3.5-4,5.7-7.5,5.1C-219.5,83.4-221.8,80.2-221.2,76.7C-221.2,76.7-221.2,76.7-221.2,76.7z"/>
				<g id="Groupe_63_2_" transform="translate(0.093 20.426)" class="st13">
					<path id="Tracé_413_2_" d="M-194.7,57.2c0.4-2,1.6-3.7,3.3-4.8c-0.1,3.2-0.2,7-0.3,11.5c0,0.1,0,0.3,0,0.4
						C-194.1,62.8-195.2,60-194.7,57.2z"/>
					<path id="Tracé_414_2_" d="M-194.7,57.2c0.4-2,1.6-3.7,3.3-4.8c-0.1,3.2-0.2,7-0.3,11.5c0,0.1,0,0.3,0,0.4
						C-194.1,62.8-195.2,60-194.7,57.2z"/>
				</g>
				<path id="Tracé_415_2_" class="st21" d="M-199.3,66.7l-1.9-0.1l-0.9,10.7l4.6,0.3L-199.3,66.7z"/>
				<path id="Tracé_416_2_" d="M-207.8,65.7c0.1,0.6,0.9,0.9,1.9,0.8c1-0.1,1.8-0.7,1.7-1.2s-0.9-0.9-1.9-0.8
					C-207.1,64.5-207.9,65.1-207.8,65.7z"/>
				<path id="Tracé_417_2_" d="M-197.1,65.4c-0.2,0.5,0.4,1.3,1.3,1.6c0.9,0.4,1.9,0.2,2.1-0.3c0.2-0.5-0.4-1.3-1.3-1.6
					C-196,64.7-196.9,64.9-197.1,65.4z"/>
				<path id="Tracé_418_2_" class="st1" d="M-234.4,75.5c0.7-3.5,4-5.7,7.5-5.1c3.4,0.6,5.7,3.8,5.1,7.3c0,0,0,0,0,0.1
					c-0.7,3.5-4,5.7-7.5,5.1C-232.7,82.3-235,79-234.4,75.5C-234.4,75.6-234.4,75.5-234.4,75.5z"/>
				<path id="Tracé_419_2_" class="st22" d="M-229,73.8c2,0.1,3.7,1.8,3.6,3.8c0,0,0,0.1,0,0.1"/>
				<path id="Tracé_420_2_" d="M-195.8,55.1c-0.7,3.4-4.1,5.6-7.5,6.4c-3.4,0.8-7,0.8-10.4,1.8c-3.4,1-6.7,3.6-6.8,7
					c0.1,0.9,0,1.9-0.3,2.8c-0.6,0.9-1.6,1.4-2.7,1.2c-1-0.2-2-0.7-2.7-1.5c-1.8-2-2.7-4.8-2.3-7.5c0.4-2.7,1.5-5.2,3.2-7.4
					c3.1-4.3,7.7-7.3,12.9-8.3c5.2-1,10.7,0.6,14.5,4.2L-195.8,55.1z"/>
				<path id="Tracé_421_2_" d="M-204.2,82.8c-0.9-0.6-1.4-1.7-1.3-2.8c0.1-0.3,0.3-1,1-0.9c0.7,0.1,1,0.8,1.6,1.2
					c0.6,0.3,1.7,0.1,2.2,0.9c0.3,0.5,0.2,1.1-0.1,1.5c-1,0.8-2.4,0.9-3.5,0.2L-204.2,82.8z"/>
			</g>
		</g>
		<line class="st23" x1="70.1" y1="247.1" x2="185.6" y2="247.1"/>
		<line class="st23" x1="70.1" y1="259.7" x2="206.9" y2="259.7"/>
		<line class="st23" x1="70.1" y1="272.3" x2="121.6" y2="272.3"/>
	</g>
	<g>
		<linearGradient id="SVGID_3_" gradientUnits="userSpaceOnUse" x1="413.75" y1="192.4825" x2="413.75" y2="454.75">
			<stop  offset="0" style="stop-color:#89D8F6"/>
			<stop  offset="1" style="stop-color:#9AFFD3"/>
		</linearGradient>
		<path class="st24" d="M539,454.7H288.5c-3.3,0-6-2.7-6-6V198.5c0-3.3,2.7-6,6-6H539c3.3,0,6,2.7,6,6v250.3
			C545,452.1,542.3,454.7,539,454.7z"/>
		<g>
			<polyline class="st25" points="470.6,365.1 492.5,365.1 492.5,343.3 			"/>
			<polyline class="st25" points="356.9,365.1 335,365.1 335,343.3 			"/>
			<polyline class="st25" points="470.6,212.2 492.5,212.2 492.5,234 			"/>
			<polyline class="st25" points="356.9,212.2 335,212.2 335,234 			"/>
		</g>
		<g>
			<g>
				<path class="st26" d="M384.1,278.2c-0.7,6.9-1.4,13-2.2,18.5c0,0,0,0,0,0c-2.1,15.5-4.4,26.3-7.2,34.2c0,0.1-0.1,0.2-0.1,0.3
					c-2.9,8.2-6.2,13.2-10,17.4h-48.8c8.1-6.9,17.2-14,20.6-21.5c3.8-8.5,5.2-16.2,5.9-24c0.3-3.8,0.5-7.5,0.7-11.3
					c0.5-10.5,1.1-21.6,5.9-34.8c4.9-13.6,12.3-22.8,19.2-25.2C378.7,228.2,387.9,240.8,384.1,278.2z"/>
				<path class="st11" d="M336.4,299.7c4.1-10.2,7.3-27.5,11.7-42.8c13.5-46.6,71.2-55.8,39.3,25.4c-4.9,12.6-7.3,20.3-11.3,29.7
					c0,0-9.3,0-21-3.4C345.1,305.7,336.4,299.7,336.4,299.7z"/>
				<path class="st13" d="M374.7,331.4c-2.9,8.2-6.2,13.2-10,17.4h-6.3c0.1-1.9,0.5-4,1.4-6.2c2.8-7.2,8.9-12.3,13.5-11.6
					C373.8,331,374.2,331.1,374.7,331.4z"/>
				<g>
					<g>
						<path d="M339.8,290.7c4.5,2.6,9.2,4.8,14.2,6.5c5.2,1.8,10.6,3.1,16,3.9c3.2,0.5,6.5,0.8,9.8,1c0.7,0,0.7-1,0-1.1
							c-5.7-0.3-11.3-1.1-16.8-2.4c-5.2-1.2-10.2-2.8-15.1-5c-2.6-1.1-5.1-2.4-7.6-3.9C339.7,289.4,339.2,290.4,339.8,290.7
							L339.8,290.7z"/>
					</g>
				</g>
			</g>
			<path class="st11" d="M497.1,320.6c-1.8,1.2-2.8,1.4-6.2,3c-0.1,0.1-0.2,0.1-0.3,0.2c-3.5,2-6.5,13.5-8.6,25H378l-3.2-17.7
				l-3.5-19.3l-1.9-10.5c-0.1-0.2-0.1-0.5-0.2-0.8c-2.7-11.9-4.7-22.6-5.8-32c0,0,0,0,0,0c-1.8-15.9-0.9-28.2,4.7-36.5
				c3.2-4.8,7.8-8.3,14.3-10.4h0c4.3-1.4,9.4-2.3,15.4-2.5c7.6-0.3,16.6,0.4,27.2,2.1c2.2,0.3,4.3,0.8,6.4,1.2
				c3.6,0.8,7,1.7,10.2,2.8h0C489.4,241.1,497.7,288.2,497.1,320.6z"/>
			<path class="st26" d="M490.9,323.6c-0.1,9.3-1.5,17.7-3.8,25.2h-42.6c2.8-4.9,2.4-11.7,2.8-18.1c9.7,0.4,16.1,0,26.4-2
				c5.6-1.1,11.7-2.7,16.7-4.9C490.7,323.7,490.8,323.6,490.9,323.6z"/>
			<path class="st26" d="M399.5,228.5l-2.1-11.7c0,0-20.8,5-21.8-11.8c-1.7-29.4-4-37.3,8.6-46.8c12.6-9.6,46.7,1.9,46.1,37.1
				l1.1,28c0,0-6.3,5.9-15.4,7.6C406.6,232.6,399.5,228.5,399.5,228.5z"/>
			<path d="M439.8,184.6C439.8,184.6,439.9,184.6,439.8,184.6c-0.8,3.6-2,7-3.4,9.9c-1.9,4-4,7.3-5.8,9.5l-0.3-7.8
				c-0.5,0,0.2-1.8-0.3-1.9c0-0.8-1.2,0.2-1.3-0.7c-0.4,0.1-0.7,0.3-1.1,0.3c-3.3,0.6-7.1-2.4-6-5.3l-0.7,0.5l-0.5,0.4
				c-0.5,0.2-0.9,0.3-1.4,0.3c0.1,7.4,0.7,12.7-6.3,19.3c-5.4,5.2-15.4,7.4-15.4,7.4s-20.8,5.1-21.8-11.8c-0.2-4.1-0.5-7.8-0.7-11.1
				c1.5,2.7,4.9,5.5,14.7,3.6c13.4-2.5,24.6-4.1,22.9-15.8c-0.9-6.3-2-9.4-4.7-13c-2.7-3.6-13.2-2.2-15.5-2.1
				c-7.8,0.3-12.7,2.3-16.9,3.1c-3.4,0.7-6.3,0.5-9.8-2c-5.1-3.6-3.6-16.3,1.5-22.3c6.6-7.9,19.7-5.8,25.7-3.5
				c4.5,1.8,4.9,3.6,9.3,4.7c9.9,2.3,13-1.5,20.3,0.3c11.5,2.8,17.4,20.5,17.6,21.4C441.3,173.9,441,179.5,439.8,184.6z"/>
			<path d="M397.8,185c0.1,1.2-0.3,2.2-0.9,2.2c-0.6,0-1.1-0.9-1.2-2.1c-0.1-1.2,0.3-2.2,0.9-2.2C397.2,182.9,397.7,183.8,397.8,185
				z"/>
			<path d="M381.3,185.9c0.1,1.2-0.3,2.2-0.9,2.2c-0.6,0-1.1-0.9-1.2-2.1c-0.1-1.2,0.3-2.2,0.9-2.2
				C380.7,183.8,381.2,184.7,381.3,185.9z"/>
			<path class="st13" d="M418.2,191.4c-0.7-4.4-5-7.5-9.6-6.9c-4.6,0.6-7.8,4.6-7.1,9.1c0.7,4.4,5,7.5,9.6,6.9
				C415.7,199.9,418.9,195.9,418.2,191.4z"/>
			<path class="st13" d="M379.9,195.3c-0.7-2.9-2.7-5.2-5.3-6.6c0.3,4.6,0.7,9.9,1,16.2c0,0.2,0.1,0.4,0.1,0.6
				C379.1,203.2,380.9,199.3,379.9,195.3z"/>
			<polygon class="st14" points="386,179.6 389,179.2 391.3,194.2 384.2,195.1 			"/>
			<path d="M398.4,175.6c0,0.8-1.3,1.4-2.9,1.3c-1.5-0.1-2.8-0.8-2.7-1.6c0-0.8,1.3-1.4,2.9-1.3
				C397.2,174.1,398.4,174.8,398.4,175.6z"/>
			<path d="M382,176.2c0.4,0.7-0.4,1.8-1.8,2.4c-1.4,0.6-2.8,0.5-3.2-0.2c-0.4-0.7,0.4-1.8,1.8-2.4
				C380.2,175.4,381.6,175.5,382,176.2z"/>
			<path class="st26" d="M436.4,194.5c-1.1,0.8-2.4,1.3-3.9,1.6c-0.8,0.1-1.5,0.2-2.2,0.2c-0.5,0-1-0.1-1.6-0.1
				c-3.8-0.6-6.9-3.2-7.8-6.8c0,0,0,0,0-0.1c-1.1-4.6,1.9-9.1,6.8-10.4c0.3-0.1,0.5-0.1,0.8-0.2c4.9-1,9.8,1.6,11.4,5.9c0,0,0,0,0,0
				c0.1,0.3,0.2,0.6,0.3,0.9C440.9,189.1,439.4,192.5,436.4,194.5z"/>
			<g>
				<path class="st12" d="M391.5,205.7c-1.3,0.2-3.6,0-4.8-1c-0.4-0.3-1.2-1.1-0.3-1.6c0.9-0.5,2.3,0.1,3.5-0.1
					c1.1-0.2,2.2-1.7,3.8-1.5c1.2,0.2,1.8,0.6,2,1.3c0.2,1.1-1.4,2.4-4,2.8L391.5,205.7z"/>
			</g>
			<g>
				<g>
					<path d="M432.7,183.5c-1.5-0.2-3.1,0.1-4.4,1c-1.2,0.8-2.2,2-2.4,3.5c-0.1,0.3,0.1,0.7,0.5,0.8c0.3,0.1,0.8-0.1,0.8-0.5
						c0.3-2.3,2.9-3.9,5.1-3.6c0.3,0,0.7-0.1,0.8-0.5C433.3,184,433.1,183.6,432.7,183.5L432.7,183.5z"/>
				</g>
			</g>
			<g>
				<g>
					<path d="M439.9,284.8c1,5.9,1.8,11.9,2.5,17.9c0.7,6,1.3,11.9,1.8,17.9c0.3,3.4,0.5,6.8,0.7,10.2c0,0.8,1.3,0.8,1.2,0
						c-0.3-6-0.8-12.1-1.4-18.1c-0.6-6-1.3-12.1-2.1-18.1c-0.5-3.4-1-6.8-1.5-10.1c-0.1-0.3-0.5-0.5-0.8-0.4
						C440,284.2,439.8,284.5,439.9,284.8L439.9,284.8z"/>
				</g>
			</g>
			<g>
				<g>
					<path d="M444.9,320.5c3.7,0.2,7.3,0.3,11,0.2c3.3-0.1,6.6-0.3,9.9-0.7c3.7-0.5,7.4-1.1,11-1.9c3.5-0.8,6.9-1.7,10.3-2.9
						c3-1.1,6.1-2.4,8.7-4.3c0.3-0.2,0.6-0.4,0.9-0.7c0.3-0.2,0.2-0.7,0-0.9c-0.3-0.3-0.6-0.2-0.9,0c-2.4,1.9-5.3,3.2-8.2,4.3
						c-3.3,1.2-6.7,2.2-10.1,3c-3.6,0.8-7.2,1.5-10.9,2c-3.2,0.5-6.5,0.7-9.8,0.8c-3.5,0.1-7.1,0-10.6-0.1c-0.5,0-1,0-1.5-0.1
						C444.1,319.2,444.1,320.5,444.9,320.5L444.9,320.5z"/>
				</g>
			</g>
			<g>
				<g>
					<path d="M394.3,233.5c3.1,1.4,6.3,2.5,9.7,3.1c3.4,0.6,6.8,0.8,10.2,0.7c3.4-0.2,6.8-0.7,10.1-1.6c3.2-0.9,6.4-2.2,9.4-3.8
						c2.9-1.6,5.6-3.6,7.9-5.9c0.3-0.3,0.6-0.6,0.8-0.9c0.5-0.6-0.3-1.4-0.9-0.9c-2.2,2.3-4.7,4.3-7.5,5.9c-2.8,1.7-5.8,3-8.9,4
						c-3.2,1-6.4,1.6-9.7,1.9c-3.3,0.3-6.6,0.2-9.9-0.4c-3.2-0.5-6.5-1.4-9.5-2.7c-0.4-0.2-0.8-0.3-1.1-0.5
						c-0.3-0.1-0.7-0.1-0.8,0.2C394,232.9,394,233.3,394.3,233.5L394.3,233.5z"/>
				</g>
			</g>
			<g>
				<g>
					<path d="M368.5,248.5c-3.6,6.3-5.5,13.5-5.7,20.7c0,2,0.1,4,0.3,6c0,0.3,0.3,0.6,0.6,0.6c0.3,0,0.7-0.3,0.6-0.6
						c-0.9-7,0-14.1,2.6-20.7c0.7-1.8,1.6-3.6,2.6-5.4C369.9,248.4,368.9,247.8,368.5,248.5L368.5,248.5z"/>
				</g>
			</g>
		</g>
		<line class="st27" x1="320.2" y1="386.3" x2="507.3" y2="386.3"/>
		<line class="st27" x1="320.2" y1="403.5" x2="445.5" y2="403.5"/>
		<line class="st27" x1="320.2" y1="420.7" x2="486.7" y2="420.7"/>
	</g>
</g>
</svg>
