<?xml version="1.0" encoding="utf-8"?>
<!-- Generator: Adobe Illustrator 23.1.0, SVG Export Plug-In . SVG Version: 6.00 Build 0)  -->
<svg version="1.1" id="upgrade-illu" xmlns="http://www.w3.org/2000/svg" xmlns:xlink="http://www.w3.org/1999/xlink" x="0px"
	 y="0px" viewBox="0 0 610 515" style="enable-background:new 0 0 610 515;" xml:space="preserve">
<style type="text/css">
	.st0{opacity:0.7;fill:url(#SVGID_1_);}
	.st1{opacity:0.3;fill:#888799;enable-background:new    ;}
	.st2{fill:#0BD9A9;}
	.st3{fill:#304D52;}
	.st4{fill:none;stroke:#304D52;stroke-width:3;stroke-miterlimit:10;}
	.st5{fill:#31A6E0;}
	.st6{fill:#FADF50;}
	.st7{fill:none;stroke:#0BD9A9;stroke-width:4.5;stroke-miterlimit:10;}
	.st8{fill:none;stroke:#304D52;stroke-width:6;stroke-miterlimit:10;}
	.st9{fill:none;stroke:#FADF50;stroke-width:9;stroke-miterlimit:10;}
	.st10{fill:#EEEFF2;}
	.st11{opacity:0.1;}
	.st12{opacity:0.2;}
	.st13{fill:#0B1C30;}
</style>
<g id="offres_d_emploi">
	<linearGradient id="SVGID_1_" gradientUnits="userSpaceOnUse" x1="305" y1="70" x2="305" y2="445">
		<stop  offset="0" style="stop-color:#89D8F6"/>
		<stop  offset="1" style="stop-color:#9AFFD3"/>
	</linearGradient>
	<path class="st0" d="M20.2,286.7c-2-52.2,15-93.5,69.7-111.3c74.2-24.1,134.7,60.4,199.1,30.1c46.6-21.9,40.8-71.4,83.5-110.6
		c59.3-54.5,191.7-14.5,212.1,75.6c19.1,84.4-14.8,173.6-68,217.1C354,520.5,24.4,395.8,20.2,286.7z"/>
	<g id="circles_3_" transform="translate(0 15.165)">
		<path id="cir-1_3_" class="st1" d="M71.3,435.1c0-10.8,104.1-15,232.5-15c128.4,0,232.5,4.2,232.5,15
			c0,10.8-104.1,22.5-232.5,22.5C175.4,457.6,71.3,445.9,71.3,435.1z"/>
		<path id="cir-2_3_" class="st2" d="M370.5,202.4c-9.4,4.3-20.5,0.1-24.8-9.3c-4.3-9.4-0.1-20.5,9.3-24.8
			c9.4-4.3,20.5-0.1,24.8,9.3l0,0C384.1,187,379.9,198.1,370.5,202.4z"/>
		<path id="cir-3_3_" class="st3" d="M315.4,339.7c-0.7,4.4-4.9,7.5-9.5,6.8c-4.4-0.7-7.5-4.9-6.8-9.5c0.7-4.4,4.9-7.5,9.5-6.8l0,0
			C313,330.9,316.1,335.2,315.4,339.7z"/>
		<path id="cir-4_3_" class="st4" d="M92.7,379.6c-9.6,4.1-20.6-0.3-24.7-9.8c-4.1-9.5,0.3-20.5,9.9-24.6c9.4-4.1,20.4,0.2,24.6,9.5
			C106.5,364.1,102.2,375.3,92.7,379.6z"/>
		<path id="cir-5_3_" class="st5" d="M595.2,306.1c-8.3,3.9-18.2,0-21.7-8.3c-3.9-8.3,0-18.2,8.3-21.7c8.3-3.9,18.2,0,21.7,8.3l0,0
			C607.4,292.6,603.5,302.5,595.2,306.1z"/>
		<path id="cir-5_4_" class="st6" d="M575.8,206.1c-5.6,2.6-12.4,0-14.8-5.6c-2.6-5.6,0-12.4,5.6-14.8c5.6-2.6,12.4,0,14.8,5.6l0,0
			C584.1,196.9,581.5,203.6,575.8,206.1z"/>
		<path id="cir-6_3_" class="st7" d="M27.9,199.1c-10,2.3-20.1-3.9-22.4-14.1c-2.3-10.2,3.9-20.1,14.1-22.4
			c10.2-2.3,20.1,3.9,22.4,14.1l0,0C44.3,186.9,38.1,196.8,27.9,199.1z"/>
		<path id="cir-8_3_" class="st6" d="M61.8,291c-2.9,0.4-5.5-1.8-5.7-4.7c-0.4-2.9,1.8-5.5,4.7-5.7c2.9-0.4,5.5,1.8,5.7,4.7l0,0
			C66.8,288.2,64.7,290.8,61.8,291z"/>
		<path id="cir-9_3_" class="st8" d="M498.8,87.9c-9.6,2.7-19.5-3-22.1-12.6c-2.7-9.6,3-19.5,12.6-22.1c9.6-2.7,19.5,3,22.1,12.6
			l0,0C514,75.4,508.4,85.3,498.8,87.9z"/>
		<path id="cir-10_3_" class="st9" d="M316.4,40.2c-1.8,5.1-7.5,7.6-12.6,5.7c-5.1-1.8-7.6-7.5-5.7-12.6c1.8-5.1,7.5-7.6,12.6-5.7
			l0,0C315.7,29.6,318.2,35.3,316.4,40.2z"/>
		<path id="cir-12_3_" class="st5" d="M124.8,247.3c-1.1,4.5-5.6,7.2-10,6c-4.5-1.1-7.2-5.6-6-9.9c1.1-4.5,5.6-7.2,10-6l0,0
			C123.1,238.3,125.8,242.8,124.8,247.3z"/>
	</g>
	<g>
		<g>
			<polygon class="st10" points="196.3,432.3 195.6,448.5 187.4,450.1 186.6,444 181.5,451 135.9,453.1 162.4,441.8 167,428.5 			
				"/>
			<path class="st3" d="M270.5,202.2c10.6,29.5-43,89.8-56.9,113.3c-1.2,1.9-2,3.6-2.6,5c-0.6,1.6-1.1,3.4-1.6,5.4
				c-1.8,8.2-2.4,19.9-3.7,35.9c-0.1,0.8-0.1,1.7-0.2,2.6c-1.5,17.8-4,40.7-10,69.6c-11.8,6.6-30.9-3.1-30.9-3.1s-2.3-51.6-1.1-90.6
				c0.1-3,0.2-6,0.4-8.8c0.5-9.5,1.2-17.8,2.3-23.9c0.8-4.2,2.1-9.4,3.9-15.3c1.1-3.6,2.3-7.5,3.6-11.5
				c12.6-38.3,35.1-92.2,35.1-92.2S257.9,167,270.5,202.2z"/>
			<g>
				<g>
					<path class="st10" d="M187.1,417.4c-0.6-15.6-1.4-31.3-1.5-46.9c0-12.8,0.6-25.7,3.1-38.3c2.6-12.9,7.2-25.3,13.3-37
						c8-15.4,18.2-29.7,29-43.3c3.4-4.3,6.8-8.5,10.3-12.6c3.3-3.9,6.8-7.8,9.7-12.1c2-2.9,3.8-6.1,4.6-9.6c0.8-3.2,0.7-6.5,0.2-9.8
						c-0.3-2-0.8-4-1.3-6c-0.1-0.5-0.9-0.3-0.7,0.2c1,3.7,1.8,7.6,1.7,11.5c-0.1,3.5-1.2,6.8-2.9,9.8c-2.3,4.2-5.4,7.9-8.5,11.5
						c-3.6,4.3-7.2,8.6-10.7,12.9c-11.1,13.7-21.6,28-30.1,43.5c-6.4,11.6-11.5,24-14.5,37c-2.8,12.2-3.8,24.7-3.9,37.2
						c-0.2,15.2,0.6,30.3,1.2,45.5c0.1,2.1,0.2,4.3,0.2,6.4C186.4,417.9,187.1,417.9,187.1,417.4L187.1,417.4z"/>
				</g>
			</g>
		</g>
		<g>
			<polygon class="st10" points="271.2,431.7 271.9,447.4 263.5,449.5 262.2,443.8 257.6,450.9 210.7,456.3 237.1,443.4 
				237.1,430.1 			"/>
			<path class="st3" d="M212.6,180.8c0,0,27.1-34.3,48.9-13.5c32.3,30.7,1.8,81.1,4.6,142.4c1.3,28.9,6.8,122.3,6.8,122.3
				c-6.5,5.2-29.6,4.3-37.3,1.7c0,0-16.8-82.2-24.2-130.1c-6.2-39.8,2.9-89.4,2.9-89.4L212.6,180.8z"/>
			<g>
				<g>
					<path class="st10" d="M255,418.8c-3.1-19.9-6.8-39.6-10.7-59.4c-2.6-13.5-5.3-26.9-6.9-40.6c-1.5-13-1.7-26.1-0.8-39.1
						c1.3-18.8,4.2-37.4,7.5-55.9c0.9-5.2,2.2-10.5,2.1-15.8c-0.1-4.1-0.8-8.1-2.2-11.9c-1.6-4.5-4.2-8.9-7.6-12.3
						c-0.2-0.2-0.4-0.4-0.6-0.5c-0.4-0.3-0.9,0.2-0.5,0.5c2.7,2.3,4.7,5.5,6.3,8.6c1.7,3.3,2.8,6.9,3.4,10.6
						c0.8,5.2,0.2,10.2-0.7,15.3c-3.5,18.9-6.6,38-8.2,57.2c-1.1,13.3-1.2,26.6,0.1,39.8c1.3,13.1,3.8,26.1,6.3,39.1
						c3.6,18.5,7.2,37,10.2,55.6c0.5,3,1,6,1.5,9C254.3,419.5,255.1,419.3,255,418.8L255,418.8z"/>
				</g>
			</g>
			<g>
				<g>
					<path class="st10" d="M245.3,201.7c-6.2,1.8-13.1,2.9-19.1,0c-1.5-0.7-2.9-1.7-4-2.9c-0.4-0.4-0.9,0.2-0.5,0.5
						c2.1,2.2,4.9,3.6,7.9,4.3c3.3,0.8,6.7,0.7,10,0.2c2-0.3,4-0.8,6-1.4C246,202.3,245.8,201.6,245.3,201.7L245.3,201.7z"/>
				</g>
			</g>
			<g>
				<g>
					<path class="st10" d="M244,196.3c-5.3,1.2-11.1,2.2-16.1-0.5c-1.2-0.7-2.3-1.5-3.2-2.6c-0.3-0.4-0.9,0.2-0.5,0.5
						c1.6,1.9,3.9,3.2,6.3,3.9c2.8,0.8,5.7,0.7,8.5,0.3c1.8-0.2,3.5-0.6,5.3-1C244.7,196.9,244.5,196.1,244,196.3L244,196.3z"/>
				</g>
			</g>
			<g>
				<g>
					<path class="st10" d="M263.6,186.6c2.9-0.9,5.8-1.9,8.7-2.8c0.5-0.2,0.3-0.9-0.2-0.7c-2.9,0.9-5.8,1.9-8.7,2.8
						C262.9,186.1,263.1,186.8,263.6,186.6L263.6,186.6z"/>
				</g>
			</g>
			<g>
				<g>
					<path class="st10" d="M270.2,189.3c1.2-0.4,2.5-0.7,3.7-1.1c0.5-0.1,0.3-0.9-0.2-0.7c-1.2,0.4-2.5,0.7-3.7,1.1
						C269.5,188.7,269.7,189.4,270.2,189.3L270.2,189.3z"/>
				</g>
			</g>
		</g>
		<path class="st2" d="M264.9,170.8c0,0-24.5,15.6-53.3,9.1L163.2,102c0,0-24.4-16.8-3.5-21.2C203.9,71.6,261.7,125.1,264.9,170.8z"
			/>
		<g>
			<path class="st6" d="M167.1,113.3c0.2,1,0.3,2,0.5,3c0.8,5.4,1.4,10.6,1.9,15.5c0.3,2.7,0.5,5.2,0.7,7.7c0.1,0.6,0.1,1.3,0.2,1.9
				c0.2,2.4,0.3,4.8,0.4,7.1c0,1,0.1,1.9,0.1,2.8c0.2,6.9,0.1,13-0.4,18.4c0,0.1,0,0.2,0,0.2c-0.2,2.4-0.4,4.7-0.7,6.9
				c-4.5,32.5-20.5,37.6-31.1,43.2c-12.2,6.4-27.2,9.6-32.9,10.7c-0.6,0.3-1.2,0.5-1.9,0.7c-2.9,0.7-5.7,0-6.3-1.7
				c-0.3-1,0.2-2,1.2-2.8c-1.7-0.2-2.9-1-3.3-2.1c-0.3-1,0.2-2.2,1.3-3.1l0,0c0,0,0.1-0.1,0.1-0.1c-1.8-0.2-3.3-1-3.7-2.1
				c-0.5-1.7,1-3.1,3.7-4l0-0.1c-0.3,0.1-0.6,0.2-0.9,0.3c-5.4,1.8-10.2,1.9-10.8,0.2c-0.6-1.7,0.9-3,13.3-7.5
				c14.5-4.7,34.5-11.5,40.9-29.9c0.1-0.4,0.2-0.7,0.4-1.1c0.9-2.9,1.5-6,1.9-9.3c0.5-4.6,0.6-9.4,0.4-14.2
				c-0.1-3.1-0.4-6.1-0.7-9.1c-0.4-3.5-0.9-6.9-1.4-10c-0.4-2.6-0.9-5-1.3-7.1c-0.2-0.9-0.4-1.7-0.6-2.5c-0.3-1.5-0.6-2.7-0.9-3.6
				c-0.3-1.2-0.5-1.9-0.6-2.1l0.3-0.1L167.1,113.3z"/>
			<path class="st2" d="M165.7,110.6c0.5,0.8,0.9,1.7,1.3,2.7c1.7,7,5.8,35,5.8,35l-2.2,0.4l-14.6,2.6l-0.5,0.1l-14.3,2.6
				c-0.2-6-1.3-14.1-2.2-19.8c-0.1-0.7-0.2-1.3-0.3-1.9c-0.4-2.4-0.7-4.1-0.8-4.7c0-0.2-0.1-0.3-0.1-0.3l-1.3-7.9l-0.8-4.7
				c-0.1-0.6-0.1-1.3,0-1.9C136.9,102.7,157.4,96,165.7,110.6z"/>
			<g>
				<g>
					<path class="st10" d="M170.4,139.1c-3.8,0.9-7.7,1.6-11.5,2.3c-3.9,0.7-7.8,1.3-11.7,2c-2.2,0.4-4.3,0.7-6.5,1.2
						c-0.4,0.1-0.2,0.7,0.2,0.6c3.9-0.7,7.7-1.4,11.6-2c3.9-0.6,7.8-1.3,11.7-2c2.2-0.4,4.3-0.9,6.5-1.4
						C171,139.6,170.8,139,170.4,139.1L170.4,139.1z"/>
				</g>
			</g>
			<path d="M167.1,113.3c0.2,1,0.3,2,0.5,3c0.8,5.4,1.4,10.6,1.9,15.5c0.3,2.7,0.5,5.2,0.7,7.7c0.1,0.6,0.1,1.3,0.2,1.9
				c0.2,2.4,0.3,4.8,0.4,7.1c0,0,0,0.1,0,0.2c0,0.9,0.1,1.8,0.1,2.6c0.2,6.9,0.1,13-0.4,18.4c0,0.1,0,0.2,0,0.2
				c-3.4-5.9-8.6-11.7-14.1-17.9c-0.2-0.2-0.4-0.5-0.7-0.7c-3.9-4.3-11.3-11.8-16.8-19.2c-0.4-2.4-0.7-4.1-0.8-4.7
				c0-0.2-0.1-0.3-0.1-0.3l-1.3-7.9L167.1,113.3z"/>
			<g>
				<g>
					<path d="M96.1,222.2c2.5-0.4,4.9-1.1,7.3-2c0.3-0.1,0.2-0.7-0.2-0.6c-2.4,0.9-4.8,1.6-7.3,2C95.6,221.7,95.8,222.2,96.1,222.2
						L96.1,222.2z"/>
				</g>
			</g>
			<g>
				<g>
					<path d="M98.5,227.7c2.4-0.3,4.8-1.1,7-2.1c0.3-0.2,0-0.7-0.3-0.5c-2.2,1-4.5,1.7-6.9,2.1C98,227.2,98.2,227.8,98.5,227.7
						L98.5,227.7z"/>
				</g>
			</g>
			<g>
				<g>
					<path d="M104.9,225.9c1.2-0.5,2.7-0.5,3.5,0.6c0.6,0.9,0.5,2.4-0.4,3.1c-0.1,0.1-0.2,0.2-0.1,0.4c0.1,0.1,0.3,0.2,0.4,0.1
						c0.9-0.7,1.2-1.9,1-2.9c-0.3-1.1-1.2-1.9-2.3-2.1c-0.7-0.1-1.5,0-2.2,0.3C104.4,225.5,104.5,226,104.9,225.9L104.9,225.9z"/>
				</g>
			</g>
			<g>
				<g>
					<path d="M103.1,220.3c1.3-0.4,2.6,0.5,3,1.7c0.4,1.1,0.3,2.4-0.8,3.1c-0.3,0.2,0,0.7,0.3,0.5c1-0.7,1.4-1.8,1.3-2.9
						c-0.2-1.1-0.7-2.2-1.8-2.7c-0.7-0.3-1.4-0.4-2.1-0.2C102.6,219.8,102.7,220.4,103.1,220.3L103.1,220.3z"/>
				</g>
			</g>
			<g>
				<g>
					<path d="M105.1,210.1c-0.8,1.3-1.5,2.8-2,4.2c-0.3,0.7-0.5,1.5-0.7,2.3c-0.2,0.7-0.3,1.5,0,2.2c0.4,1,1.5,1.5,2.5,1.5
						c1.3,0,2.3-0.9,3.1-1.8c0.5-0.6,0.9-1.3,1.4-2c0.5-0.8,1.1-1.7,1.6-2.5c0.2-0.3-0.3-0.6-0.5-0.3c-0.8,1.2-1.6,2.5-2.4,3.7
						c-0.6,0.9-1.5,2-2.6,2.3c-0.9,0.2-2-0.1-2.5-0.9c-0.3-0.6-0.2-1.3-0.1-2c0.2-0.7,0.4-1.3,0.6-2c0.5-1.5,1.2-2.9,2.1-4.3
						C105.8,210.1,105.3,209.8,105.1,210.1L105.1,210.1z"/>
				</g>
			</g>
			<g>
				<g>
					<path d="M95.9,216.3c1.3-0.4,2.7-0.7,4-0.9c0.6-0.1,1.1-0.1,1.7-0.1c0.4,0,0.8,0,1.1,0.2c0.3,0.2,0.6-0.3,0.3-0.5
						c-0.9-0.5-2-0.3-3-0.2c-1.5,0.2-2.9,0.6-4.3,0.9C95.4,215.8,95.5,216.4,95.9,216.3L95.9,216.3z"/>
				</g>
			</g>
			<g>
				<g>
					<path d="M109,216.8c1,1.1,2.5,1.7,4,1.5c0.2,0,0.3-0.1,0.3-0.3c0-0.1-0.1-0.3-0.3-0.3c-1.4,0.2-2.7-0.4-3.6-1.4
						C109.2,216.1,108.8,216.5,109,216.8L109,216.8z"/>
				</g>
			</g>
		</g>
		<g>
			<path class="st6" d="M129.5,82.6c-2.1-24.9-48.9-9.6-34.7,16.5c0,0,1.7,3.4,4.5,7.6l0.3,1.2l2.6,10.8l4.6-2.6
				c7,6.9,15.5,9.8,21.4-7.1l28.1,3.2l14.2-29.4L129.5,82.6z"/>
			<path class="st11" d="M118.7,100c-3-1.8-6.9-0.8-8.8,2.3c-1.9,3.1-1.1,7,1.9,8.8c3,1.8,6.9,0.8,8.8-2.3
				C122.5,105.7,121.6,101.8,118.7,100z"/>
			<polyline class="st12" points="99.6,107.9 102.2,118.7 106.9,116.1 			"/>
			<path d="M107.5,107.5c0.6,0.4,0.9,1,0.7,1.3c-0.2,0.3-0.8,0.1-1.4-0.3c-0.6-0.4-0.9-1-0.7-1.3
				C106.3,106.9,106.9,107.1,107.5,107.5z"/>
			<path d="M103.3,103.5c0.4,0.3,0.2,1.1-0.4,1.8c-0.6,0.7-1.4,0.9-1.8,0.6c-0.4-0.3-0.2-1.1,0.4-1.8
				C102.1,103.5,102.9,103.2,103.3,103.5z"/>
			<path d="M116.1,113.2c0.7,0.5,0.7,2.3,0.1,3.3c-0.6,1-1.8,1-2.5,0.5c-0.7-0.5-0.6-1.3,0.1-2.3
				C114.3,113.7,115.4,112.7,116.1,113.2z"/>
		</g>
		<g>
			<g>
				<path class="st3" d="M128.7,155.3l0,0.3c-0.2,1.2-1.3,2-2.5,1.8l-29.3-4.8c-1.2-0.2-2-1.3-1.8-2.5l0-0.3c0.2-1.2,1.3-2,2.5-1.8
					l29.3,4.8C128.1,153,128.9,154.2,128.7,155.3z"/>
				<path class="st3" d="M66.5,144.1l0.1,6c0,0,0.8,7.5,10.9,9.7c11,2.4,16.4-4.4,16.4-4.4l2-5.9L66.5,144.1z"/>
				<g>
					<path class="st10" d="M82.6,156.3c-1,0-2-0.1-2.9-0.2c-7.8-1.3-13.3-7.3-12.3-13.5c0.9-5.3,6.3-9.1,13-9.1c1,0,2,0.1,2.9,0.2
						c7.8,1.3,13.3,7.3,12.3,13.5C94.8,152.5,89.3,156.3,82.6,156.3z"/>
					<path class="st3" d="M80.4,134.3L80.4,134.3c0.9,0,1.9,0.1,2.8,0.2c7.4,1.2,12.6,6.9,11.7,12.6c-0.8,4.9-6,8.4-12.3,8.4
						c-0.9,0-1.9-0.1-2.8-0.2c-7.4-1.2-12.6-6.9-11.7-12.6C68.9,137.8,74.1,134.3,80.4,134.3 M80.4,132.7c-7,0-12.8,4-13.8,9.7
						c-1.1,6.6,4.7,13,12.9,14.4c1,0.2,2.1,0.3,3.1,0.3c7,0,12.8-4,13.8-9.7c1.1-6.6-4.7-13-12.9-14.4
						C82.4,132.8,81.4,132.7,80.4,132.7L80.4,132.7z"/>
				</g>
			</g>
			<path d="M182.8,117.4c0,0,41.9,24.9,38.2,63.5c-3.7,38.6-38.2,44.1-46.6,42.5L182.8,117.4z"/>
			<path class="st6" d="M147.8,89.9c0,0-15.8,8.4-11.9,28.4c3.9,20,51.1,53.1,39.6,66.2c-11,12.6-31.1-15.1-46-23.8
				c-4.4-2.2-2.1-2.1-7-3.7c0-0.3-5.5-1.5-5.7-0.2c-5-2.2-9.4-2.1-12-3.6c-1.4-0.9-3.9-5.4-6.3,3.3c-2,7.1-1,16.1,11.4,19.7
				c0.7,0.2,4,1.4,4.6,1.6c4.4,4.3,11,15.3,23.6,28.2c16.7,17.1,37.7,22.7,55.4,12.1c17.7-10.6,36.7-49.3-2.9-92.1
				C151.1,83,147.8,89.9,147.8,89.9z"/>
			<path class="st6" d="M118,165.8l-0.3-0.1c-1.4-0.2-2.4-1.6-2.2-3.1l1.9-11.4c0.2-1.4,1.6-2.4,3.1-2.2l0.3,0.1
				c1.4,0.2,2.4,1.6,2.2,3.1l-1.9,11.4C120.9,165.1,119.5,166.1,118,165.8z"/>
			<path class="st6" d="M113.3,164.8l-0.3-0.1c-1.4-0.2-2.4-1.6-2.2-3.1l1.9-11.4c0.2-1.4,1.6-2.4,3.1-2.2l0.3,0.1
				c1.4,0.2,2.4,1.6,2.2,3.1l-1.9,11.4C116.1,164,114.7,165,113.3,164.8z"/>
			<path class="st6" d="M108.7,164l-0.3-0.1c-1.4-0.2-2.4-1.6-2.2-3.1l1.9-11.4c0.2-1.4,1.6-2.4,3.1-2.2l0.3,0.1
				c1.4,0.2,2.4,1.6,2.2,3.1l-1.9,11.4C111.5,163.3,110.1,164.2,108.7,164z"/>
			<path class="st6" d="M104.1,163.3l-0.3-0.1c-1.4-0.2-2.4-1.6-2.2-3.1l1.7-10.5c0.2-1.4,1.6-2.4,3.1-2.2l0.3,0.1
				c1.4,0.2,2.4,1.6,2.2,3.1l-1.7,10.5C106.9,162.5,105.5,163.5,104.1,163.3z"/>
			<path class="st11" d="M193.2,206.6c-4.5,4.1-5.9,10-3.2,13.1c0,0,0.1,0.1,0.1,0.1c1.1-0.5,2.3-1.1,3.4-1.8
				c4.5-2.7,9.1-7.3,12.8-13.2c0,0,0,0,0-0.1C203.6,201.6,197.7,202.5,193.2,206.6z"/>
			<path class="st2" d="M155.8,92.7l-14.5,2.7c-3.8,4.5-7.5,12-5.4,22.9c2.8,14.5,28.4,35.9,37.9,51.5c3.2,0.4,16.5-1.2,36.2-14.3
				c-3.1-8.1-9.2-18.6-19.4-29.6C172.4,106.1,161.9,96.9,155.8,92.7z"/>
			<g>
				<g>
					<path class="st10" d="M169.2,163.1c5-1.1,10-2.5,14.8-4.4c4.8-1.9,9.5-4.1,14-6.7c2.5-1.5,5-3.1,7.3-4.7c0.4-0.3,0-0.9-0.4-0.6
						c-4.2,3-8.6,5.7-13.3,7.9c-4.6,2.3-9.4,4.2-14.3,5.7c-2.8,0.8-5.5,1.6-8.4,2.1C168.5,162.5,168.7,163.2,169.2,163.1
						L169.2,163.1z"/>
				</g>
			</g>
		</g>
		<g>
			<path d="M123.8,93c2.1,0.8,1.1,4.5-1.1,5.1c-2.2,0.7-4.4-0.6-6.1-2c-1.7-1.4-3.6-3-5.8-3c-2.1,0-4,1.3-5.7,2.5
				c-3.3,2.4-6.6,5-10.5,5.8c-4.5,0.8-9.3-1.2-11.8-4.9c-2.5-3.7-2.9-8.9-0.9-13.1c1.4-3.1,3.9-5.7,4.9-9c1.4-4.7,0.2-8.3,2.6-12.5
				c2.4-4.2,7.2-9.4,11.6-8c2.3,0.7,5.5,0.3,8,0c4.2-0.4,6.2-3.4,9.3-6.5c4.7-4.8,11.8-3.9,17.9-1.8c4.7,1.6,9,5.4,14,4.3
				c2.5-0.5,4.6-2.2,7-3.4c2.7-1.3,5.7-1.9,8.5-1.3c2.8,0.6,5.3,2.6,6.2,5.4c0.7,2.1,0.4,4.6,1.6,6.4c0.8,1.3,2.2,2.2,3.7,2.9
				c3,1.5,6.3,2.7,9.2,4.5c2.9,1.8,5.5,4.3,6.5,7.6c1,3.3,0,7.4-3,9.3c-1.4,0.9-3,1.2-4.4,2.1c-2.8,1.8-3.9,5.5-4.3,8.8
				c-0.4,3.3-0.5,6.9-2.2,9.8c-1.8,3-5.1,4.8-8.4,6.1c-3.4,1.3-7.3,2.3-10.4,0.6c-2.5-1.3-3.9-4.1-5.5-6.4c-1.6-2.3-4.2-4.6-7-4
				c-2.1,0.4-3.8,2.1-5.7,3.2c-3.5,1.9-8.2,1-10.6-2c-1-1.2-1.6-2.6-2.7-3.7c-1.1-1.1-2.9-1.6-4.2-0.7"/>
		</g>
		<path class="st6" d="M125.4,89.6c-2.1-2.2-5.6-2.2-7.9,0c-2.3,2.2-2.4,5.8-0.4,8c2.1,2.2,5.6,2.2,7.9,0
			C127.3,95.4,127.5,91.8,125.4,89.6z"/>
		<g>
			<g>
				<path d="M120.5,90.7c-1.7,1.1-2.2,3.7-0.9,5.3c0.1,0.2,0.4,0.1,0.5,0c0.2-0.2,0.1-0.4,0-0.5c-1-1.2-0.5-3.3,0.7-4.1
					C121.2,91.1,120.9,90.4,120.5,90.7L120.5,90.7z"/>
			</g>
		</g>
	</g>
	<g>
		<path class="st2" d="M465,333.5l-5.3,106.2c0,0,34.9-3.8,38.1,7.5h-82.9c0,0,6.1-7.5,36.1-7.5l-7-106.2H465z"/>
		<polygon class="st13" points="462.2,356.3 447.6,380.8 444.9,351.1 		"/>
		<g>
			<path class="st6" d="M401.4,258.1c37-40.8,30.2-82,61.8-96c24.4-10.8,57.7-3.9,71.2,46.8c18.7,69.8,5.8,135.9-73.1,147.5
				c-34.8,5.1-67.4-8.3-76.9-26.3C374.9,312.2,369.2,293.5,401.4,258.1z"/>
		</g>
	</g>
</g>
</svg>
