<?xml version="1.0" encoding="utf-8"?>
<!-- Generator: Adobe Illustrator 23.1.0, SVG Export Plug-In . SVG Version: 6.00 Build 0)  -->
<svg version="1.1" id="upgrade-illu" xmlns="http://www.w3.org/2000/svg" xmlns:xlink="http://www.w3.org/1999/xlink" x="0px"
	 y="0px" viewBox="0 0 610 515" style="enable-background:new 0 0 610 515;" xml:space="preserve">
<style type="text/css">
	.st0{opacity:0.7;fill:url(#SVGID_1_);enable-background:new    ;}
	.st1{opacity:0.3;fill:#888799;enable-background:new    ;}
	.st2{fill:#2BDEB4;}
	.st3{fill:#31A6E0;}
	.st4{fill:none;stroke:#304D52;stroke-width:2.2513;stroke-miterlimit:10;}
	.st5{fill:none;stroke:#000000;stroke-width:3.0018;stroke-miterlimit:10;}
	.st6{fill:none;stroke:#0BD9A9;stroke-width:3.0018;stroke-miterlimit:10;}
	.st7{fill:#304D52;}
	.st8{fill:none;stroke:#304D52;stroke-width:3.7522;stroke-miterlimit:10;}
	.st9{fill:none;stroke:#FADF50;stroke-width:7.5044;stroke-miterlimit:10;}
	.st10{fill:#FADF50;}
	.st11{fill:none;stroke:#FADF50;stroke-width:2.2513;stroke-miterlimit:10;}
	.st12{fill:#C8CACC;}
	.st13{fill:#DBDBDB;}
	.st14{fill:#EEEFF2;}
	.st15{fill:#898989;}
	.st16{fill:none;stroke:#898989;stroke-width:4.5569;stroke-linecap:round;stroke-linejoin:round;stroke-miterlimit:10;}
	.st17{fill:none;stroke:#A9A9AA;stroke-width:2.119;stroke-linecap:round;stroke-linejoin:round;stroke-miterlimit:10;}
	.st18{display:none;}
	.st19{display:inline;fill:#2BDEB4;}
	.st20{display:inline;opacity:0.1;enable-background:new    ;}
	.st21{opacity:0.2;enable-background:new    ;}
	.st22{fill:none;stroke:#000000;stroke-width:0.8943;stroke-miterlimit:10;}
	.st23{opacity:0.1;enable-background:new    ;}
	.st24{display:inline;fill:none;stroke:#000000;stroke-width:0.8599;stroke-miterlimit:10;}
	.st25{opacity:0.1;fill:#0D0C26;}
	.st26{fill:none;stroke:#000000;stroke-width:0.7441;stroke-miterlimit:10;}
	.st27{fill:#FFFFFF;}
	.st28{fill:none;stroke:#EEEFF2;stroke-width:1.1351;stroke-miterlimit:10;}
</style>
<g id="actus">
	
		<linearGradient id="SVGID_1_" gradientUnits="userSpaceOnUse" x1="310.5733" y1="-100.7933" x2="310.5733" y2="239.7337" gradientTransform="matrix(0.9738 -0.2276 0.2276 0.9738 -20.6207 249.0745)">
		<stop  offset="0" style="stop-color:#89D8F6"/>
		<stop  offset="1" style="stop-color:#9AFFD3"/>
	</linearGradient>
	<path class="st0" d="M442.3,43.5c59.9,0,119.2,53.6,136.7,103.8c28.5,81.5,28.1,188.2-55.8,217.5s-99.2-9.8-174.2-2.9
		c-99.7,9.2-130.5,104.4-236.2,93.7c-52.6-5.3-89.9-45.1-92.6-92.3c-4.8-85.6,91.9-144.5,110.2-152.8
		c68.8-30.9,113.1-25.9,147.8-52.4C311.6,132.6,314.2,43.5,442.3,43.5z"/>
	<g id="circles" transform="translate(0 15.165)">
		<path id="cir-1" class="st1" d="M524,435.6c0-10-97.4-13.8-217.5-13.8c-120.1,0-217.5,3.8-217.5,13.8c0,10,97.4,20.7,217.5,20.7
			C426.6,456.3,524,445.6,524,435.6z"/>
		<path id="cir-2" class="st2" d="M560,296.5L560,296.5c3.8,8.3,13.6,12,21.8,8.2c8.3-3.8,12-13.6,8.2-21.9
			c-3.8-8.3-13.6-12-21.8-8.2C559.9,278.4,556.2,288.2,560,296.5z"/>
		<path id="cir-3" class="st3" d="M357.3,77L357.3,77c5.8,0.9,11.1-3,12.1-8.7c0.9-5.8-3-11.1-8.7-12.1c-5.8-0.9-11.1,3-12.1,8.7
			C347.7,70.6,351.7,76.1,357.3,77z"/>
		<path id="cir-4" class="st4" d="M67.9,107.5c3.9,8.6,13.9,12.5,22.6,8.8c8.8-3.8,12.8-13.9,9.1-22.7c-3.8-8.8-13.9-12.8-22.7-9.1
			C68.1,88.5,64.2,98.8,67.9,107.5z"/>
		<path id="cir-5" class="st3" d="M388,265.8L388,265.8c1.3,3,4.9,4.4,7.9,3c3-1.3,4.4-4.9,3-7.9c-1.3-3-4.9-4.4-7.9-3
			C388,259.2,386.6,262.8,388,265.8z"/>
		<path id="cir-6" class="st5" d="M588.7,203.6L588.7,203.6c1,4.5,5.4,7.2,9.9,6.2s7.2-5.4,6.2-9.9c-1-4.5-5.5-7.2-9.9-6.2
			C590.4,194.7,587.7,199.1,588.7,203.6z"/>
		<path id="cir-7" class="st6" d="M335.1,313.3L335.1,313.3c0.6,6.1,6.2,10.6,12.4,10c6.1-0.6,10.6-6.2,10-12.4
			c-0.6-6.1-6.2-10.6-12.4-10C338.9,301.6,334.4,307.1,335.1,313.3z"/>
		<path id="cir-8" class="st7" d="M370.3,396.6L370.3,396.6c0.2,2.5,2.4,4.3,4.9,4c2.5-0.2,4.3-2.4,4-4.9c-0.2-2.5-2.4-4.3-4.9-4
			C371.8,391.8,370,394.1,370.3,396.6z"/>
		<path id="cir-9" class="st8" d="M31.1,253.7L31.1,253.7c2.5,9.2,12,14.6,21.2,12c9.2-2.5,14.6-12,12-21.2
			c-2.5-9.2-12-14.6-21.2-12C34,234.9,28.6,244.5,31.1,253.7z"/>
		<path id="cir-10" class="st9" d="M10.9,198.2L10.9,198.2c4.7,1.7,9.9-0.6,11.6-5.3c1.7-4.7-0.6-9.9-5.3-11.6
			c-4.7-1.7-9.9,0.6-11.6,5.3C3.9,191.2,6.2,196.4,10.9,198.2z"/>
		<path id="cir-11" class="st2" d="M85.6,372c-2.5-2.7-6.8-2.7-9.5-0.2c-2.7,2.6-2.8,6.9-0.2,9.6c2.6,2.7,6.8,2.8,9.5,0.2
			C88.1,379,88.2,374.7,85.6,372L85.6,372z"/>
		<path id="cir-12" class="st10" d="M499.5,120.5L499.5,120.5c2.8,0.8,5.7-1,6.3-3.8c0.8-2.8-1-5.6-3.8-6.3c-2.8-0.8-5.7,1-6.3,3.8
			C495,117.1,496.7,119.9,499.5,120.5z"/>
		<path id="cir-13" class="st11" d="M513.2,378.8L513.2,378.8c4,0.9,8.1-1.5,9.1-5.5c0.9-4-1.5-8.2-5.5-9.1c-4-0.9-8.1,1.5-9.1,5.5
			C506.7,373.7,509.2,377.9,513.2,378.8z"/>
	</g>
	<g>
		<path class="st12" d="M363.5,445.2H128.1c-25.3-167.9-25-289.9,0-367.2h235.4C337.3,159.8,341.1,288.1,363.5,445.2z"/>
		<path class="st13" d="M353.4,435.1H118c-25.3-167.9-25-289.9,0-367.2h235.4C327.2,149.6,331,277.9,353.4,435.1z"/>
		<path class="st14" d="M343.3,425H107.9c-25.3-167.9-25-289.9,0-367.2h235.4C317.1,139.5,320.9,267.8,343.3,425z"/>
		<path class="st12" d="M178.3,149.4H107c-6.5,64.6-2.1,149,13.7,253.8h71C177.5,303.4,171.8,216.9,178.3,149.4z"/>
		<g>
			<g>
				<path class="st15" d="M129.1,92.9c-0.8-1.4-1.7-3.1-2.7-5c0,0,0,0-0.1,0c-1.7,8.1-2.4,12.3-3.8,21.1c-0.4,2.6-0.8,4.8-1.2,6.4
					c1.5-0.1,3.2-0.2,5.1-0.2c-0.3,2.2-0.5,3.3-0.8,5.6c-6.2,0-9.3,0-15.5,0c0.3-1.9,0.4-2.9,0.7-4.8c1.2,0,2.2-0.2,2.9-0.5
					c0.7-0.3,1.3-0.8,1.7-1.7c0.5-0.9,0.9-2.2,1.2-4.1c1.7-10.8,2.6-16,4.8-25.9c0.7-2.9,1.2-4.8,1.6-5.7c-2.1,0.1-3.1,0.1-5.2,0.2
					c0.5-1.9,0.7-2.9,1.2-4.8c4.3,0,6.4,0,10.6,0c5.1,8.4,10.1,16.7,15.2,25.1c1.4,2.5,2.7,4.7,3.6,6.5c0,0,0,0,0.1,0
					c1.5-8.8,2.3-13.1,4.1-21.3c0.6-2.8,1.2-4.7,1.6-5.7c-2.1,0.1-3.1,0.1-5.1,0.2c0.5-1.9,0.7-2.9,1.2-4.8c6.2,0,9.3,0,15.5,0
					c-0.4,1.6-0.6,2.5-1,4.1c-1.2,0-2.2,0.2-2.9,0.4c-0.7,0.2-1.3,0.7-1.9,1.5c-0.5,0.8-1,2-1.4,3.6c-2.9,12.7-5,25.5-6.7,38.3
					c-2.3,0-3.5,0-5.8,0C140.4,112,134.7,102.4,129.1,92.9z"/>
				<path class="st15" d="M163.3,116c1.2,0,2.2-0.2,2.9-0.5c0.7-0.3,1.3-0.8,1.7-1.7c0.5-0.9,0.9-2.2,1.1-4.1
					c1.7-10.8,2.6-16,4.8-25.9c0.5-2.4,1.1-4.3,1.6-5.7c-2.1,0.1-3.1,0.1-5.1,0.2c0.5-1.9,0.7-2.9,1.2-4.8c11.3,0,22.6,0,33.9,0
					c-1.1,4.8-1.6,7.3-2.5,12.3c-1.8,0-2.7,0-4.5,0c0.7-3.2,0.4-5.4-0.9-6.6c-1.3-1.2-3.1-1.8-5.4-1.7c-1,0-1.5,0-2.5,0.1
					c-1.1,0-2,0.2-2.7,0.4c-0.7,0.2-1.3,0.7-1.8,1.5c-0.5,0.8-1,2-1.3,3.6c-0.9,3.9-1.3,5.8-2.1,9.8c3.2,0,4.8,0,7.9,0
					c0.1-0.8,0.4-2.7,0.9-5.7c2.1,0,3.1,0,5.2,0c-1.3,6.4-1.9,9.6-3.1,16.4c-1.8,0-2.7,0-4.5,0c0.3-1.8,0.3-3.2-0.2-4.1
					c-0.4-0.9-1-1.4-1.9-1.7c-0.9-0.2-2-0.4-3.5-0.3c-0.7,0-1.1,0-1.8,0.1c-0.8,4.5-1.2,6.7-1.9,11.3c-0.4,2.5-0.8,4.6-1.2,6.3
					c3.6,0,5.5,0,9.1,0c2.3,0,4.4-0.8,6.2-2.5c1.8-1.6,3-4.2,3.6-7.7c1.8,0,2.7,0,4.4,0c-1.1,6.1-1.6,9.3-2.6,15.7
					c-12,0-23.9,0-35.9,0C162.9,118.9,163,117.9,163.3,116z"/>
				<path class="st15" d="M213.9,84.1c-0.7-2.9-0.9-4.9-0.6-5.9c-1.5,0.1-2.2,0.1-3.6,0.2c0.5-1.9,0.7-2.9,1.2-4.8c8,0,12,0,20,0
					c-0.4,1.6-0.6,2.5-1,4.1c-1.4,0-2.6,0.1-3.4,0.5c-0.8,0.4-1.4,1.1-1.6,2.1c-0.1,0.6-0.2,1.3-0.1,2.1c0.3,5.9,0.5,8.9,1.1,15.1
					c0,0.4,0.1,1.4,0.3,3.2c0.2,1.8,0.3,4,0.4,6.6c0,0,0,0,0.1,0c2.4-5.7,3.7-8.5,6.3-14c4.1-8.2,6.2-12.1,10.7-19.7
					c2.4,0,3.7,0,6.1,0c0.7,9.1,1.3,13.9,2.6,23.9c0.3,2.1,0.5,5.4,0.8,9.9c0,0,0,0,0.1,0c1.6-3.9,2.4-5.8,4.1-9.5
					c2.5-5.7,3.8-8.4,6.5-13.9c1.3-2.7,2.7-4.6,4.1-5.8c0,0,0,0,0-0.1c-1.4,0.1-2.1,0.1-3.6,0.2c-0.7,0-1,0-1.7,0.1
					c0.5-2,0.7-2.9,1.2-4.8c6.1,0,9.1,0,15.2,0c-0.4,1.6-0.6,2.5-1,4.1c-1.6,0.1-3.1,0.6-4.5,1.7c-1.4,1-2.8,2.7-4.2,5.2
					c-6.3,11.9-11.9,24.2-17.1,36.7c-2.4,0-3.6,0-6.1,0c-1.9-10.4-2.7-15.5-4.2-25.1c-0.3-2.1-0.6-4.9-0.6-8.2c0-0.4,0-0.9,0-1.6
					c0,0,0,0-0.1,0c-1,2.8-2.3,5.7-3.7,8.7c-4.2,8.6-8.2,17.4-11.8,26.3c-2.4,0-3.6,0-5.9,0C217.5,108.9,215.5,96.5,213.9,84.1z"/>
				<path class="st15" d="M284.5,121c-2-0.6-3.9-1.5-5.5-2.6c0,0,0,0-0.1,0c-0.1,1.2-0.1,1.8-0.2,3c-2.1,0-3.1,0-5.2,0
					c0.9-6.8,1.3-10.2,2.3-16.7c1.8,0,2.7,0,4.5,0c0,3.8,1,6.8,3,8.8c2,2.1,4.6,3.1,7.9,3.1c2.4,0,4.4-0.7,6.1-2
					c1.7-1.3,2.7-2.9,3-4.7c0.2-1.5-0.1-2.8-1-3.9c-0.9-1.1-1.9-1.9-3-2.5c-1.2-0.6-3-1.5-5.5-2.6c-4.7-2-8.1-4.3-10.3-6.8
					c-2.2-2.5-2.9-5.8-2.1-9.7c0.4-2,1.4-3.9,2.8-5.7c1.5-1.8,3.6-3.4,6.2-4.6c2.7-1.2,5.9-1.8,9.6-1.8c1.9,0,3.9,0.3,5.9,0.8
					c2,0.5,3.6,1.3,4.7,2.2c0,0,0,0,0.1,0c0.1-1,0.2-1.5,0.4-2.6c2.1,0,3.2,0,5.3,0c-1.5,5.8-2.2,8.8-3.4,14.9c-1.8,0-2.7,0-4.5,0
					c0.1-3.6-0.6-6.3-2.2-8.1c-1.6-1.8-3.9-2.7-7.1-2.7c-2,0-3.9,0.5-5.6,1.5c-1.7,1-2.7,2.3-3.1,3.9c-0.4,1.9,0.1,3.5,1.5,4.8
					c1.4,1.3,4,2.8,7.6,4.4c4.2,1.8,7.6,3.8,10.1,6.2c2.5,2.4,3.4,5.6,2.8,9.6c-0.4,2.8-1.5,5.2-3.2,7.4c-1.7,2.2-4,3.9-6.8,5.1
					c-2.8,1.2-5.9,1.9-9.4,1.9C288.4,122,286.5,121.6,284.5,121z"/>
			</g>
		</g>
		<line class="st16" x1="109.7" y1="136.6" x2="303.9" y2="136.6"/>
		<g>
			<path class="st17" d="M191,151.1c36.2,0,72.5,0,108.7,0 M190.1,158.3c36.2,0.1,72.5,0.2,108.7,0.3 M189.4,165.6
				c36.2,0.2,72.5,0.4,108.7,0.7 M188.7,173.1c36.3,0.3,72.5,0.7,108.8,1 M188.2,180.9c36.3,0.4,72.5,0.9,108.8,1.3 M187.8,188.8
				c36.3,0.5,72.6,1.1,108.8,1.6 M187.2,205.1c16.2,0.3,32.5,0.6,48.7,0.9 M187.1,213.6c16.2,0.3,32.5,0.7,48.7,1 M187,222.2
				c16.3,0.4,32.5,0.8,48.8,1.1 M187.1,231.1c16.3,0.4,32.5,0.8,48.8,1.2 M187.3,240.1c16.3,0.4,32.5,0.9,48.8,1.3 M187.6,249.3
				c16.3,0.4,32.5,0.9,48.8,1.3 M188.4,268.2c16.3,0.5,32.6,0.9,48.8,1.4 M189,278c16.3,0.5,32.6,0.9,48.8,1.4 M189.7,288
				c16.3,0.5,32.6,0.9,48.9,1.4 M190.5,298.1c16.3,0.5,32.6,0.9,48.9,1.3 M191.5,308.4c16.3,0.4,32.6,0.9,48.8,1.3 M192.5,319
				c16.3,0.4,32.6,0.8,48.8,1.2 M194.8,340.6c16.3,0.3,32.5,0.7,48.8,1 M196.1,351.6c16.3,0.3,32.5,0.6,48.8,0.9 M197.6,362.9
				c16.2,0.2,32.5,0.5,48.7,0.7 M199.1,374.4c16.2,0.2,32.4,0.3,48.7,0.5 M200.8,386c16.2,0.1,32.4,0.2,48.6,0.3 M202.5,397.8
				c16.2,0,32.3,0,48.5,0 M247.4,206.3c16.2,0.3,32.5,0.6,48.7,0.9 M247.3,214.9c16.2,0.3,32.5,0.7,48.7,1 M247.3,223.6
				c16.3,0.4,32.5,0.8,48.8,1.1 M247.4,232.6c16.3,0.4,32.5,0.8,48.8,1.2 M247.6,241.7c16.3,0.4,32.5,0.9,48.8,1.3 M247.9,250.9
				c16.3,0.4,32.5,0.9,48.8,1.3 M248.8,270c16.3,0.5,32.6,0.9,48.8,1.4 M249.4,279.7c16.3,0.5,32.6,0.9,48.8,1.4 M250.1,289.7
				c16.3,0.5,32.6,0.9,48.9,1.4 M250.9,299.8c16.3,0.4,32.6,0.9,48.9,1.3 M251.8,310c16.3,0.4,32.6,0.9,48.8,1.3 M252.8,320.5
				c16.3,0.4,32.6,0.8,48.8,1.2 M255.1,341.8c16.3,0.3,32.5,0.7,48.8,1 M256.4,352.7c16.3,0.3,32.5,0.6,48.8,0.9 M257.8,363.7
				c16.2,0.2,32.5,0.5,48.7,0.7 M259.2,375c16.2,0.2,32.4,0.3,48.7,0.5 M260.8,386.3c16.2,0.1,32.4,0.2,48.6,0.3 M262.5,397.8
				c16.2,0,32.3,0,48.5,0"/>
		</g>
	</g>
	<g>
		<g id="Groupe_53_2_" transform="translate(150.596 94.012)" class="st18">
			<path id="Tracé_370_2_" class="st19" d="M264.7,150.7c-9.4,9.2-19.2,14.4-28.3,17c-13.4,3.8-27.7,3.2-40.8-1.9l-1.9-20.9
				c0,0,14.5,5,28.3,2.8c16.3-2.6,26.6-15.1,26.6-15.1L264.7,150.7z"/>
			<path id="Tracé_371_2_" class="st20" d="M222.2,170.1c0.4-2.6,3.1-4.9,6.6-5.4c3.4-0.4,6.4,0.9,7.6,3
				C231.8,169.1,227.1,169.9,222.2,170.1z"/>
		</g>
		<g id="Groupe_65_2_" transform="translate(106.602)">
			<path id="Tracé_422_2_" class="st2" d="M338.1,167.3l6.6,27l-22.4,20.3l2.3-27.3c-29,14.1-14.4-28.8-14.4-28.8
				C341.9,141.8,338.1,167.3,338.1,167.3z"/>
			<path id="Tracé_423_2_" class="st2" d="M306.7,178.2l-3-1.5l3.7-8.9l0.8-1.2L306.7,178.2z"/>
			<path id="Tracé_424_2_" d="M312.2,171.6c-0.3,0.1-0.4,0.7-0.3,1.4c0.1,0.7,0.4,1.2,0.8,1.2c0.3-0.1,0.4-0.7,0.3-1.4
				C312.9,172.1,312.5,171.6,312.2,171.6z"/>
			<path id="Tracé_425_2_" d="M313.6,166.1c-0.8-0.2-1.5,0.1-1.6,0.5c-0.1,0.5,0.5,1,1.3,1.2c0.8,0.2,1.5-0.1,1.6-0.5
				C315.1,166.8,314.5,166.3,313.6,166.1z"/>
			<path id="Tracé_426_2_" class="st21" d="M306.7,178.2l-3-1.5l3.7-8.9l0.8-1.2L306.7,178.2z"/>
			<path id="Tracé_427_2_" d="M323.8,196.4l0.9-9.3l-4.2,1.9L323.8,196.4z"/>
			<path id="Tracé_428_2_" d="M329.9,172c0.6,2.5,1.9,4.8,3.7,6.6c1.8,1.9,4.4,2.7,7,2.3c2.5-0.6,4.5-3.1,4.2-5.6
				c-0.3-1.8-1.5-3.6-0.9-5.2c0.4-0.9,1.4-1.5,2-2.4c1.5-2.1,0.3-5.1-1.6-6.9c-1.8-1.8-4.2-3.2-5.4-5.5c-0.6-1.1-0.8-2.4-1.3-3.6
				c-2-5.1-8.9-7.6-13.7-4.9c-3.4,2-6.3,6-10,5.1c-0.8-0.3-1.5-0.7-2.4-0.9c-2.9-0.7-5.8,2.3-5.5,5.2c0.3,3,3,5.4,5.9,5.7
				c1.5,0.3,3.1-0.1,4.7,0.1c1.5,0.2,3.2,0.8,3.9,2.2c0.4,1,0.3,2.1,0.5,3.2c0.6,3.9,5.5,6.4,9,4.6"/>
			<path id="Tracé_429_2_" class="st2" d="M334.7,171.1c0.7,2.9-1.1,5.6-4,6.3c-2.8,0.6-5.7-1.1-6.3-4c-0.6-2.9,1.2-5.6,4-6.3
				C331.2,166.5,334,168.3,334.7,171.1L334.7,171.1z"/>
			<path id="Tracé_430_2_" class="st22" d="M327.4,173.4L327.4,173.4c-0.2-1.8,1.1-3.2,2.8-3.4"/>
			<path id="Tracé_431_2_" class="st23" d="M314.6,177.5c-0.3,2.8,1.7,5.3,4.5,5.5c2.8,0.3,5.3-1.7,5.6-4.5c0-0.1,0-0.1,0-0.1
				c0.3-2.7-1.8-5.2-4.5-5.5C317.4,172.8,314.9,174.7,314.6,177.5C314.5,177.5,314.5,177.6,314.6,177.5z"/>
			<path id="Tracé_432_2_" d="M312,181.6c-0.7,0.7-1.8,0.9-2.6,0.3c-0.3-0.3-0.5-0.7-0.3-1.1c0.3-0.6,1.2-0.7,1.5-1
				c0.3-0.3,0.5-1,1-1.2c0.5-0.2,0.9,0.3,0.9,0.6C312.8,180.1,312.6,180.9,312,181.6"/>
		</g>
		<g id="Groupe_66_2_" transform="translate(0 48.638)" class="st18">
			<path id="Tracé_433_2_" class="st19" d="M528.1,193.1c0.3,3.3,0.3,7.5,0.3,9.7c0,2.6-0.1,4.2,1.2,4.6c0.9,0.3,1.8-0.1,2.3-0.9
				c0.3,0.8,1,1.3,1.9,1.4c0.9,0,1.5-0.9,2-1.8c0.3,0.7,1,1.2,1.8,1.3c1,0.1,1.6-0.9,2-2c0.3,0.3,0.8,0.5,1.3,0.5
				c2.3-0.2,3.6-6.9,3.8-11.9"/>
			<path id="Tracé_434_2_" class="st19" d="M464.6,146.9c32.5-18.1,64.1-1.8,74.1,18.1c5.2,10.4,7.1,22.1,5.4,33.5l-15.9-3.2
				c0-7.3-7-28.9-27.1-32.6c-17.4-3.2-28.8,2-28.8,2L464.6,146.9z"/>
			<path id="Tracé_435_2_" class="st24" d="M531.8,206.7c0.4-1.6,0.6-3.2,0.5-4.8"/>
			<path id="Tracé_436_2_" class="st24" d="M539.5,205.7c0.4-1.6,0.6-3.2,0.5-4.8"/>
			<path id="Tracé_437_2_" class="st24" d="M535.6,206.4c0.3-1.6,0.5-3.2,0.4-4.8"/>
			<path id="Tracé_438_2_" class="st20" d="M534.3,158.1c2.3,2.6,6.2,10.1,7.1,13c-1.6,0.4-4.3-0.3-6.1-2.6c-2.6-3-3.4-7.1-2-9.2
				C533.5,158.8,533.8,158.4,534.3,158.1z"/>
		</g>
		<g id="Groupe_70_2_" transform="translate(58.357 46.8)">
			<g>
				<path class="st2" d="M417.3,170.2c13.2,9.6,27.4,15.4,22.4,30c-2.8,8.2-25.9,9.3-40.6,4.5c-9.6-3.1-14.8,18.2,17.2,21.9
					c34.6,4,44.3-14.1,47.6-21.5c4.2-9.4,1-32.7-28.5-47.5C401.6,140.6,399.6,157.3,417.3,170.2z"/>
				<path class="st7" d="M435.6,187.1c-4.8-4.3-14.3-9.8-21.5-15.8c-16.8-14.1-30.6-25.4-30.6-25.4s25.3-8.2,49.6,7.5
					c6.7,4.4,14.2,9.6,19.6,15.7c0,0-2.4,4.8-7.4,10.2C441,183.8,435.6,187.1,435.6,187.1z"/>
				<g>
					<g>
						<path class="st14" d="M431.1,183.6c5.4-3.6,10.1-8.2,13.8-13.5c1.1-1.6,2.2-3.2,3.1-4.9c0.4-0.6-0.6-1.2-1-0.6
							c-3.2,5.7-7.4,10.8-12.4,14.9c-1.3,1.1-2.7,2.1-4.1,3.1C430,183,430.5,184,431.1,183.6L431.1,183.6z"/>
					</g>
				</g>
				<path d="M439,184.7c-2,1.5-3.4,2.3-3.4,2.3c-1.5-1.4-3.5-2.8-5.7-4.4c-0.6-4.8-1.4-9.4-2.6-13.7
					C430.8,173,436.3,179.6,439,184.7z"/>
			</g>
			<g>
				<path class="st2" d="M339.9,168.5c0,0-26,13.9-42.2,18.6c-9.7,2.8-40,8.7-44,9.3c-9.5,1.7-12.2,1.1-12.5,3.2
					c-0.2,2.1,5.6,2.1,9.7,1.5c0.2,0,0.5-0.1,0.7-0.1l0,0.1c-2,0.3-3.3,1.1-3.2,2.3c0.1,0.8,1.1,1.5,2.3,1.8c-1,0.5-1.6,1.2-1.5,2
					c0.1,0.8,0.9,1.4,2.1,1.8c-0.9,0.5-1.5,1.1-1.3,1.8c1.1,3.2,22.2,3.2,29.3,2c0,0,43.4-2.8,73-22.8
					C370.3,177.7,339.9,168.5,339.9,168.5z"/>
				<path class="st25" d="M310.4,203.3c-4.6,1.4-6.4,4.2-6.7,5.7c4.1-0.7,14.3-3.4,16.5-4.5C319.3,203.3,314.9,201.8,310.4,203.3z"
					/>
				<path class="st7" d="M333,171.7c5.8-3.1,14.1-10.2,22.4-15c26.2-15.1,47.7-12.6,47.7-12.6s5.9,15-40.5,40.2
					c-7.2,3.9-11.2,6.6-16.8,9.4c0,0-4.1-3.8-8-10.2C334.5,178.1,333,171.7,333,171.7z"/>
				<g>
					<g>
						<path class="st14" d="M337.8,168.9c2,6.3,5.3,12.2,9.4,17.3c1.3,1.6,2.6,3.1,4,4.5c0.5,0.5,1.3-0.3,0.8-0.8
							c-4.7-4.8-8.6-10.3-11.3-16.4c-0.7-1.6-1.3-3.2-1.8-4.9C338.7,167.9,337.6,168.2,337.8,168.9L337.8,168.9z"/>
					</g>
				</g>
				<g id="Groupe_57_2_" transform="translate(1.555 18.993)">
					<path id="Tracé_385_2_" class="st26" d="M249.8,189.8c1.2-0.4,4-0.1,5.3-0.4"/>
					<path id="Tracé_386_2_" class="st26" d="M249.2,186c1.5-0.4,4.1-0.4,5.7-0.6"/>
					<path id="Tracé_387_2_" class="st26" d="M249.8,182c0.8-0.3,3.4-0.4,4.5-0.6"/>
				</g>
			</g>
			<path id="Tracé_450_2_" class="st7" d="M390.1,144.9c42.9-7,39.5,38.7,42.5,70c-16.9,15.3-51.4,11.7-51.4,11.7l-10.6-28.9
				C358.6,167.5,356.4,149.6,390.1,144.9z"/>
		</g>
		<g id="Groupe_71_2_" transform="translate(57.025 134.58)">
			<path id="Tracé_455_2_" class="st27" d="M365.1,305.9c-0.6,5.8-2.1,9.4-7.1,11.7c-6.1,2.8-17.6,4.7-17.6,4.7l25.1-0.7l6.2-2.2
				l1,1.8l2.4,0.1l0.3-16.1L365.1,305.9L365.1,305.9z"/>
			<path id="Tracé_456_2_" class="st27" d="M420.8,305c-0.6,5.8-2.1,9.5-7,11.7c-6.1,2.8-17.6,4.7-17.6,4.7l25.1-0.7l6.2-2.2
				l0.9,1.8l2.4,0.1l0.3-16.1L420.8,305L420.8,305z"/>
			<path id="Tracé_457_2_" class="st3" d="M364.4,173.7c-9.7,21-15.8,53.2-14.7,82.1c1.1,28.9,9.6,55.5,9.6,55.5
				c10.8,3.9,22.8-1,22.8-1c-9-57.5,9.2-90.7,9.2-90.7c-0.8,36.3,23.5,91.8,23.5,91.8c10.5,3.5,22-2.8,22-2.8
				c-16.3-52.1-7.6-102.9-0.7-131.9c6.9-29-2.1-49.6-2.1-49.6c-22,13.1-51.4,11.7-51.4,11.7C380.2,145.1,374.1,152.7,364.4,173.7z"
				/>
			<path id="Tracé_458_2_" d="M402.2,276.7c-6.4-23.4,0.9-51.9,10.9-73.4c12.3-26.4,8.3-41.7,8.3-41.7c0.2,10.9-3.6,19.8-10.5,28.3
				c-5.7,7.1-19.2,19.7-19.6,30.7C390.5,246.3,402.2,276.6,402.2,276.7z"/>
			<path id="Tracé_459_2_" class="st28" d="M414.2,147c-7.5,2.8-15.6,3.7-23.5,2.7"/>
			<path id="Tracé_460_2_" class="st28" d="M414.4,152c-6.7,3.1-15.7,4.2-23,2.4"/>
			<path id="Tracé_461_2_" class="st28" d="M436.2,140.1c-3.4,2.7-7.7,4.3-12,4.3"/>
			<path id="Tracé_462_2_" class="st28" d="M437.2,144.9c-2.6,2.2-5.7,3.6-9,3.8"/>
			<path id="Tracé_463_2_" class="st28" d="M365.9,312.1c-14.3-50.8-7.8-96.8,0-120.1c7.1-20.9,19.6-32.5,19.2-52.7"/>
			<path id="Tracé_464_2_" class="st28" d="M382.3,156.1c-2.7-1.4-3.9-5.1-3.7-8.2"/>
			<path id="Tracé_465_2_" class="st28" d="M380.7,160.3c-2.8-1.8-3.8-4.4-4.3-7.8"/>
			<path id="Tracé_466_2_" class="st28" d="M421.7,154.5c-0.2-4.1-0.7-8.1-1.5-12.1"/>
			<path id="Tracé_467_2_" class="st28" d="M419.3,138.6c-0.4-1.5-0.9-3-1.4-4.4"/>
		</g>
	</g>
</g>
</svg>
