<svg version="1.1" id="upgrade-illu" xmlns="http://www.w3.org/2000/svg" xmlns:xlink="http://www.w3.org/1999/xlink" x="0px"
	 y="0px" viewBox="0 0 610 515" style="enable-background:new 0 0 610 515;" xml:space="preserve">
<style type="text/css">
	.st0{opacity:0.6;fill:url(#SVGID_1_);enable-background:new    ;}
	.st1{opacity:0.3;fill:#888799;enable-background:new    ;}
	.st2{fill:#31A6E0;}
	.st3{fill:none;stroke:#FADF50;stroke-width:3.0002;stroke-miterlimit:10;}
	.st4{fill:none;stroke:#0BD9A9;stroke-width:3.7502;stroke-miterlimit:10;}
	.st5{fill:none;stroke:#0BD9A9;stroke-width:3.0002;stroke-miterlimit:10;}
	.st6{fill:#304D52;}
	.st7{fill:none;stroke:#304D52;stroke-width:4.5002;stroke-miterlimit:10;}
	.st8{fill:none;stroke:#FADF50;stroke-width:7.5004;stroke-miterlimit:10;}
	.st9{fill:#2BDEB4;}
	.st10{fill:none;stroke:#FADF50;stroke-width:2.2501;stroke-miterlimit:10;}
	.st11{fill:none;stroke:#09D399;stroke-width:22.4127;stroke-linecap:round;stroke-miterlimit:10;}
</style>
<g id="snippets">

		<linearGradient id="SVGID_1_" gradientUnits="userSpaceOnUse" x1="75.7859" y1="400.6317" x2="252.8083" y2="814.3502" gradientTransform="matrix(0.9194 0.3934 -0.3934 0.9194 392.9261 -365.6435)">
		<stop  offset="0" style="stop-color:#89D8F6"/>
		<stop  offset="1" style="stop-color:#9AFFD3"/>
	</linearGradient>
	<path class="st0" d="M363,50.4c-53.2-21.8-146.9-38-185.5,41.1c-43.1,88.4,13.4,87.9-5.4,195.1c-11.1,63.4-64.1,74.4-41.5,149.3
		c16.4,54.2,149.4,65.9,204,9.2c32.9-34.2,7.2-59.8,27-98.9c21.7-42.9,92.2-49.4,115.8-100.3C503.7,189.1,461.4,90.8,363,50.4z"/>
	<g id="circles_1_" transform="translate(0 15.165)">
		<path id="cir-1_1_" class="st1" d="M534.7,422.8c0-10.6-102.4-14.7-228.7-14.7s-228.7,4.1-228.7,14.7
			c0,10.6,102.4,22.1,228.7,22.1S534.7,433.4,534.7,422.8z"/>
		<path id="cir-2_1_" class="st2" d="M454,117.7c9.4,4.3,20.5,0.1,24.8-9.3c4.3-9.4,0.1-20.5-9.3-24.8c-9.4-4.3-20.5-0.1-24.8,9.3
			l0,0C440.4,102.2,444.6,113.4,454,117.7z"/>
		<path id="cir-3_1_" class="st2" d="M357.6,387.3c0.5,3.2,3.6,5.5,6.9,5c3.2-0.5,5.5-3.6,5-6.9c-0.5-3.2-3.6-5.5-6.9-5l0,0
			C359.3,381,357,384.1,357.6,387.3z"/>
		<path id="cir-4_1_" class="st3" d="M55.3,360.8c9.6,4.1,20.6-0.3,24.7-9.8c4.1-9.5-0.3-20.5-9.9-24.6c-9.4-4.1-20.4,0.2-24.6,9.5
			C41.5,345.4,45.8,356.6,55.3,360.8z"/>
		<path id="cir-5_1_" class="st2" d="M17.5,282.3c3,1.4,6.6,0,7.9-3c1.4-3,0-6.6-3-7.9c-3-1.4-6.6,0-7.9,3l0,0
			C13.1,277.4,14.5,281,17.5,282.3z"/>
		<path id="cir-6_1_" class="st4" d="M594,239.1c4.8,1.1,9.7-1.9,10.8-6.8c1.1-4.9-1.9-9.7-6.8-10.8c-4.9-1.1-9.7,1.9-10.8,6.8l0,0
			C586.1,233.2,589.1,238,594,239.1z"/>
		<path id="cir-7_1_" class="st5" d="M225.1,206.3c6.1,0.6,11.8-3.9,12.4-10c0.6-6.1-3.9-11.8-10-12.4c-6.1-0.6-11.8,3.9-12.4,10
			l0,0C214.4,200.2,218.9,205.7,225.1,206.3z"/>
		<path id="cir-8_1_" class="st6" d="M202.5,240.8c2.5,0.3,4.7-1.5,4.9-4c0.3-2.5-1.5-4.7-4-4.9c-2.5-0.3-4.7,1.5-4.9,4l0,0
			C198.2,238.4,200,240.6,202.5,240.8z"/>
		<path id="cir-9_1_" class="st7" d="M94.7,156.2c9.6,2.7,19.5-3,22.1-12.6c2.7-9.6-3-19.6-12.6-22.1c-9.6-2.7-19.5,3-22.1,12.6l0,0
			C79.5,143.6,85.1,153.6,94.7,156.2z"/>
		<path id="cir-10_1_" class="st8" d="M371.6,260.5c1.7,4.7,6.9,7,11.6,5.3c4.7-1.7,7-6.9,5.3-11.6c-1.7-4.7-6.9-7-11.6-5.3l0,0
			C372.2,250.7,369.9,255.9,371.6,260.5z"/>
		<path id="cir-11_1_" class="st9" d="M17.9,96.1c2.9-3,2.8-7.7-0.2-10.6c-3-2.9-7.7-2.8-10.6,0.2c-2.9,3-2.8,7.7,0.2,10.6
			C10.3,99.1,15.1,99.1,17.9,96.1L17.9,96.1z"/>
		<path id="cir-12_1_" class="st6" d="M521.1,328.4c0.7,2.9,3.6,4.6,6.3,3.8c2.9-0.7,4.6-3.5,3.8-6.3c-0.7-2.9-3.6-4.6-6.3-3.8l0,0
			C522.2,322.6,520.5,325.5,521.1,328.4z"/>
		<path id="cir-13_1_" class="st10" d="M504.8,50c1,4.4,5.5,7.1,10,6.1c4.4-1,7.1-5.6,6.1-10c-1-4.4-5.5-7.1-10-6.1l0,0
			C506.4,41.1,503.6,45.6,504.8,50z"/>
	</g>
	<g>
		<polyline class="st11" points="200.9,145 90.5,255.3 200.9,365.5 		"/>
		<polyline class="st11" points="409.1,145 519.5,255.3 409.1,365.5 		"/>
		<line class="st11" x1="265" y1="365.5" x2="345" y2="145"/>
	</g>
</g>
</svg>
