<?xml version="1.0" encoding="utf-8"?>
<!-- Generator: Adobe Illustrator 23.1.0, SVG Export Plug-In . SVG Version: 6.00 Build 0)  -->
<svg version="1.1" id="upgrade-illu" xmlns="http://www.w3.org/2000/svg" xmlns:xlink="http://www.w3.org/1999/xlink" x="0px"
	 y="0px" viewBox="0 0 610 515" style="enable-background:new 0 0 610 515;" xml:space="preserve">
<style type="text/css">
	.st0{opacity:0.6;fill:url(#SVGID_1_);}
	.st1{opacity:0.3;fill:#888799;enable-background:new    ;}
	.st2{fill:#31A6E0;}
	.st3{fill:none;stroke:#FADF50;stroke-width:3.0002;stroke-miterlimit:10;}
	.st4{fill:none;stroke:#0BD9A9;stroke-width:3.7502;stroke-miterlimit:10;}
	.st5{fill:none;stroke:#0BD9A9;stroke-width:3.0002;stroke-miterlimit:10;}
	.st6{fill:#304D52;}
	.st7{fill:none;stroke:#304D52;stroke-width:4.5002;stroke-miterlimit:10;}
	.st8{fill:none;stroke:#FADF50;stroke-width:7.5004;stroke-miterlimit:10;}
	.st9{fill:#2BDEB4;}
	.st10{fill:none;stroke:#FADF50;stroke-width:2.2501;stroke-miterlimit:10;}
	.st11{fill:#57A0A0;}
	.st12{fill:#EEEFF2;}
	.st13{fill:#0BD9A9;}
	.st14{opacity:0.1;}
	.st15{opacity:0.2;}
	.st16{fill:#FFFFFF;}
	.st17{fill:#EEEFF2;stroke:#000000;stroke-width:1.6685;stroke-miterlimit:10;}
	.st18{fill:none;stroke:#000000;stroke-width:1.6685;stroke-miterlimit:10;}
	.st19{fill:#FADF50;}
	.st20{fill:#071D24;}
	.st21{fill:#EEEFF2;stroke:#000000;stroke-width:1.6725;stroke-miterlimit:10;}
</style>
<g id="discussions">
	<linearGradient id="SVGID_1_" gradientUnits="userSpaceOnUse" x1="305" y1="7" x2="305" y2="508">
		<stop  offset="0" style="stop-color:#89D8F6"/>
		<stop  offset="1" style="stop-color:#9AFFD3"/>
	</linearGradient>
	<path class="st0" d="M475.2,87.9c0-64.8-81-97.7-127.2-72.3c-33.7,18.6-32.7,44.1-92.4,114.1c-82.4,96.7-122.1,92.6-141.4,162
		c-5.9,21.2-21.8,89.3,4.5,137.4c42.7,78.1,174.4,100.6,266.5,57C459,451,517,390,504.2,315.7c-5.9-34.1-33.4-88.2-41.8-121.5
		C455.9,168.4,475.2,116.7,475.2,87.9z"/>
	<g id="circles_4_" transform="translate(0 15.165)">
		<path id="cir-1_4_" class="st1" d="M551,427.7c0-10.4-110.2-14.4-246-14.4s-246,4-246,14.4c0,10.4,110.2,21.6,246,21.6
			S551,438.1,551,427.7z"/>
		<path id="cir-2_4_" class="st2" d="M97.5,314.5c-9.4-4.3-20.5-0.1-24.8,9.3c-4.3,9.4-0.1,20.5,9.3,24.8c9.4,4.3,20.5,0.1,24.8-9.3
			l0,0C111.1,330,106.9,318.8,97.5,314.5z"/>
		<path id="cir-3_4_" class="st2" d="M132.4,74.9c-0.5-3.2-3.6-5.5-6.9-5c-3.2,0.5-5.5,3.6-5,6.9c0.5,3.2,3.6,5.5,6.9,5l0,0
			C130.7,81.2,133,78.1,132.4,74.9z"/>
		<path id="cir-4_4_" class="st3" d="M374.7,326.4c-9.6-4.1-20.6,0.3-24.7,9.8c-4.1,9.5,0.3,20.5,9.9,24.6
			c9.4,4.1,20.4-0.2,24.6-9.5C388.5,341.9,384.2,330.7,374.7,326.4z"/>
		<path id="cir-5_5_" class="st2" d="M577.5,89.9c-3-1.4-6.6,0-7.9,3c-1.4,3,0,6.6,3,7.9c3,1.4,6.6,0,7.9-3l0,0
			C581.9,94.8,580.5,91.2,577.5,89.9z"/>
		<path id="cir-6_4_" class="st4" d="M327.5,291.1c-4.8-1.1-9.7,1.9-10.8,6.8c-1.1,4.9,1.9,9.7,6.8,10.8s9.7-1.9,10.8-6.8l0,0
			C335.4,297,332.4,292.2,327.5,291.1z"/>
		<path id="cir-7_2_" class="st5" d="M519.9,45.9c-6.1-0.6-11.8,3.9-12.4,10c-0.6,6.1,3.9,11.8,10,12.4c6.1,0.6,11.8-3.9,12.4-10
			l0,0C530.6,52,526.1,46.5,519.9,45.9z"/>
		<path id="cir-8_4_" class="st6" d="M407.5,191.4c-2.5-0.3-4.7,1.5-4.9,4c-0.3,2.5,1.5,4.7,4,4.9c2.5,0.3,4.7-1.5,4.9-4l0,0
			C411.8,193.8,410,191.6,407.5,191.4z"/>
		<path id="cir-9_4_" class="st7" d="M305.3,351c-9.6-2.7-19.5,3-22.1,12.6c-2.7,9.6,3,19.6,12.6,22.1c9.6,2.7,19.5-3,22.1-12.6l0,0
			C320.5,363.6,314.9,353.6,305.3,351z"/>
		<path id="cir-10_4_" class="st8" d="M238.4,171.7c-1.7-4.7-6.9-7-11.6-5.3c-4.7,1.7-7,6.9-5.3,11.6c1.7,4.7,6.9,7,11.6,5.3l0,0
			C237.8,181.5,240.1,176.3,238.4,171.7z"/>
		<path id="cir-11_2_" class="st9" d="M592.1,336.1c-2.9,3-2.8,7.7,0.2,10.6c3,2.9,7.7,2.8,10.6-0.2s2.8-7.7-0.2-10.6
			C599.7,333.1,594.9,333.1,592.1,336.1L592.1,336.1z"/>
		<path id="cir-12_4_" class="st6" d="M103.9,103.8c-0.7-2.9-3.6-4.6-6.3-3.8c-2.9,0.7-4.6,3.5-3.8,6.3c0.7,2.9,3.6,4.6,6.3,3.8l0,0
			C102.8,109.6,104.5,106.7,103.9,103.8z"/>
		<path id="cir-13_2_" class="st10" d="M46.7,382.2c-1-4.4-5.5-7.1-10-6.1c-4.4,1-7.1,5.6-6.1,10c1,4.4,5.5,7.1,10,6.1l0,0
			C45.1,391.1,47.9,386.6,46.7,382.2z"/>
	</g>
	<path class="st11" d="M514,298.5H80.3c-3.4,0-6.2,2.8-6.2,6.2c0,3.4,2.8,6.2,6.2,6.2h51.1v133h8.9v-133h320.4v133h8.9v-133H514
		c3.4,0,6.2-2.8,6.2-6.2C520.2,301.2,517.4,298.5,514,298.5z"/>
	<g>
		<g>
			<g>
				<polygon class="st12" points="526.5,368 521.6,383 529.2,387.4 532,382.1 534.6,390.3 578.6,408.1 556.5,388.6 560.1,375.6 				
					"/>
				<path class="st2" d="M559.8,381.4c-17-3.9-31.5-8.8-33.8-12.7c0.4-5.2,0.8-10.3,1.3-15.2c3.7-42.9,7.2-70,7.2-70
					s-9.4,3.5-23.4,7.3c-13.4,3.7-31.1,7.6-48.5,9c-22.2,1.8-44-0.7-56.1-13.5c-19.2-20.2-18.1-47.3-17.9-51.6l26.9,2.1l21.5,2.2
					c0,0,20.6-5.1,46.1-7.9c36.3-3.9,82.6-2.8,94.1,24.9C593.6,295.8,559.8,381.4,559.8,381.4z"/>
				<g>
					<g>
						<path class="st12" d="M546.3,374.9c2.5-10.9,3.7-22.2,4.6-33.4c1-11.8,1.5-23.6,1.8-35.4c0.2-8.7,0.3-17.3,0.4-26
							c0-2.4-0.2-4.8-0.8-7.1c-0.6-2.6-1.6-5.3-3.5-7.3c-3.8-4.1-10.3-4.7-15.5-4.3c-2.8,0.2-5.6,0.7-8.3,1.6
							c-0.7,0.2-1.3,0.4-2,0.6c-2.1,0.6-4.3,1.1-6.4,1.7c-7.5,1.8-15.1,3.4-22.7,4.6c-9.6,1.6-19.3,2.8-29.1,3.3
							c-9,0.4-18.3,0.3-27.1-1.9c-3.6-0.9-7.1-2.1-10.2-4.1c-5.1-3.2-9.7-7.7-12.6-12.9c-3.3-5.9-4.3-13.2-2-19.6
							c0.1-0.4,0.3-0.7,0.4-1c0.2-0.5-0.5-0.9-0.7-0.4c-0.6,1.3-1,2.7-1.2,4.1c-0.6,3.3-0.6,6.8,0.1,10.1c1.1,4.9,3.6,9.3,6.9,13
							c3.4,3.8,7.6,7.2,12.3,9.3c7.6,3.4,16.3,4.2,24.6,4.4c9.8,0.2,19.6-0.7,29.3-2c8.7-1.2,17.3-2.7,25.8-4.6
							c4.7-1,9.4-2,13.9-3.5c4.9-1.5,10.1-2.4,15.2-1.7c2.8,0.4,5.5,1.3,7.7,3.1c2.2,1.8,3.3,4.5,4,7.2c0.7,2.4,0.9,4.9,0.9,7.4
							c0,1.7,0,3.3,0,5c0,4.4-0.1,8.8-0.2,13.2c-0.2,11.4-0.6,22.8-1.3,34.1c-0.7,11.7-1.8,23.5-3.8,35c-0.4,2.5-0.9,4.9-1.5,7.3
							C545.4,375.2,546.2,375.4,546.3,374.9L546.3,374.9z"/>
					</g>
				</g>
			</g>
			<path d="M527.2,353.5c3.7-42.9,7.2-70,7.2-70s-9.4,3.5-23.4,7.3c-13.4,3.7-31.1,7.6-48.5,9c-22.2,1.8-44-0.7-56.1-13.5
				c-19.2-20.2-18.1-47.3-17.9-51.6l26.9,2.1l16.7,1.3c0,0,22.3-7.6,50.9-7c17.4,0.4,37.2,3.8,55.9,13.7
				C570.7,262,546.4,318.5,527.2,353.5z"/>
			<g>
				<polygon class="st12" points="470.2,359.9 461.1,372.8 467.1,379.2 471.3,375 471.4,383.5 508.3,413.5 492.8,388.3 500,377 				
					"/>
				<path class="st2" d="M363.3,233.7c0,0-6.6,32.6,14.3,54.6c31.3,33,123.5-1.9,123.5-1.9l-31.7,73.9c0,0,13.5,13.3,28.7,22
					c0,0,76.3-112.2,29.2-137.4c-49.3-26.4-106.8-6.7-106.8-6.7L363.3,233.7z"/>
				<g>
					<g>
						<path class="st12" d="M487.1,372.2c6.8-11.8,13.4-23.6,19.3-35.9c5.8-12.1,10.8-24.5,14.6-37.3c0.9-2.9,1.7-5.8,2.3-8.8
							c0.5-2.8,0.9-5.7,1-8.5c0.3-5.5-0.9-11.5-5.6-15.1c-4.2-3.2-10-3.6-15-3.1c-2.6,0.3-5.1,0.8-7.6,1.6c-0.6,0.2-1.1,0.4-1.7,0.5
							c-4.8,1.4-9.6,2.5-14.4,3.5c-8,1.7-16,3.1-24,4.2c-9,1.2-18.1,2-27.2,2c-7.9,0-16.1-0.6-23.6-3.2c-3.9-1.3-7.2-3.4-10.4-6
							c-4.1-3.4-7.8-7.6-9.9-12.6c-2.2-5.4-2.6-11.6-0.7-17.1c0.1-0.4,0.2-0.6,0.3-0.8c0.2-0.5-0.5-0.9-0.7-0.4
							c-0.5,1.1-0.9,2.3-1.1,3.5c-0.6,2.9-0.7,5.9-0.3,8.8c0.6,4.2,2.3,8.2,4.7,11.7c3.1,4.4,7.3,8.2,11.9,11c6.3,3.7,13.9,5,21,5.6
							c8.9,0.7,17.8,0.3,26.7-0.6c8.6-0.8,17.2-2.2,25.7-3.8c6.2-1.2,12.4-2.5,18.6-4.1c1.5-0.4,3-0.8,4.5-1.2
							c4.4-1.4,8.9-2.2,13.5-1.9c2.6,0.2,5.3,0.8,7.7,2c2.6,1.4,4.5,3.7,5.6,6.4c1.1,2.7,1.3,5.5,1.2,8.4c-0.1,2.9-0.5,5.8-1,8.7
							c-0.5,3-1.4,5.9-2.2,8.8c-1,3.3-2,6.6-3.2,9.9c-2.2,6.4-4.7,12.7-7.4,18.9c-5.4,12.2-11.7,24.1-18.2,35.7
							c-1.7,2.9-3.3,5.9-5,8.8C486.2,372.3,486.9,372.7,487.1,372.2L487.1,372.2z"/>
					</g>
				</g>
				<g>
					<g>
						<path class="st12" d="M389,260.5c5.8-3.2,11.6-7.4,14-13.9c0.6-1.7,1-3.5,1-5.3c0-0.5-0.8-0.5-0.8,0c0,3.2-1.1,6.2-2.8,8.9
							c-1.8,2.7-4.2,4.9-6.9,6.7c-1.5,1.1-3.2,2-4.8,3C388.2,260.1,388.6,260.8,389,260.5L389,260.5z"/>
					</g>
				</g>
				<g>
					<g>
						<path class="st12" d="M386.1,255.7c4.7-3,9.6-6.5,11.4-12c0.5-1.5,0.7-3,0.6-4.6c0-0.5-0.8-0.5-0.8,0c0.2,2.6-0.6,5.2-2,7.5
							c-1.5,2.3-3.5,4.2-5.7,5.8c-1.3,0.9-2.6,1.8-3.9,2.7C385.3,255.3,385.7,256,386.1,255.7L386.1,255.7z"/>
					</g>
				</g>
				<g>
					<g>
						<path class="st12" d="M372.3,248c-3,0.3-6.1,0.6-9.1,0.8c-0.5,0-0.5,0.8,0,0.8c3-0.3,6.1-0.6,9.1-0.8
							C372.8,248.8,372.8,248,372.3,248L372.3,248z"/>
					</g>
				</g>
				<g>
					<g>
						<path class="st12" d="M366.8,253.1c-1.3,0.2-2.6,0.3-3.9,0.5c-0.2,0-0.4,0.2-0.4,0.4c0,0.2,0.2,0.4,0.4,0.4
							c1.3-0.2,2.6-0.3,3.9-0.5c0.2,0,0.4-0.2,0.4-0.4C367.2,253.3,367,253.1,366.8,253.1L366.8,253.1z"/>
					</g>
				</g>
			</g>
			<polygon points="453.2,248.1 488.5,245.3 512.9,230.3 415.4,239.8 415.7,243.3 			"/>
			<g>
				<path class="st13" d="M481.1,237c-7.3-4.6-14.3-11.3-21.8-17.4c-0.8-0.6-1.5-1.2-2.2-1.8c-5-4.2-8.9-8.5-12.2-17.7
					c-3-8.5-5.4-21.2-7.4-41.9c-4.9-48.6,17.9-44.2,27.7-16.7c7.9,22,1.4,36.6,9.9,55.3c4.3,9.4,19.7,18,25.5,26.3
					C512.9,240.9,493,238.4,481.1,237z"/>
				<path class="st6" d="M475.1,175.1c-3.2-8-5.7-21.7-9.2-33.8c-10.6-36.8-56.1-44-30.9,20c3.9,9.9,5.7,16,8.9,23.4
					c0,0,7.3,0,16.5-2.7C468.2,179.9,475.1,175.1,475.1,175.1z"/>
				<path class="st14" d="M457.1,217.8c-5-4.2-8.9-8.5-12.2-17.7c0.4-0.2,0.7-0.3,1.2-0.4c3.7-0.6,8.4,3.5,10.6,9.2
					C458.1,212.4,458.1,215.7,457.1,217.8z"/>
				<g>
					<g>
						<path class="st12" d="M472,167.3c-3.5,2-7.1,3.7-10.9,5c-4.1,1.4-8.2,2.4-12.5,3.1c-2.5,0.4-5.1,0.6-7.6,0.8
							c-0.5,0-0.5,0.9,0,0.8c4.5-0.2,9-0.9,13.4-1.9c4.1-1,8.1-2.3,12-4c2.1-0.9,4.1-1.9,6-3.1C472.9,167.8,472.4,167,472,167.3
							L472,167.3z"/>
					</g>
				</g>
			</g>
			<path class="st6" d="M449.1,176.3l-9,49.4c0,0-47.3,35.5-76.8,8.1c0,0-4-37.5-9.9-39.8c-2.6-1.3-3.5-1.4-4.8-2.4
				c-0.6-28.2,7.5-70.6,56.7-78.4C458.3,104.8,460,127.8,449.1,176.3z"/>
			<path class="st13" d="M460.5,234.3c-34.7,10.6-53,14.3-64.5,14.4c-5.8,0-9.9-0.9-13.5-2.2c-0.2-0.1-0.5-0.2-0.7-0.3
				c-0.4-0.1-0.7-0.3-1.1-0.5c-1.8-0.8-3.7-2-5.7-3.5c-10.1-7.7-21.4-24.1-21.6-48.3c4,1.9,8.9,3.2,13.4,4
				c8.1,1.6,13.1,1.8,20.8,1.6c0.6,7.8-0.6,16.2,8.6,19c11.8,3.6,53.5,0.6,61.1-6.8C473.5,195.7,483,227.7,460.5,234.3z"/>
			<path class="st14" d="M396,248.7c-5.8,0-9.9-0.9-13.5-2.2c-0.2-0.1-0.5-0.2-0.7-0.3c-0.4-0.1-0.7-0.3-1.1-0.5
				c-1.8-0.8-3.7-2-5.7-3.5c0.2-0.6,0.5-1.2,1-1.7c2.6-2.6,9-2,14.2,1.4C393.5,243.9,395.5,246.5,396,248.7z"/>
			<path class="st13" d="M425.2,120.3l1.8-9.9c0,0,15.4,4.9,16.2-7.8c1.3-22.2,3-28.1-6.5-35.3c-9.5-7.2-35.1,1.4-34.7,28l-0.8,21.1
				c0,0,4.8,4.4,11.6,5.8C419.8,123.4,425.2,120.3,425.2,120.3z"/>
			<path d="M426.4,87.5c-0.1,0.9,0.2,1.6,0.7,1.7c0.4,0,0.8-0.7,0.9-1.6c0.1-0.9-0.2-1.6-0.7-1.7C426.9,85.9,426.5,86.6,426.4,87.5z
				"/>
			<path d="M438.8,88.2c-0.1,0.9,0.2,1.6,0.7,1.7c0.4,0,0.8-0.7,0.9-1.6c0.1-0.9-0.2-1.6-0.7-1.7C439.3,86.6,438.9,87.3,438.8,88.2z
				"/>
			<path d="M427,110.4c0,0-6.9-1.3-11.7-6.6l10.7,13L427,110.4z"/>
			<path class="st14" d="M408.4,92.9c0.6-3.8,4.5-6.5,8.6-5.9c4.2,0.5,7.1,4.1,6.5,7.9c-0.6,3.8-4.5,6.5-8.6,5.9
				C410.7,100.2,407.8,96.7,408.4,92.9z"/>
			<path class="st14" d="M439.9,95.3c0.5-2.2,2-3.9,4-5c-0.2,3.5-0.5,7.4-0.8,12.2c0,0.2,0,0.3-0.1,0.4
				C440.5,101.3,439.2,98.3,439.9,95.3z"/>
			<polygon class="st15" points="435.7,82.2 433.5,81.9 431.8,93.2 437.1,93.9 			"/>
			<path d="M426,80.5c0,0.6,1,1.1,2.2,1c1.2,0,2.1-0.6,2.1-1.2c0-0.6-1-1.1-2.2-1C426.9,79.3,426,79.9,426,80.5z"/>
			<path d="M438.3,80.9c-0.3,0.5,0.3,1.4,1.4,1.8c1,0.5,2.1,0.4,2.4-0.2c0.3-0.5-0.3-1.4-1.4-1.8C439.7,80.3,438.6,80.4,438.3,80.9z
				"/>
			<g>
				<path d="M409.4,91.1c2.1,0.9,4.7-0.4,5.9-2.3c1.2-1.9,1.4-4.1,1.8-6.2c0.4-2.1,1.1-4.4,2.9-5.7c1.7-1.2,4.1-1.4,6.2-1.3
					c7.7,0.4,15.6,3.5,22.7,0.8c6.1-2.4,9.4-8.6,10.2-14.5c0.5-3.2,0.4-6.5-1.2-9.4c-1.5-2.9-4.8-5.1-8.3-5
					c-7.4,0.3-11.1,10-18.5,10.2c-2.9,0.1-5.6-1.4-8.3-2.6c-3.3-1.5-7-2.6-10.6-2.1c-4.8,0.8-8.6,4.8-8.9,9.2
					c-0.1,2.2,0.6,4.7-0.8,6.6c-1.8,2.6-6.3,2.4-8.4,4.7c-1.3,1.4-1.4,3.5-0.8,5.2c0.7,1.7,2.1,3.2,3.6,4.4c0.7,0.5,1.4,1,1.8,1.7
					c0.8,1.3,0.5,2.9,0.7,4.4c0.2,2.3,1.9,4.6,4.4,5.1c2.5,0.5,5.3-1.8,4.5-4"/>
			</g>
			<path class="st13" d="M394.6,88c0.9-3.6,4.8-5.9,8.8-5.2c4,0.8,6.5,4.3,5.7,8c-0.9,3.6-4.8,5.9-8.8,5.2
				C396.3,95.1,393.7,91.6,394.6,88z"/>
			<g>
				<path d="M430.5,99.6c0.7,0.2,2.1,0.1,2.7-0.6c0.2-0.2,0.6-0.7,0.1-1.1c-0.5-0.4-1.3,0-2-0.1c-0.7-0.2-1.3-1.2-2.2-1.1
					c-0.7,0.1-1,0.4-1.1,0.9c-0.1,0.7,0.8,1.7,2.3,2"/>
			</g>
			<g>
				<g>
					<path d="M400.4,87.4c1.7-0.2,3.6,1,3.9,2.7c0,0.3,0.4,0.4,0.6,0.3c0.3-0.1,0.4-0.3,0.3-0.6c-0.2-1.1-0.9-2-1.8-2.6
						c-1-0.7-2.1-0.9-3.3-0.7c-0.3,0-0.4,0.4-0.3,0.6C399.9,87.3,400.1,87.4,400.4,87.4L400.4,87.4z"/>
				</g>
			</g>
			<g>
				<g>
					<path class="st12" d="M392.6,163.1c-0.8,4.7-1.4,9.4-2,14.2c-0.6,4.8-1.1,9.5-1.4,14.3c-0.2,2.7-0.4,5.4-0.5,8.1
						c0,0.6,0.9,0.6,1,0c0.3-4.7,0.6-9.5,1.1-14.2c0.5-4.7,1-9.4,1.7-14.1c0.4-2.6,0.8-5.3,1.2-7.9c0-0.3-0.1-0.5-0.3-0.6
						C393,162.7,392.7,162.9,392.6,163.1L392.6,163.1z"/>
				</g>
			</g>
			<g>
				<g>
					<path class="st12" d="M389.6,190.6c-5.4,0.3-10.8,0.3-16.2-0.4c-2.9-0.4-5.7-0.9-8.5-1.5c-2.7-0.6-5.4-1.3-8-2.2
						c-2.6-0.9-5.2-2.1-7.4-3.8c-0.2-0.2-0.5-0.2-0.7,0c-0.2,0.2-0.2,0.5,0,0.7c2,1.6,4.3,2.7,6.7,3.6c2.6,1,5.3,1.8,8.1,2.4
						c5.4,1.3,11,2.1,16.6,2.3c3.2,0.1,6.4,0,9.6-0.1C390.3,191.5,390.3,190.5,389.6,190.6L389.6,190.6z"/>
				</g>
			</g>
			<g>
				<g>
					<path class="st12" d="M428.9,122.1c-4.7,2.2-10,3.1-15.2,2.9c-5.2-0.3-10.3-1.6-14.8-4.2c-2.5-1.4-4.7-3.1-6.7-5.2
						c-0.4-0.5-1.1,0.2-0.7,0.7c3.6,3.8,8.3,6.5,13.4,8.1c5.1,1.6,10.7,2,16,1.2c3-0.5,5.9-1.3,8.6-2.6
						C430,122.6,429.5,121.8,428.9,122.1L428.9,122.1z"/>
				</g>
			</g>
			<g>
				<g>
					<path class="st12" d="M449,135.2c2.7,4.8,4.3,10.3,4.3,15.9c0,1.6-0.1,3.1-0.3,4.7c0,0.3,0.2,0.5,0.5,0.5
						c0.3,0,0.5-0.2,0.5-0.5c0.7-5.6-0.1-11.4-2.1-16.6c-0.6-1.5-1.3-3-2.1-4.4C449.5,134.2,448.7,134.7,449,135.2L449,135.2z"/>
				</g>
			</g>
		</g>
		<g>
			<polygon points="453.2,248.1 551.1,240.4 551.1,240.4 560.9,184.5 458.5,188.6 			"/>
			<path class="st16" d="M505.8,214.5c-0.1,2.4,1.8,4.3,4.2,4.4c2.4,0,4.4-1.9,4.4-4.2c0.1-2.4-1.8-4.3-4.2-4.4
				C507.8,210.2,505.8,212.1,505.8,214.5z"/>
		</g>
		<g>
			<path class="st17" d="M595.4,112.4H495.3c-4.5,0-8.1,3.6-8.1,8.1v38.8c0,4.5,3.6,8.1,8.1,8.1h13.1v9.1l9.1-9.1h77.8
				c4.5,0,8.1-3.6,8.1-8.1v-38.8C603.5,116,599.9,112.4,595.4,112.4z"/>
			<line class="st18" x1="501.2" y1="129" x2="588.8" y2="129"/>
			<line class="st18" x1="501.2" y1="139.7" x2="588.8" y2="139.7"/>
			<line class="st18" x1="501.2" y1="150.4" x2="588.8" y2="150.4"/>
		</g>
	</g>
	<g>
		<g>
			<g>
				<path class="st19" d="M299.9,160.5c-0.7,0.8-1.3,1.6-2,2.4c-3.6,4.2-7.1,8.1-10.4,11.7c-1.8,2-3.6,3.9-5.4,5.7
					c-0.4,0.5-0.9,1-1.4,1.4c-1.7,1.8-3.4,3.4-5.1,5c-0.7,0.7-1.4,1.3-2.1,1.9c-5,4.7-9.8,8.7-14.1,12c-0.1,0.1-0.1,0.1-0.2,0.2
					c-2,1.5-3.9,2.8-5.7,4c-27.5,18.3-42.1,9.5-53.4,5.1c-13-5-25.4-14.2-30.1-17.8c-0.6-0.2-1.2-0.6-1.8-1
					c-2.5-1.8-3.8-4.4-2.9-5.9c0.5-0.9,1.6-1.2,3-1c-0.9-1.4-1.2-2.9-0.6-3.9c0.6-1,1.8-1.3,3.3-1.1l0,0c0,0,0.1,0,0.1,0
					c-1.1-1.5-1.5-3.1-0.8-4.2c0.9-1.5,3-1.3,5.5,0.1l0-0.1c-0.3-0.2-0.6-0.3-0.8-0.5c-5-2.9-8.3-6.5-7.4-8.1
					c0.9-1.6,2.9-1.3,14.6,5c13.3,7.9,31.7,18.5,49.9,11.1c0.4-0.2,0.7-0.3,1.1-0.5c2.8-1.2,5.5-2.8,8.2-4.7c3.8-2.6,7.5-5.8,11-9.2
					c2.2-2.1,4.3-4.4,6.4-6.6c2.4-2.6,4.6-5.3,6.6-7.7c1.7-2.1,3.2-4,4.5-5.8c0.5-0.7,1-1.4,1.5-2.1c0.9-1.2,1.6-2.3,2.1-3.1
					c0.7-1,1.1-1.7,1.2-1.9l0.2,0.2L299.9,160.5z"/>
				<path class="st13" d="M301,157.7c-0.3,0.9-0.7,1.8-1.1,2.8c-4.1,5.9-22.5,27.8-22.5,27.8l-1.8-1.4l-11.7-9.3l-0.4-0.3L252,168
					c4.4-4.1,9.8-10.4,13.5-14.9c0.4-0.5,0.9-1,1.2-1.5c1.6-1.9,2.6-3.2,3.1-3.7c0.1-0.1,0.2-0.2,0.2-0.2l5.1-6.3l3-3.7
					c0.4-0.5,0.9-0.9,1.4-1.3C287.7,130.6,306.4,141.7,301,157.7z"/>
				<g>
					<g>
						<path class="st12" d="M282.6,180.3c-3.2-2.3-6.3-4.7-9.4-7.2c-3.1-2.5-6.2-5.1-9.3-7.6c-1.7-1.4-3.4-2.8-5.2-4.1
							c-0.3-0.2-0.8,0.2-0.5,0.5c3.1,2.4,6.2,5,9.3,7.5c3.1,2.5,6.2,5.1,9.4,7.5c1.8,1.4,3.5,2.7,5.4,4
							C282.6,181,282.9,180.5,282.6,180.3L282.6,180.3z"/>
					</g>
				</g>
				<path d="M299.9,160.5c-0.7,0.8-1.3,1.6-2,2.4c-3.6,4.2-7.1,8.1-10.4,11.7c-1.8,2-3.6,3.9-5.4,5.7c-0.4,0.5-0.9,1-1.4,1.4
					c-1.7,1.8-3.4,3.4-5.1,5c0,0-0.1,0.1-0.1,0.1c-0.7,0.6-1.3,1.2-1.9,1.8c-5,4.7-9.8,8.7-14.1,12c-0.1,0.1-0.1,0.1-0.2,0.2
					c2.1-6.5,3.1-14.3,4.1-22.7c0-0.3,0.1-0.6,0.1-1c0.6-5.9,1.4-16.4,3.2-25.5c1.6-1.9,2.6-3.2,3.1-3.7c0.1-0.1,0.2-0.2,0.2-0.2
					l5.1-6.3L299.9,160.5z"/>
				<g>
					<g>
						<path d="M170.3,179.2c2,1.6,4.2,3,6.4,4.2c0.3,0.2,0.6-0.3,0.3-0.5c-2.2-1.2-4.3-2.6-6.3-4.1
							C170.5,178.5,170,178.9,170.3,179.2L170.3,179.2z"/>
					</g>
				</g>
				<g>
					<g>
						<path d="M167.7,184.7c1.9,1.6,4,3,6.3,3.9c0.3,0.1,0.6-0.4,0.3-0.5c-2.2-1-4.3-2.3-6.2-3.9C167.8,184,167.4,184.5,167.7,184.7
							L167.7,184.7z"/>
					</g>
				</g>
				<g>
					<g>
						<path d="M173.4,188.3c1.1,0.6,2.1,1.6,1.8,2.9c-0.2,1.2-1.4,2.1-2.6,1.8c-0.4-0.1-0.5,0.5-0.2,0.6c1.5,0.3,3-0.7,3.3-2.2
							c0.4-1.6-0.7-3-2.1-3.7C173.4,187.6,173.1,188.1,173.4,188.3L173.4,188.3z"/>
					</g>
				</g>
				<g>
					<g>
						<path d="M176.5,183.2c1.1,0.7,1.4,2.2,0.7,3.3c-0.6,1.1-1.7,1.8-2.9,1.5c-0.4-0.1-0.5,0.5-0.2,0.6c1.2,0.3,2.3-0.1,3.1-1.1
							c0.7-0.9,1.1-2,0.8-3.1c-0.2-0.7-0.6-1.3-1.3-1.7C176.4,182.5,176.2,183,176.5,183.2L176.5,183.2z"/>
					</g>
				</g>
				<g>
					<g>
						<path d="M185.5,178c-1.6,0.3-3.1,0.7-4.6,1.3c-0.7,0.3-1.4,0.6-2,0.9c-0.6,0.3-1.1,0.6-1.5,1.1c-0.7,1-0.5,2.3,0.3,3.2
							c0.9,1,2.3,1.3,3.5,1.2c0.9,0,1.7-0.2,2.6-0.3c0.9-0.1,1.9-0.3,2.8-0.4c0.4-0.1,0.2-0.6-0.2-0.6c-1.5,0.2-2.9,0.5-4.4,0.6
							c-1.2,0.1-2.6,0.2-3.6-0.6c-0.8-0.6-1.3-1.8-0.6-2.7c0.3-0.5,0.9-0.8,1.4-1.1c0.6-0.3,1.3-0.6,1.9-0.8c1.5-0.6,3-1,4.5-1.2
							C186,178.5,185.8,177.9,185.5,178L185.5,178z"/>
					</g>
				</g>
				<g>
					<g>
						<path d="M174.6,175.1c1.2,0.8,2.3,1.6,3.4,2.5c0.4,0.4,0.8,0.7,1.2,1.2c0.3,0.3,0.5,0.6,0.6,1c0.1,0.4,0.6,0.2,0.6-0.2
							c-0.1-0.4-0.4-0.8-0.6-1.1c-0.4-0.5-0.8-0.9-1.2-1.2c-1.1-1-2.3-1.8-3.6-2.6C174.6,174.4,174.3,174.9,174.6,175.1L174.6,175.1
							z"/>
					</g>
				</g>
				<g>
					<g>
						<path d="M183.1,185.4c-0.2,1.5,0.4,3.1,1.5,4.1c0.3,0.2,0.7-0.2,0.4-0.4c-1-0.9-1.5-2.3-1.4-3.7c0-0.2-0.1-0.3-0.3-0.3
							C183.2,185.1,183.1,185.3,183.1,185.4L183.1,185.4z"/>
					</g>
				</g>
			</g>
			<g>
				<polygon class="st12" points="45.9,304.9 30.3,310 26,302.7 31.4,299.9 23,297.5 5,255 25,276.1 39.2,275.9 				"/>
				<path class="st6" d="M288.9,294.8c-24.1,20.4-99.8-9.3-126.8-14.3c-2.2-0.4-4.1-0.7-5.6-0.7c-1.7,0-3.6,0.1-5.6,0.4
					c-8.4,1.1-19.6,4.7-35.2,9c-0.8,0.2-1.7,0.5-2.5,0.7c-17.3,4.8-39.8,10.4-69.1,14.9c-10.4-8.9-8-30.4-8-30.4S84,254,121.2,241.5
					c2.9-1,5.7-1.9,8.4-2.7c9.1-2.9,17.2-5.1,23.3-6.1c4.2-0.7,9.6-1.3,15.8-1.7c3.8-0.3,7.9-0.5,12.1-0.6
					c40.5-1.5,99.2,1.1,99.2,1.1S317.6,270.4,288.9,294.8z"/>
				<g>
					<g>
						<path class="st12" d="M56.7,291c14.6-6,29.2-12.4,44-17.9c12.1-4.5,24.5-8.4,37.3-10.4c13.2-2.1,26.6-1.9,39.8-0.2
							c17.5,2.3,34.7,7.1,51.5,12.6c5.4,1.8,10.7,3.6,16,5.6c4.7,1.7,9.4,3.5,14.2,4.7c3.3,0.8,6.7,1.2,10.1,0.8
							c3.3-0.4,6.3-1.7,9.1-3.3c1.7-1,3.3-2.1,5-3.2c0.4-0.3,0-0.9-0.4-0.7c-3.1,2.2-6.4,4.3-10,5.5c-3.2,1.1-6.5,1.3-9.7,0.9
							c-4.4-0.5-8.6-2-12.7-3.4c-5.3-1.9-10.6-3.9-15.9-5.7c-17.2-5.9-34.8-11.1-52.7-13.9c-13.3-2.1-26.8-2.6-40.2-1
							c-12.6,1.6-24.9,5-36.9,9.3c-14.4,5.1-28.5,11.2-42.6,17.1c-2,0.8-4,1.7-6,2.5C56,290.5,56.2,291.2,56.7,291L56.7,291z"/>
					</g>
				</g>
				<path d="M180.9,230.3c-3,9.5-11.3,34.3-18.7,50.1c-2.2-0.4-4.1-0.7-5.6-0.7c-1.7,0-3.6,0.1-5.6,0.4c-0.1-1-0.1-1.6-0.1-1.6
					l17.9-47.5C172.5,230.7,176.6,230.5,180.9,230.3z"/>
				<path d="M129.6,238.8l-13.9,50.4c-0.8,0.2-1.7,0.5-2.5,0.7c0.4-2.3,1.4-8.5,1.4-8.5l-1.3-0.3c0,0,6.6-31.9,7.9-39.6
					C124.1,240.5,126.9,239.6,129.6,238.8z"/>
			</g>
			<g>
				<polygon class="st12" points="150.8,284.3 147.7,299.8 138.9,299.8 139.1,293.9 132.8,299.7 85.6,293.6 114.5,287.4 
					117.8,274.4 				"/>
				<path class="st6" d="M316.3,274.9c0,0-19.2,27.3-49.6,27.3c-45.6,0-84-91.1-84-91.1L151,285.2c0,0-19-0.6-35.8-5.6
					c0,0,20.4-126.5,69.2-126.5c58.4,0,89.2,83.4,89.2,83.4L316.3,274.9z"/>
				<g>
					<g>
						<path class="st12" d="M130.9,280.7c3.9-13.3,8-26.5,13-39.4c5-12.9,10.8-25.5,17.9-37.4c3-5.1,6.4-9.9,10.8-13.9
							c2.4-2.2,5.3-3.9,8.5-4.5c3-0.5,6,0.2,8.6,1.7c5,2.9,8.9,7.9,11.4,13c0.7,1.4,1.4,2.7,2.1,4c3,5.4,6.1,10.6,9.4,15.8
							c4.7,7.4,9.7,14.7,15.1,21.7c5.5,7.2,11.4,14.1,18.1,20.2c5.5,5,11.7,9.8,18.9,12c4.7,1.4,9.9,1.9,14.8,1.4
							c4-0.4,8-1.5,11.5-3.5c4.1-2.3,7.7-5.9,9.8-10.2c0.1-0.2,0.2-0.5,0.3-0.8c0.2-0.5-0.6-0.7-0.8-0.2c-0.1,0.1,0,0-0.1,0.1
							c-0.1,0.2-0.2,0.4-0.3,0.6c-0.3,0.7-0.7,1.3-1.1,1.9c-1.4,2.1-3.1,4-5,5.6c-7.1,5.8-16.7,6.6-25.4,5
							c-7.5-1.4-14-5.7-19.7-10.5c-6.9-5.9-12.9-12.7-18.5-19.7c-5.6-7-10.7-14.4-15.6-21.9c-3.6-5.5-7-11.1-10.2-16.8
							c-0.8-1.4-1.6-2.8-2.3-4.3c-2.1-4.3-4.8-8.3-8.4-11.5c-2-1.8-4.3-3.3-6.9-4.1c-2.8-0.9-5.7-0.7-8.5,0.3
							c-5.5,2-9.4,6.8-12.9,11.3c-1.8,2.4-3.4,5-4.9,7.6c-1.8,3-3.5,6.1-5.1,9.2c-3.2,6-6.1,12.2-8.7,18.5
							c-5.3,12.6-9.7,25.6-13.7,38.6c-1,3.3-2,6.6-3,9.9C130,281,130.7,281.2,130.9,280.7L130.9,280.7z"/>
					</g>
				</g>
				<g>
					<g>
						<path class="st12" d="M279.8,274.5c-1.6-6.3-2.6-13.3,0.5-19.4c0.8-1.5,1.8-2.9,3-4c0.4-0.3-0.2-0.9-0.6-0.6
							c-2.2,2.1-3.7,4.9-4.5,7.9c-0.9,3.3-0.9,6.8-0.4,10.1c0.3,2.1,0.7,4.1,1.3,6.1C279.2,275.2,279.9,275,279.8,274.5L279.8,274.5
							z"/>
					</g>
				</g>
				<g>
					<g>
						<path class="st12" d="M285.3,273.3c-1-5.4-1.9-11.3,0.9-16.3c0.7-1.2,1.6-2.3,2.6-3.1c0.4-0.3-0.2-0.9-0.6-0.6
							c-2,1.6-3.3,3.9-4.1,6.3c-0.8,2.8-0.9,5.7-0.5,8.6c0.2,1.8,0.5,3.5,0.9,5.3C284.6,274,285.4,273.8,285.3,273.3L285.3,273.3z"
							/>
					</g>
				</g>
				<g>
					<g>
						<path class="st12" d="M299.1,278.8c1.9,2.4,3.8,4.8,5.7,7.2c0.3,0.4,0.9-0.2,0.6-0.6c-1.9-2.4-3.8-4.8-5.7-7.2
							C299.3,277.8,298.7,278.4,299.1,278.8L299.1,278.8z"/>
					</g>
				</g>
				<g>
					<g>
						<path class="st12" d="M299.2,286.3c0.8,1,1.5,2.1,2.3,3.1c0.1,0.2,0.3,0.3,0.5,0.1c0.2-0.1,0.3-0.4,0.1-0.5
							c-0.8-1-1.5-2.1-2.3-3.1c-0.1-0.2-0.3-0.3-0.5-0.1C299.1,285.8,299,286.1,299.2,286.3L299.2,286.3z"/>
					</g>
				</g>
			</g>
			<path class="st19" d="M292.4,107.1c0,0,5.7-26.7-30-10.9c0,0-1.4,3.6-2.7,8.5l-0.7,1l-6.4,9.2l5,1.7c-0.5,9.9,3,18.3,19.7,11.6
				l16.3,23.5l19-35.9L292.4,107.1z"/>
			<polygon class="st20" points="277.1,128.2 281.2,126.3 282.3,136.5 			"/>
			<path class="st13" d="M318.7,274c0,0-25-9.2-39.3-35.3l26.4-88.6c0,0-3.6-29.7,13.7-16.7C356,160.7,351,241.2,318.7,274z"/>
			<path d="M307.3,175.1c0,0,9.2,48.4-22.4,71.3c-31.6,22.9-58.8,0.4-63.2-7.1L307.3,175.1z"/>
			<g>
				<polygon points="242.6,157.5 239.3,160.4 227.7,135.4 232.1,134.8 				"/>
				<polygon class="st12" points="242.3,156.7 240.7,158 230.5,135.8 232.5,135.5 				"/>
			</g>
			<path d="M280.3,151.9l-9,35.5c-1.2-0.4-2.3-0.7-3.4-1c1.6-12.3,2.8-25.6,5.6-35.7C277.3,151.5,279.8,151.9,280.3,151.9z"/>
			<path class="st19" d="M304.7,130.3c0,0-16.9-6.4-29.4,9.9c-12.5,16.2-5.9,74.1-23.5,74.1c-16.8,0-9.4-33.7-12.8-50.8
				c-1.3-4.8,0.2-3-1.9-7.8c0.2-0.2,2.9-3.1,3.1-3.3c1.2-1.5,0.2-3.7-0.9-4.6c-0.8-0.6-3.7,1.8-4.8,2.6
				c-3.5-11.1-10.7-20.8-16.9-17.9c-6.7,3.2-11.2,16.2-5.6,28.1c0.3,0.6,1.6,3.9,1.9,4.5c-0.3,6.2-2,17-3.3,35.1
				c-1.7,24.1,8.1,43.8,27.9,50.1c19.8,6.4,61.7-4.9,67.6-63.6C312.1,128.2,304.7,130.3,304.7,130.3z"/>
			<path class="st14" d="M247,242.5c-6.1-0.7-11.5,2.2-12,6.3c0,0.1,0,0.1,0,0.2c1.2,0.5,2.4,1,3.6,1.4c5.1,1.6,11.6,2.1,18.6,0.9
				c0,0,0,0,0-0.1C257.7,247.1,253.1,243.2,247,242.5z"/>
			<path class="st13" d="M307.9,138.3l-11.7-9.2c-6,0.1-14.1,2.3-20.9,11.1c-9.1,11.8-8.1,45.5-13.6,63.1c1.8,2.7,11.9,11.8,35,17.9
				c4.1-7.8,7.9-19.3,9.4-34.4C308.9,159.7,308.8,145.6,307.9,138.3z"/>
			<g>
				<g>
					<path class="st12" d="M263.7,195.3c4.2,3.1,8.6,5.9,13.2,8.3c4.6,2.4,9.4,4.4,14.3,6.1c2.8,0.9,5.7,1.7,8.5,2.4
						c0.5,0.1,0.6-0.6,0.2-0.7c-5.1-1.2-10.1-2.8-14.9-4.8c-4.8-2-9.4-4.3-13.8-7.1c-2.5-1.5-4.9-3.2-7.2-4.9
						C263.7,194.4,263.3,195.1,263.7,195.3L263.7,195.3z"/>
				</g>
			</g>
			<g>
				<g>
					<path d="M260.4,121.8c1.2,0.3,2.6-0.3,3.3-1.4c0.2-0.4-0.4-0.8-0.6-0.4c-0.2,0.4-0.6,0.7-1.1,0.9c0,0,0,0,0,0c0,0-0.1,0-0.1,0
						c-0.1,0-0.1,0-0.2,0.1c-0.1,0-0.1,0-0.2,0c0,0-0.1,0-0.1,0c0,0,0,0,0,0c-0.1,0-0.3,0-0.4,0c0,0-0.1,0-0.1,0c0,0-0.1,0-0.1,0
						c0,0-0.1,0-0.2,0c-0.2,0-0.4,0.1-0.5,0.3C260.1,121.5,260.2,121.7,260.4,121.8L260.4,121.8z"/>
				</g>
			</g>
			<path class="st14" d="M277.6,114.9c-0.6-3.5-4-5.8-7.6-5.2c-3.6,0.6-6,3.9-5.4,7.3c0.6,3.5,4,5.8,7.6,5.2
				C275.8,121.6,278.2,118.4,277.6,114.9z"/>
			<polyline class="st15" points="258.8,105.7 252.5,114.9 257.6,116.7 			"/>
			<path d="M264.5,111.4c0.1,0.7-0.1,1.4-0.5,1.4c-0.3,0-0.7-0.5-0.7-1.3c-0.1-0.7,0.1-1.4,0.5-1.4
				C264.1,110.1,264.4,110.7,264.5,111.4z"/>
			<path d="M264.6,105.6c0,0.5-0.8,0.9-1.7,0.9c-0.9,0-1.6-0.4-1.6-0.9c0-0.5,0.8-0.9,1.7-0.9C263.9,104.7,264.6,105.1,264.6,105.6z
				"/>
			<g>
				<path d="M286.3,114.2c0.8,2.1-2.6,3.8-4.6,2.6c-2-1.2-2.4-3.8-2.6-6c-0.1-2.2-0.1-4.7-1.6-6.4c-1.4-1.6-3.6-2.2-5.7-2.6
					c-4-0.9-8.2-1.7-11.4-4.2c-3.6-2.9-5.3-7.9-4.2-12.3c1.1-4.4,4.8-8.1,9.3-9.5c3.3-1,6.9-0.9,10.1-2.3c4.5-2,6.3-5.4,11.2-6.4
					c4.7-1,12-0.8,13.8,3.5c1,2.3,3.5,4.3,5.3,6.1c3.1,2.9,6.8,2.4,11.1,2.7c6.7,0.4,10.8,6.3,13.3,12.4c1.9,4.6,2,10.4,6.1,13.5
					c2.1,1.6,4.8,2,7.2,3c2.8,1.1,5.3,3,6.7,5.6c1.4,2.6,1.6,5.8,0.1,8.3c-1.1,1.9-3.2,3.4-3.8,5.5c-0.5,1.5-0.1,3.1,0.3,4.7
					c0.9,3.3,2.2,6.6,2.8,9.9c0.6,3.4,0.4,7-1.4,10c-1.8,2.9-5.6,4.9-9.1,3.9c-1.6-0.5-2.9-1.5-4.5-1.9c-3.3-0.9-6.7,0.7-9.5,2.7
					c-2.8,1.9-5.5,4.2-8.8,4.8c-3.5,0.6-7-0.7-10.2-2.3c-3.3-1.7-6.6-4-7.5-7.5c-0.7-2.8,0.5-5.7,1.2-8.5c0.7-2.8,0.7-6.2-1.6-8
					c-1.7-1.4-4.1-1.4-6.2-2.2c-3.8-1.4-6.2-5.5-5.6-9.4c0.2-1.5,0.9-3,1-4.5c0.1-1.5-0.7-3.3-2.3-3.6"/>
			</g>
			<path class="st19" d="M289.9,113.1c0.3-3.1-2.1-5.8-5.2-6c-3.2-0.3-6,2-6.3,5c-0.3,3.1,2.1,5.8,5.2,6
				C286.9,118.4,289.7,116.2,289.9,113.1z"/>
			<g>
				<g>
					<path d="M285.8,110.1c-1.9-0.5-4.2,0.8-4.5,2.8c0,0.2,0.1,0.4,0.3,0.5c0.2,0,0.4-0.1,0.5-0.3c0.3-1.6,2.1-2.7,3.6-2.3
						C286.1,110.9,286.3,110.2,285.8,110.1L285.8,110.1z"/>
				</g>
			</g>
		</g>
		<g>
			<path class="st21" d="M244.3,61h-43.7c-2.7,0-4.9,2.2-4.9,4.9v23.6c0,2.7,2.2,4.9,4.9,4.9h26.5l6.2,9.5v-9.5h11
				c2.7,0,4.9-2.2,4.9-4.9V65.9C249.2,63.2,247,61,244.3,61z"/>
			<path d="M211.5,77.7c0,1.4-1.1,2.5-2.5,2.5c-1.4,0-2.5-1.1-2.5-2.5c0-1.4,1.1-2.5,2.5-2.5C210.4,75.2,211.5,76.3,211.5,77.7z"/>
			<path d="M224.9,77.7c0,1.4-1.1,2.5-2.5,2.5c-1.4,0-2.5-1.1-2.5-2.5c0-1.4,1.1-2.5,2.5-2.5C223.8,75.2,224.9,76.3,224.9,77.7z"/>
			<path d="M238.3,77.7c0,1.4-1.1,2.5-2.5,2.5c-1.4,0-2.5-1.1-2.5-2.5c0-1.4,1.1-2.5,2.5-2.5C237.2,75.2,238.3,76.3,238.3,77.7z"/>
		</g>
	</g>
</g>
</svg>
