<svg version="1.1" class="tutos-illu" xmlns="http://www.w3.org/2000/svg" xmlns:xlink="http://www.w3.org/1999/xlink"
	 x="0px"
	 y="0px" viewBox="0 0 610 515"
	 style="enable-background:new 0 0 610 515;" xml:space="preserve">
<style type="text/css">
	.tutos-illu .st0{opacity:0.5;fill:url(#webart-tutos-bg);}
	.tutos-illu .st1{opacity:0.25;fill:#888799;enable-background:new    ;}
	.tutos-illu .st2{fill:none;stroke:#0BD9A9;stroke-width:1.9076;stroke-miterlimit:10;}
	.tutos-illu .st3{fill:none;stroke:#31A6E0;stroke-width:1.6901;stroke-miterlimit:10;}
	.tutos-illu .st4{fill:none;stroke:#304D52;stroke-width:3.2962;stroke-miterlimit:10;}
	.tutos-illu .st5{fill:#31A6E0;}
	.tutos-illu .st6{fill:none;stroke:#304D52;stroke-width:2.2135;stroke-miterlimit:10;}
	.tutos-illu .st7{fill:none;stroke:#FADF50;stroke-width:5.0192;stroke-miterlimit:10;}
	.tutos-illu .st8{fill:#0BD9A9;}
	.tutos-illu .st9{fill:#FADF50;}
	.tutos-illu .st10{fill:none;stroke:#31A6E0;stroke-width:2.08;stroke-miterlimit:10;}
	.tutos-illu .st11{fill:none;stroke:#0BD9A9;stroke-width:3.4358;stroke-miterlimit:10;}
	.tutos-illu .st12{fill:#0B1C30;}
	.tutos-illu .st13{fill:#FFFFFF;}
	.tutos-illu .st14{fill:#EEEFF2;}
	.tutos-illu .st15{fill:#304D52;}
	.tutos-illu .st16{opacity:0.1;}
	.tutos-illu .st17{opacity:0.2;}
	.tutos-illu .st18{fill:#57A0A0;}
	.tutos-illu .st19{fill:#FFF5FD;}
	.tutos-illu .st20{fill:#F0E8FF;}
</style>
<g class="tutos">

		<linearGradient id="webart-tutos-bg" gradientUnits="userSpaceOnUse" x1="252.122" y1="398.4393" x2="252.122" y2="-33.6519" gradientTransform="matrix(0.9486 -0.121 0.1424 1.1162 20.6159 93.2447)">
		<stop  offset="0" style="stop-color:#9AFFD3"/>
		<stop  offset="1" style="stop-color:#89D8F6"/>
	</linearGradient>
	<path class="st0" d="M400.5,81.5C322.6-94,122.7,134.1,114.7,255.7c-8.1,123.6,219.8,284.3,317.7,231.5
		C508.8,446,447.3,187,400.5,81.5z"/>
	<g>
		<path class="Tracé_357_2_ st1" d="M553.6,419.3c0-18.2-101.9-25.1-227.6-25.1c-125.7,0-227.6,7-227.6,25.1
			c0,18.2,101.9,40.8,227.6,40.8S553.6,437.5,553.6,419.3z"/>
		<path class="st2" d="M425.6,45.8c-7.2-3.2-15.6-0.1-18.9,7.1c-3.2,7.2-0.1,15.6,7.1,18.9c7.2,3.2,15.6,0.1,18.9-7.1
			C436,57.5,432.8,49,425.6,45.8z"/>
		<path class="st3" d="M234.3,43.6c-11.7-5.3-25.5-0.1-30.8,11.6c-5.3,11.7-0.1,25.5,11.6,30.8c11.7,5.3,25.5,0.1,30.8-11.6
			C251.2,62.6,246,48.9,234.3,43.6z"/>
		<path class="st4" d="M595.3,101.5c-8.3-3.8-18.1-0.1-21.8,8.2c-3.8,8.3-0.1,18.1,8.2,21.8c8.3,3.8,18.1,0.1,21.8-8.2
			C607.3,115,603.6,105.2,595.3,101.5z"/>
		<path class="st5" d="M376.5,85.5c-3-1.4-6.6,0-7.9,3c-1.4,3,0,6.6,3,7.9c3,1.4,6.6,0,7.9-3C380.8,90.5,379.5,86.9,376.5,85.5z"/>
		<path class="st6" d="M296.6,316c-3.3-0.3-6.2,2-6.6,5.3c-0.3,3.3,2,6.2,5.3,6.6c3.3,0.3,6.2-2,6.6-5.3
			C302.3,319.3,299.9,316.4,296.6,316z"/>
		<path class="st7" d="M106.3,79c-4.1-0.4-7.8,2.6-8.2,6.7c-0.4,4.1,2.6,7.8,6.7,8.2c4.1,0.4,7.8-2.6,8.2-6.7
			C113.4,83.2,110.4,79.5,106.3,79z"/>
		<path class="st5" d="M559.3,211.4c-1.4,2-0.9,4.8,1.1,6.3c2,1.4,4.8,0.9,6.3-1.1c1.4-2,0.9-4.8-1.1-6.3
			C563.5,208.9,560.7,209.4,559.3,211.4z"/>
		<path class="st8" d="M5.9,352.8c-1.7,2.4-1.1,5.7,1.3,7.3c2.4,1.7,5.7,1.1,7.3-1.3c1.7-2.4,1.1-5.7-1.3-7.3
			C10.9,349.8,7.6,350.4,5.9,352.8z"/>
		<path class="st8" d="M73.4,115.8c-1.7,2.4-1.1,5.7,1.3,7.3c2.4,1.7,5.7,1.1,7.3-1.3c1.7-2.4,1.1-5.7-1.3-7.3
			C78.4,112.8,75.1,113.4,73.4,115.8z"/>
		<path class="st9" d="M297.1,204.8c-1.8-7.2-9.1-11.7-16.3-9.9c-7.2,1.8-11.7,9.1-9.9,16.3c1.8,7.2,9.1,11.7,16.3,9.9
			C294.4,219.3,298.9,212,297.1,204.8z"/>
		<path class="st9" d="M64.6,326.3c-1.8-7.2-9.1-11.7-16.3-9.9c-7.2,1.8-11.7,9.1-9.9,16.3c1.8,7.2,9.1,11.7,16.3,9.9
			C61.9,340.8,66.4,333.5,64.6,326.3z"/>
		<path class="st8" d="M555.1,234.2c-1.7-6.8-8.6-11-15.4-9.4c-6.8,1.7-11,8.6-9.4,15.4c1.7,6.8,8.6,11,15.4,9.4
			C552.6,248,556.8,241.1,555.1,234.2z"/>
		<path class="st10" d="M505.7,141.1c-1.4-5.6-7.2-9.2-12.8-7.8c-5.6,1.3-9,7-7.6,12.6c1.4,5.6,7.2,9.2,12.8,7.8
			C503.7,152.4,507.1,146.8,505.7,141.1z"/>
		<path class="st11" d="M484.4,349c-4.9-0.5-9.4,3.1-9.9,8c-0.5,4.9,3.1,9.4,8,9.9c4.9,0.5,9.4-3.1,9.9-8
			C493,354,489.4,349.6,484.4,349z"/>
	</g>
	<g>
		<path class="st8" d="M455.8,314.1l-3.9,78.3c0,0,25.9-2.8,28.2,5.5h-61.5c0,0,4.5-5.5,26.8-5.5l-5.2-78.3H455.8z"/>
		<polygon class="st12" points="453.7,330.9 442.9,349 440.9,327 		"/>
		<g>
			<path class="st9" d="M408.6,258.5c27.5-30,22.4-60.5,45.8-70.8c18.1-8,42.8-2.9,52.8,34.5c13.9,51.5,4.3,100.2-54.2,108.8
				c-25.8,3.8-50-6.1-57-19.4C389,298.3,384.8,284.6,408.6,258.5z"/>
		</g>
	</g>
	<g>
		<path class="st8" d="M142.1,329.4l3.9,78.3c0,0-25.9-2.8-28.2,5.5h61.5c0,0-4.5-5.5-26.8-5.5l5.2-78.3H142.1z"/>
		<polygon points="144.2,346.2 155,364.3 157,342.3 		"/>
		<g>
			<path class="st9" d="M189.3,273.8c-27.5-30-22.4-60.5-45.8-70.8c-18.1-8-42.8-2.9-52.8,34.5c-13.9,51.5-4.3,100.2,54.2,108.7
				c25.8,3.8,50-6.1,57-19.4C208.9,313.7,213.1,299.9,189.3,273.8z"/>
		</g>
	</g>
	<g>
		<g>
			<polygon class="st13" points="451.5,385.9 456,395 451.5,398.2 449.2,395.1 448.3,400.3 421.6,414.3 434.1,400.6 430.6,392.7
				"/>
			<polygon class="st13" points="407.2,382 411.5,391.2 406.9,394.3 404.7,391.1 403.6,396.4 376.6,409.7 389.4,396.3 386.2,388.4
							"/>
			<path class="st5" d="M471.1,263.8c-1.3,33.4-43.4,15.2-16.9,122.2c0,0-12,9.6-25,8.1c0,0-36.9-94.2-14.4-108.6
				c0,0-35.1,8.2-5.1,99.3c0,0-12.8,8.1-26.2,6.3c0,0-19.6-38.3-22.2-70.5C359.1,292.7,472.4,230.4,471.1,263.8z"/>
			<g>
				<g>
					<path class="st14" d="M448.8,388.3c-1.6-4.6-2.9-9.2-4.1-13.9c-1.3-5.4-2.5-10.8-3.4-16.2c-1-5.7-1.8-11.5-2.4-17.3
						c-0.6-5.5-0.9-11-1-16.6c-0.1-4.9,0.1-9.8,0.7-14.6c0.1-0.5,0.1-1.1,0.2-1.6c0.1-0.4-0.6-0.6-0.7-0.2
						c-0.7,4.7-0.9,9.5-0.9,14.3c0,5.5,0.3,11.1,0.8,16.6c0.5,5.8,1.3,11.5,2.2,17.2c0.9,5.5,2,11,3.3,16.5
						c1.2,4.8,2.5,9.6,4.1,14.3c0.2,0.5,0.4,1,0.5,1.5C448.3,388.9,449,388.7,448.8,388.3L448.8,388.3z"/>
				</g>
			</g>
		</g>
		<g>
			<g>
				<path class="st8" d="M436.7,183.7c0,0-15.4,12.4-37.1,6.7c-17.3-4.6-30.8-16.2-39.2-2.8c-4.7,7.6,4.3,24.2,16.4,33.4
					c8,6.1-8.4,22.7-29-1.7c-21.6-25.7-10.1-43.6-5-50.4c6.5-8.6,29.5-20,58.3-3.3C433.5,184.4,436.7,183.7,436.7,183.7z"/>
				<path class="st15" d="M374.2,182c6.5,1.5,16.2,5.9,25.5,8.4c21.6,5.7,36.6-5.3,36.6-5.3s15.3-10.5-36-22.4
					c-7.9-1.8-12.6-3.3-18.6-4.5c0,0-3.2,4.6-5.5,11.6C374.2,175.7,374.2,182,374.2,182z"/>
				<path class="st16" d="M347.9,166c1.3,2.3-0.3,6.7-3.6,9.7c-2.4,2.2-5.1,3.2-6.8,2.6c1.6-4.1,3.8-7.3,5.4-9.4c1-1.3,2.3-2.7,4-4
					C347.3,165.2,347.6,165.6,347.9,166z"/>
				<path class="st15" d="M374.2,182c0,0,29.1,9.4,38.2,17.7c0,0,15,14.4,14.4,13.4c-0.6-1-20.5-35.6-20.5-35.6l-29.4,2.5"/>
				<g>
					<g>
						<path class="st14" d="M380.4,183.5c0.5-6.4,2.3-12.6,5.1-18.3c0.9-1.8,1.8-3.5,2.8-5.1c0.2-0.4-0.3-0.7-0.6-0.3
							c-3.5,5.7-6.1,12-7.4,18.6c-0.3,1.7-0.5,3.4-0.7,5.1C379.8,183.9,380.4,183.9,380.4,183.5L380.4,183.5z"/>
					</g>
				</g>
			</g>
			<path class="st15" d="M403.8,213.3l6.9,32.6c0,0,39.5,11.5,58.6-7.3c0,0,12-61.6-37.5-68C396.3,166,395.6,181.3,403.8,213.3z"/>
			<path class="st8" d="M470.5,225.3c0,0-10.6,4.6-26.7,3.2l0.4,19.3l24.4,0.9C468.6,248.8,470.5,235.9,470.5,225.3z"/>
			<path class="st8" d="M417.9,175.4l-1.2-6c0,0-10.7,2.9-11.4-5.8c-1.3-15.1-2.6-19.2,3.8-24.3c6.4-5.1,24.1,0.3,24.3,18.5l1,14.4
				c0,0-3.2,3.1-7.9,4.2C421.7,177.5,417.9,175.4,417.9,175.4z"/>
			<path d="M416.4,153c0.1,0.6-0.1,1.1-0.4,1.1c-0.3,0-0.6-0.4-0.6-1.1c-0.1-0.6,0.1-1.1,0.4-1.1C416.1,151.9,416.4,152.4,416.4,153
				z"/>
			<path d="M407.9,153.7c0.1,0.6-0.1,1.1-0.4,1.1c-0.3,0-0.6-0.4-0.6-1.1c-0.1-0.6,0.1-1.1,0.4-1.1
				C407.6,152.6,407.9,153.1,407.9,153.7z"/>
			<path d="M416.7,169.4c0,0,5.1-1.1,8.6-5.1l-7.7,9.9L416.7,169.4z"/>
			<path class="st16" d="M428.9,156.4c-0.5-2.6-3.2-4.3-6-3.9c-2.9,0.4-4.8,2.9-4.3,5.5c0.5,2.6,3.2,4.3,6,3.9
				C427.4,161.4,429.4,158.9,428.9,156.4z"/>
			<path class="st16" d="M407.4,158.6c-0.4-1.5-1.5-2.7-2.8-3.3c0.2,2.4,0.5,5.1,0.8,8.4c0,0.1,0,0.2,0.1,0.3
				C407,162.7,407.9,160.6,407.4,158.6z"/>
			<polygon class="st17" points="410,149.5 411.5,149.3 412.9,157 409.3,157.5 			"/>
			<path d="M416.6,148.2c0,0.4-0.7,0.7-1.5,0.7c-0.8,0-1.4-0.4-1.4-0.8c0-0.4,0.7-0.7,1.5-0.7C416,147.4,416.6,147.8,416.6,148.2z"
				/>
			<path d="M408.2,148.7c0.2,0.4-0.2,0.9-0.9,1.3c-0.7,0.3-1.5,0.3-1.7-0.1c-0.2-0.4,0.2-0.9,0.9-1.3
				C407.2,148.3,408,148.3,408.2,148.7z"/>
			<g>
				<path d="M428.2,155.1c-1.4,0.7-3.3-0.2-4.1-1.4c-0.9-1.2-1-2.8-1.3-4.2c-0.3-1.4-0.8-3-2.1-3.8c-1.2-0.8-2.8-0.9-4.3-0.8
					c-5.2,0.4-10.6,2.7-15.5,0.9c-4.2-1.5-6.6-5.7-7.3-9.8c-0.4-2.2-0.4-4.5,0.6-6.4c1-2,3.2-3.6,5.6-3.6c5.1,0.1,7.8,6.6,12.8,6.6
					c2,0,3.8-1.1,5.6-1.9c2.2-1.1,4.7-1.9,7.2-1.6c3.3,0.4,6,3.1,6.3,6.1c0.1,1.5-0.3,3.2,0.7,4.5c1.3,1.7,4.4,1.5,5.9,3.1
					c0.9,0.9,1.1,2.4,0.6,3.6c-0.4,1.2-1.4,2.2-2.4,3.1c-0.4,0.4-0.9,0.7-1.2,1.2c-0.5,0.9-0.3,2-0.4,3.1c-0.1,1.6-1.2,3.2-2.9,3.6
					c-1.7,0.4-3.7-1.1-3.2-2.7"/>
			</g>
			<path class="st8" d="M438.3,152.7c-0.7-2.5-3.4-4-6.1-3.4c-2.7,0.6-4.4,3.1-3.7,5.6c0.7,2.5,3.4,4,6.1,3.4
				C437.3,157.7,438.9,155.2,438.3,152.7z"/>
			<g>
				<path d="M413.8,160.6c-0.6,0.1-1.5,0.1-2-0.4c-0.2-0.2-0.5-0.5-0.1-0.8c0.4-0.3,1,0,1.5-0.1c0.5-0.1,0.9-0.9,1.6-0.9
					c0.5,0.1,0.8,0.3,0.8,0.6C415.6,159.6,415,160.3,413.8,160.6"/>
			</g>
			<g>
				<g>
					<path d="M434.4,151.8c-1.5-0.2-3.2,0.9-3.3,2.5c0,0.2,0.2,0.3,0.3,0.3c0.2,0,0.3-0.2,0.3-0.3c0-0.1,0.1-0.3,0.1-0.4
						c0-0.1,0.1-0.3,0.2-0.4c0.1-0.2,0.4-0.4,0.6-0.6c0.5-0.4,1.1-0.5,1.8-0.5c0.2,0,0.3-0.2,0.3-0.3
						C434.7,151.9,434.5,151.8,434.4,151.8L434.4,151.8z"/>
				</g>
			</g>
			<g>
				<g>
					<path class="st14" d="M440.4,203.8c1.2,6.2,2.1,12.4,2.8,18.7c0.2,1.8,0.4,3.5,0.5,5.3c0,0.4,0.7,0.4,0.6,0
						c-0.5-6.3-1.3-12.6-2.4-18.8c-0.3-1.8-0.6-3.6-1-5.3C441,203.2,440.3,203.4,440.4,203.8L440.4,203.8z"/>
				</g>
			</g>
			<g>
				<g>
					<path class="st14" d="M443.5,222.4c3.6,0.1,7.3,0,10.9-0.6c3.8-0.6,7.6-1.4,11.2-2.8c1.8-0.7,3.5-1.5,5-2.7
						c0.3-0.3-0.1-0.7-0.5-0.5c-1.3,1-2.8,1.8-4.3,2.4c-1.7,0.7-3.5,1.2-5.3,1.7c-3.5,0.9-7.1,1.6-10.7,1.8
						c-2.1,0.1-4.2,0.1-6.3,0.1C443.1,221.7,443.1,222.4,443.5,222.4L443.5,222.4z"/>
				</g>
			</g>
			<g>
				<g>
					<path class="st14" d="M415.8,177.5c3.3,1.4,6.9,2,10.5,1.7c3.5-0.3,7-1.3,10.1-3.1c1.7-1,3.2-2.2,4.5-3.7
						c0.3-0.3-0.2-0.8-0.5-0.5c-2.3,2.5-5.2,4.3-8.4,5.4c-3.3,1.1-6.8,1.5-10.2,1.1c-1.9-0.2-3.8-0.7-5.6-1.5
						C415.8,176.8,415.5,177.4,415.8,177.5L415.8,177.5z"/>
				</g>
			</g>
			<g>
				<g>
					<path class="st14" d="M402.5,185.8c-1.8,3.4-2.7,7.1-2.7,10.9c0,1.1,0.1,2.1,0.3,3.2c0.1,0.4,0.7,0.2,0.6-0.2
						c-0.7-4.7,0.2-9.5,2.3-13.6C403.3,185.7,402.7,185.4,402.5,185.8L402.5,185.8z"/>
				</g>
			</g>
		</g>
	</g>
	<g>
		<g>
			<path d="M239.3,121.4c-1-5.2-7.7-8.1-12.5-8.5c-4.8-0.4-11.1,1.4-14.3,4.5c-2.2,2.1-3.7,4.9-6.7,6c-2.7,1-6,0.4-8.5,1.7
				c-6,3-1.4,12.2-6.8,15.9c-2,1.3-4.9,1.7-6.3,3.4c-1.9,2.4,0.4,5.7-0.3,8.5c-1,4.5-8.8,6.3-9.5,10.8c-0.6,4.2,5,6.9,7.3,10.6
				c1.1,1.7,1.4,3.7,2.8,5.3c1.8,2.1,5,3,8,3.6c2.6,0.5,5.3,1,8,0.7c9.3-0.9,15.4-9.6,24.7-10.2c4.1-0.3,8.2,1.1,12.2,0.5
				c5.5-0.8,9.7-5.5,8.9-10c-0.4-2.4-2-4.8-1.7-7.2c0.3-3.3,4-6,4.4-9.3c0.5-4.2-5.6-8.4-5.2-12.6c0.3-2.5,1.5-4.7,2.1-7.2
				c1.3-4.9-2.5-7.3-7.8-6.6"/>
		</g>
		<path class="st8" d="M230.7,205l7.6,32.3c0,0-37.9,2.1-57-16.2c0,0-14.3-72.3,30.4-68.3C246.3,155.9,246.6,173.8,230.7,205z"/>
		<g>
			<path class="st9" d="M225,158.7c0,0,22,6.7,39.2-2.8c17.2-9.5,13.8-31.4,11.2-38.8l15.6-9c0,0,9.5,15.2,6.6,35.6
				c-3.4,23.6-25.2,47.6-66.1,41.1L225,158.7z"/>
			<path class="st9" d="M293.3,112.5c-2.1-4.9-5.9-11.3-8.4-10.6c-0.5,0.1-0.9,0.5-1.2,1c-0.8-1-1.8-1.7-2.9-1.3
				c-0.8,0.3-1.2,1.1-1.4,1.9c-0.8-0.8-1.7-1.5-2.7-1.1c-0.9,0.3-1.3,1.1-1.5,2c-0.8-0.4-1.9-0.7-2.8,0c-1.2,0.9-0.6,2.5,0.5,5.1
				c0.9,2.2,2.4,6.4,3.3,9.9"/>
			<g>
				<g>
					<path d="M277.6,108.9c-0.5-1.6-1.3-3.2-2.3-4.6c-0.2-0.2-0.5,0-0.4,0.2c0.9,1.4,1.7,2.9,2.2,4.5
						C277.2,109.3,277.7,109.2,277.6,108.9L277.6,108.9z"/>
				</g>
			</g>
			<g>
				<g>
					<path d="M281.7,107.9c-0.5-1.6-1.3-3.2-2.2-4.6c-0.2-0.2-0.5,0-0.4,0.2c0.9,1.4,1.7,2.9,2.2,4.5
						C281.3,108.2,281.7,108.1,281.7,107.9L281.7,107.9z"/>
				</g>
			</g>
			<g>
				<g>
					<path d="M286.1,107.1c-0.5-1.6-1.3-3.2-2.3-4.6c-0.2-0.2-0.5,0-0.4,0.2c0.9,1.4,1.7,2.9,2.2,4.5
						C285.8,107.5,286.2,107.4,286.1,107.1L286.1,107.1z"/>
				</g>
			</g>
			<path class="st8" d="M227.3,184.3c26.2,4.8,37.8-1.4,37.8-1.4c-7.6-12-6.5-24.6-6.5-24.6c-16.3,2.8-23-1.9-33.8-3.1"/>
			<g>
				<g>
					<path class="st14" d="M251.2,159.4c-0.4,3.4-0.4,6.9,0.1,10.3c0.5,3.5,1.5,6.8,2.9,10c0.8,1.8,1.8,3.5,2.9,5.1
						c0.2,0.3,0.8,0,0.6-0.3c-3.9-5.6-5.9-12.5-6.1-19.3c0-1.9,0.1-3.9,0.3-5.8C251.9,159,251.3,159,251.2,159.4L251.2,159.4z"/>
				</g>
			</g>
			<path class="st16" d="M294.3,150.5c-2.8,0.1-5.9,3.5-7,7.6c-0.8,3,0.2,5.8,1.7,6.9c2.5-3.7,4.2-6.8,5.2-9.1
				c0.7-1.4,1.6-3.3,1.9-5.3C295.7,150.4,294.8,150.5,294.3,150.5z"/>
		</g>
		<g>
			<path class="st9" d="M202.9,156.1c0,0-15.5-0.5-28.6-14.7c-13.1-14.2-2.5-33.9,2.5-40.2L165.1,88c0,0-14.1,11.6-18.3,31.7
				c-4.8,23.4,7.7,52.7,48.7,59L202.9,156.1z"/>
			<path class="st9" d="M161.5,91.5c3.6-4.1,9.4-8.9,11.6-7.5c0.4,0.3,0.7,0.8,0.8,1.3c1.1-0.7,2.3-1.1,3.2-0.4
				c0.7,0.5,0.8,1.4,0.7,2.2c1.1-0.5,2.1-0.9,2.9-0.2c0.7,0.6,0.9,1.4,0.7,2.3c0.9-0.2,2-0.1,2.6,0.8c0.8,1.2-0.3,2.5-2.2,4.7
				c-1.6,1.8-4.4,5.4-6.5,8.4"/>
			<g>
				<g>
					<path d="M178,93c1-1.3,2.2-2.6,3.6-3.6c0.2-0.2,0-0.5-0.2-0.4c-1.4,1.1-2.7,2.3-3.7,3.7C177.4,93,177.8,93.2,178,93L178,93z"/>
				</g>
			</g>
			<g>
				<g>
					<path d="M170.5,88.7c1-1.3,2.2-2.6,3.6-3.6c0.2-0.2,0-0.5-0.2-0.4c-1.4,1.1-2.7,2.3-3.7,3.7C169.9,88.7,170.3,88.9,170.5,88.7
						L170.5,88.7z"/>
				</g>
			</g>
			<g>
				<g>
					<path d="M174.5,90.8c1-1.3,2.2-2.6,3.6-3.6c0.2-0.2,0-0.5-0.2-0.4c-1.4,1.1-2.7,2.3-3.7,3.8C173.9,90.8,174.3,91,174.5,90.8
						L174.5,90.8z"/>
				</g>
			</g>
			<path class="st8" d="M200.2,179.3c-26.4-2.8-35.9-13-35.9-13c11.3-9,14.6-20.7,14.6-20.7c10.7,6.6,18.2,3.3,33.7,7.1"/>
			<g>
				<g>
					<path class="st14" d="M184.8,148.4c-0.7,3.3-1.9,6.5-3.4,9.6c-1.6,3.1-3.6,5.9-6,8.4c-1.3,1.4-2.8,2.7-4.4,3.9
						c-0.3,0.2,0,0.8,0.3,0.6c2.8-2.1,5.3-4.6,7.4-7.5c2.1-2.8,3.7-5.9,5-9.2c0.7-1.8,1.3-3.7,1.7-5.6
						C185.5,148.2,184.9,148,184.8,148.4L184.8,148.4z"/>
				</g>
			</g>
			<path class="st16" d="M147.7,128.2c2.7-0.8,4.7-4.9,4.5-9.1c-0.1-3.1-1.9-5.5-3.6-6.2c-1.3,3.1-2.9,11.9-2.8,15.7
				C146.4,128.6,147.2,128.3,147.7,128.2z"/>
		</g>
		<g>
			<g>
				<path class="st14" d="M229.7,157.6c-3.2,1.8-7,2.5-10.7,2.3c-3.5-0.3-6.8-1.5-9.6-3.5c-1.5-1.1-2.9-2.5-4-4
					c-0.2-0.3-0.8,0-0.6,0.3c2,2.8,4.9,5,8.1,6.4c3.4,1.5,7.3,1.8,11,1.2c2.1-0.4,4.2-1.1,6.1-2.1
					C230.4,157.9,230.1,157.4,229.7,157.6L229.7,157.6z"/>
			</g>
		</g>
		<g>
			<path class="st9" d="M226.1,157.1l0.5-3.9c0,0,9,2.9,10-5.1c1.6-13.9,2.9-17.6-2.6-22.5c-5.5-4.9-21.3-0.3-21.7,11.5l-1,17
				c0,0,2,2,6.5,2.9C222.3,157.9,226.1,157.1,226.1,157.1z"/>
			<path d="M227,138.1c-0.1,0.6,0,1,0.3,1.1c0.3,0,0.6-0.4,0.7-0.9c0.1-0.6,0-1-0.3-1.1C227.5,137.1,227.2,137.5,227,138.1z"/>
			<path d="M234.5,139.4c-0.1,0.6,0,1,0.3,1.1c0.3,0,0.6-0.4,0.7-0.9c0.1-0.6,0-1-0.3-1.1C234.9,138.4,234.6,138.8,234.5,139.4z"/>
			<path d="M226.5,153.2c0,0-4.8-1.2-7.8-5l7.3,8.9L226.5,153.2z"/>
			<g>
				<g>
					<path d="M230.4,144.2c-0.4,0-0.8,0-1.1-0.2c-0.3-0.2-0.6-0.4-0.7-0.8c-0.1-0.1-0.3-0.2-0.4-0.1c-0.1,0.1-0.2,0.2-0.1,0.4
						c0.4,0.9,1.4,1.4,2.3,1.3c0.2,0,0.3-0.1,0.3-0.3C230.6,144.4,230.5,144.2,230.4,144.2L230.4,144.2z"/>
				</g>
			</g>
			<path class="st16" d="M215.9,139.7c0.7-2.6,3.6-4.1,6.3-3.4c2.7,0.7,4.3,3.4,3.6,5.9c-0.7,2.6-3.6,4.1-6.3,3.4
				C216.7,144.9,215.1,142.2,215.9,139.7z"/>
			<path class="st16" d="M234.8,143.4c0.4-1.4,1.4-2.4,2.6-3c-0.3,2.2-0.6,4.7-0.9,7.7c0,0.1,0,0.2-0.1,0.3
				C235,147.1,234.3,145.2,234.8,143.4z"/>
			<polygon class="st17" points="233.1,135.4 231.8,135.1 229.8,142 232.9,142.8 			"/>
			<path d="M227.4,133.6c0,0.4,0.5,0.7,1.2,0.8c0.7,0.1,1.3-0.2,1.3-0.6c0-0.4-0.5-0.7-1.2-0.8C228,133,227.4,133.2,227.4,133.6z"/>
			<path d="M234.8,134.8c-0.2,0.3,0.1,0.9,0.7,1.2c0.6,0.4,1.2,0.4,1.5,0.1c0.2-0.3-0.1-0.9-0.7-1.2
				C235.7,134.5,235,134.5,234.8,134.8z"/>
			<path class="st9" d="M207.4,137.8c0.7-2.3,3.1-3.6,5.5-3c2.4,0.6,3.8,3,3.1,5.2c-0.7,2.3-3.1,3.6-5.5,3
				C208.1,142.4,206.7,140,207.4,137.8z"/>
			<g>
				<g>
					<path d="M211.2,137.3c1.2,0.1,2.2,1.3,2,2.5c0,0.2,0,0.3,0.2,0.3c0.1,0,0.3,0,0.3-0.2c0.3-1.6-1-3.1-2.5-3.2
						c-0.2,0-0.3,0.1-0.3,0.3C210.9,137.1,211,137.2,211.2,137.3L211.2,137.3z"/>
				</g>
			</g>
			<g>
				<path d="M235.5,126.4c-0.7,2.2-3.2,3.5-5.6,3.9c-2.4,0.4-4.9,0.1-7.3,0.6c-2.4,0.5-4.9,2-5.2,4.3c-0.1,0.6,0,1.3-0.4,1.8
					c-0.4,0.6-1.2,0.8-1.9,0.7c-0.7-0.2-1.3-0.6-1.8-1.2c-1.2-1.4-1.5-3.4-1.1-5.2c0.4-1.8,1.4-3.4,2.7-4.8c2.4-2.6,5.8-4.5,9.5-4.8
					c3.7-0.3,7.5,1,9.9,3.7"/>
			</g>
		</g>
		<g>
			<polygon class="st13" points="182.9,404.4 180.7,414.3 185.8,416.4 187.3,412.9 189.5,417.8 218.8,425.5 203.4,415 204.9,406.6
							"/>
			<polygon class="st13" points="242.8,405.8 241.4,415.8 246.7,417.5 247.9,413.9 250.5,418.6 280.3,424 264.1,414.7 264.8,406.2
							"/>
			<path class="st15" d="M234.5,219.3c0,0-29.2,14.6-53.1,1.6c0,0-9.4,21.2-1.4,50.7c8,29.4,18.3,81.2,1.6,134.6
				c0,0,12.6,6.3,23.9,2.5c0,0,25.2-57,23.7-94c0,0,20.3,33.5,11.6,92.4c0,0,13,4.8,24.6,0.7c0,0,8.7-27.4,9.4-56.8
				c0.7-29.4-6.5-62.3-17.4-83.5C246.6,246.3,237.2,225.7,234.5,219.3z"/>
			<g>
				<g>
					<path class="st14" d="M186.4,224.9c-3.1,13.5-1.4,27.4,1.3,40.8c2.8,14,6.9,27.9,9,42c1.4,9.4,2.4,18.9,2.7,28.3
						c0.4,9.7-0.2,19.5-1.5,29.1c-1.8,12.6-4.8,25-8.4,37.2c-0.5,1.8-1.1,3.7-1.7,5.5c-0.1,0.4,0.5,0.6,0.6,0.2
						c3.9-12.7,7.4-25.6,9.5-38.8c1.6-9.7,2.4-19.6,2.2-29.4c-0.1-9.1-1-18.1-2.2-27.1c-1.7-13.8-5.3-27.3-8.3-40.9
						c-3-13.7-5.6-27.9-3.5-41.9c0.2-1.7,0.6-3.3,0.9-5C187.2,224.6,186.5,224.4,186.4,224.9L186.4,224.9z"/>
				</g>
			</g>
			<path d="M243.4,374.4c0,0,6.3-67.9-23.4-113c0,0,8.7,20,9.7,54.3c0,0,2.2,5.1,4.4,10.4C241.7,343.7,243.4,374.4,243.4,374.4z"/>
			<g>
				<g>
					<path class="st14" d="M201.6,226.1c-2.7,3.9-7.1,6.6-11.8,7.5c-1.3,0.3-2.7,0.4-4.1,0.4c-0.4,0-0.4,0.6,0,0.6
						c5,0.1,10-1.8,13.7-5.1c1-0.9,1.9-2,2.7-3.1C202.4,226,201.9,225.7,201.6,226.1L201.6,226.1z"/>
				</g>
			</g>
			<g>
				<g>
					<path class="st14" d="M206.6,226.9c-1.6,2.9-3.9,5.4-6.6,7.2c-2.7,1.8-5.8,3-9,3.6c-1.8,0.4-3.7,0.5-5.5,0.5
						c-0.4,0-0.4,0.6,0,0.6c3.4,0,6.7-0.5,9.9-1.7c3.1-1.1,6-2.9,8.3-5.3c1.4-1.4,2.5-3,3.5-4.7
						C207.3,226.8,206.8,226.5,206.6,226.9L206.6,226.9z"/>
				</g>
			</g>
			<g>
				<g>
					<path class="st14" d="M179.2,228.7c0.9,0.7,2,1,3.1,1.2c0.2,0,0.3-0.2,0.3-0.3c0-0.2-0.1-0.3-0.3-0.3c-1-0.1-1.9-0.5-2.7-1.1
						c-0.1-0.1-0.4,0-0.4,0.1C179,228.4,179.1,228.6,179.2,228.7L179.2,228.7z"/>
				</g>
			</g>
			<g>
				<g>
					<path class="st14" d="M181.3,232.5c-1.1,0-2.1-0.3-3-0.9c-0.3-0.2-0.7,0.3-0.3,0.6c1,0.6,2.1,1,3.3,1
						C181.8,233.2,181.8,232.5,181.3,232.5L181.3,232.5z"/>
				</g>
			</g>
			<g>
				<g>
					<path class="st14" d="M219.3,225c1,5.7,1.2,11.6,0.5,17.3c-0.2,1.6-0.4,3.3-0.7,4.9c-0.1,0.4,0.5,0.6,0.6,0.2
						c1.1-5.8,1.4-11.7,0.8-17.6c-0.2-1.7-0.4-3.3-0.6-4.9C219.8,224.4,219.2,224.6,219.3,225L219.3,225z"/>
				</g>
			</g>
			<g>
				<g>
					<path class="st14" d="M236.8,224.8c-2.5,0.2-5-0.9-6.6-2.9c-0.3-0.3-0.7,0.1-0.5,0.5c1.7,2.1,4.4,3.2,7,3.1
						C237.2,225.4,237.2,224.8,236.8,224.8L236.8,224.8z"/>
				</g>
			</g>
			<g>
				<g>
					<path class="st14" d="M238.7,228.3c-3.7,0.4-7.6-0.7-10.5-3.2c-0.8-0.7-1.5-1.4-2.1-2.3c-0.2-0.3-0.8,0-0.6,0.3
						c2.2,3.2,5.9,5.3,9.8,5.8c1.1,0.1,2.2,0.2,3.4,0C239.1,228.9,239.1,228.3,238.7,228.3L238.7,228.3z"/>
				</g>
			</g>
		</g>
	</g>
	<g>
		<polygon class="st18" points="168.1,281.1 167.9,434.2 162.2,434.2 157,280.3 		"/>
		<polygon class="st18" points="523.7,281.1 514.6,434.2 508.8,434.2 512.6,286.8 		"/>
		<polygon class="st18" points="328.9,308.1 341.7,308.1 337.5,434.2 332.4,434.2 		"/>
		<polygon points="341.7,308.1 329.3,328.6 328.9,308.1 		"/>
		<polygon points="523.7,281.1 512.6,286.8 511.8,306.5 		"/>
		<polygon points="170.3,284.9 157.9,311.1 156.7,280.1 		"/>
		<path d="M528.8,271.2l-11.7-2c-30.3-11.8-82.1-20.3-182.9-20.3s-138.2,8.5-168.4,20.3h-5.4c-3.5,0-6.3-0.7-6.3,2.6
			c0,0,0,6.2,0,6.8c0,16.4,54,29.7,180.2,29.7s194.6-13.3,194.6-29.7c0-0.6,0-1.9,0-1.9L528.8,271.2z"/>
		<path class="st18" d="M528.9,271.7c0,16.4-68.5,29.7-194.6,29.7s-180.2-13.3-180.2-29.7c0-16.4,54-29.7,180.2-29.7
			S528.9,255.3,528.9,271.7z"/>
	</g>
	<g>
		<polygon points="416.1,260 384.3,260 361.3,248.2 449.4,249.9 449.4,253.1 		"/>
		<polygon points="416.1,260 327.8,260 327.8,260 314.9,210 407.6,210 		"/>
		<path class="st13" d="M366.6,233.6c0.2,2.1-1.3,4-3.5,4.2c-2.1,0.2-4-1.4-4.3-3.5c-0.2-2.1,1.3-4,3.5-4.2
			C364.5,229.9,366.4,231.4,366.6,233.6z"/>
	</g>
	<g>
		<polygon class="st19" points="224,270.2 261.1,265.5 306,273 254.3,283.3 		"/>
		<polygon class="st19" points="229.9,263.6 248.4,274.6 202.6,280.5 205.5,267 		"/>
		<polygon class="st20" points="228.1,84.7 251.8,66.8 286.1,54.4 254.6,81.9 		"/>
		<polygon class="st20" points="220.6,60.9 235.1,47.4 271.8,32.6 252.3,49.8 		"/>
		<polygon class="st20" points="202.2,83.6 211.5,103.3 164.1,64.9 186,72.4 		"/>
		<polygon class="st19" points="455.3,274.1 429.6,281.8 463.3,286.5 484.3,277.2 		"/>
	</g>
</g>
</svg>
