<svg version="1.1" class="upgrade-illu" xmlns="http://www.w3.org/2000/svg" xmlns:xlink="http://www.w3.org/1999/xlink"
     x="0px"
     y="0px" viewBox="0 0 610 515"
     style="enable-background:new 0 0 610 515;" xml:space="preserve">
    <style type="text/css">
        .upgrade-illu .st0{opacity:0.7;fill:url(#webart-upgrade-bg);enable-background:new;}
        .upgrade-illu .st1{fill:none;stroke:#09D399;stroke-width:6.0596;stroke-linecap:round;stroke-linejoin:round;stroke-miterlimit:10;stroke-dasharray:65,20,1,20;}
        .upgrade-illu .st2{fill:none;stroke:#09D399;stroke-width:6.0596;stroke-linecap:round;stroke-miterlimit:10;}
        .upgrade-illu .st3{opacity:0.3;fill:#888799;enable-background:new    ;}
        .upgrade-illu .st4{fill:#2BDEB4;}
        .upgrade-illu .st5{fill:#31A6E0;}
        .upgrade-illu .st6{fill:none;stroke:#304D52;stroke-width:1.0099;stroke-miterlimit:10;}
        .upgrade-illu .st7{fill:none;stroke:#000000;stroke-width:3.9004;stroke-miterlimit:10;}
        .upgrade-illu .st8{fill:none;stroke:#0BD9A9;stroke-width:3;stroke-miterlimit:10;}
        .upgrade-illu .st9{fill:#FADF50;}
        .upgrade-illu .st10{fill:none;stroke:#304D52;stroke-width:3.9838;stroke-miterlimit:10;}
        .upgrade-illu .st11{fill:none;stroke:#FADF50;stroke-width:8;stroke-miterlimit:10;}
        .upgrade-illu .st12{fill:#304D52;}
        .upgrade-illu .st13{fill:none;stroke:#FADF50;stroke-width:2;stroke-miterlimit:10;}
        .upgrade-illu .st14{opacity:0.1;enable-background:new    ;}
        .upgrade-illu .st15{fill:none;stroke:#000000;stroke-width:1.0099;stroke-miterlimit:10;}
        .upgrade-illu .st16{opacity:0.2;enable-background:new    ;}
        .upgrade-illu .st17{fill:none;stroke:#000000;stroke-width:1.0503;stroke-miterlimit:10;}
        .upgrade-illu .st18{fill:none;stroke:#EEEFF2;stroke-width:1.0109;stroke-miterlimit:10;}
        .upgrade-illu .st19{fill:none;stroke:#EEEFF2;stroke-width:1.2644;stroke-miterlimit:10;}
        .upgrade-illu .st20{fill:none;stroke:#EEEFF2;stroke-width:1.3039;stroke-miterlimit:10;}
        .upgrade-illu .st21{fill:#FFFFFF;}
        .upgrade-illu .st22{fill:none;stroke:#EEEFF2;stroke-width:1.3038;stroke-miterlimit:10;}
        .upgrade-illu .st23{fill:none;stroke:#EEEFF2;stroke-width:1.3319;stroke-miterlimit:10;}
        .upgrade-illu .st24{fill:none;stroke:#EEEFF2;stroke-width:1.3331;stroke-miterlimit:10;}
        .upgrade-illu .st25{fill:none;stroke:#EEEFF2;stroke-width:1.333;stroke-miterlimit:10;}
        .upgrade-illu .st26{fill:none;stroke:#EEEFF2;stroke-width:1.25;stroke-miterlimit:10;}
    </style>
    <linearGradient id="webart-upgrade-bg" gradientUnits="userSpaceOnUse" x1="-653.2875" y1="797.9206" x2="-653.2875"
                    y2="796.9106" gradientTransform="matrix(545.1898 0 0 -508.9993 356486.7813 406141.5313)">
	    <stop offset="0" style="stop-color:#89D8F6"/>
        <stop offset="1" style="stop-color:#9AFFD3"/>
    </linearGradient>
    <path class="background st0" d="M515.8,20c-74.2-44.6-180-7.4-214.5,58.8c-37.7,72.3,28.9,137.5-4.7,207.7
	C246,392.4,73.8,321.4,48.7,402.8C23.5,484.2,170.4,518,293.1,514.3c149.9-4.6,299.5-151.1,303.2-306.8
	C596.7,192.6,598,69.4,515.8,20z"/>
    <g class="arrow" transform="translate(207.469 108.414)">
	    <polyline class="body st1"
                  points="-190.8,284.5 -116.5,179.6 -42.5,220.6 66.5,69.6 177.5,136.6 351.5,-90.4 	"/>
        <path class="head st2" d="M247.4-63.2l103.8-27.1l14.8,104"/>
    </g>
    <g class="foreground" transform="translate(190.957 144.89)">
        <g class="circles" transform="translate(0 15.165)">
            <path class="cir-1 st3" d="M313.5,296.3c0-10.7-105.9-14.8-236.5-14.8s-236.5,4.1-236.5,14.8c0,10.7,105.9,22.2,236.5,22.2
                S313.5,307,313.5,296.3z"/>
            <path class="cir-2 st4" d="M-150.7,110c-8.8-4-19.2-0.1-23.2,8.7s-0.1,19.2,8.7,23.2s19.2,0.1,23.2-8.7l0,0
                C-138,124.4-141.9,114-150.7,110z"/>
            <path class="cir-3 st5" d="M216.5-133.6c-0.5-3-3.3-5.1-6.4-4.6c-3,0.5-5.1,3.3-4.6,6.4c0.5,3,3.3,5.1,6.4,4.6l0,0
                C214.9-127.7,217-130.6,216.5-133.6z"/>
            <path class="cir-4 st6" d="M150.4-30.9c-9.1-3.9-19.6,0.3-23.5,9.4c-3.9,9.1,0.3,19.6,9.4,23.5c9,3.9,19.4-0.2,23.4-9.1
                C163.6-16.1,159.5-26.8,150.4-30.9z"/>
            <path class="cir-5 st5" d="M72.5,106.5c-3-1.4-6.6,0-7.9,3c-1.4,3,0,6.6,3,7.9c3,1.4,6.6,0,7.9-3l0,0
                C76.9,111.4,75.5,107.8,72.5,106.5z"/>
            <path class="cir-6 st7" d="M-177,31.2c-4.8-1.1-9.7,1.9-10.8,6.8s1.9,9.7,6.8,10.8s9.7-1.9,10.8-6.8l0,0
                C-169.1,37.1-172.1,32.3-177,31.2z"/>
            <path class="cir-7 st8" d="M137.2,138c-6-0.6-11.5,3.8-12.1,9.8s3.8,11.5,9.8,12.1s11.5-3.8,12.1-9.8l0,0
                C147.6,144,143.2,138.6,137.2,138z"/>
            <path class="cir-8 st9" d="M91.5,254.5c-2.5-0.3-4.7,1.5-4.9,4c-0.3,2.5,1.5,4.7,4,4.9c2.5,0.3,4.7-1.5,4.9-4l0,0
                C95.8,256.9,94,254.7,91.5,254.5z"/>
            <path class="cir-9 st10" d="M400.7,93.1c-9.3-2.6-19,2.9-21.5,12.2c-2.6,9.3,2.9,19,12.2,21.5c9.3,2.6,19-2.9,21.5-12.2l0,0
                C415.5,105.3,410,95.6,400.7,93.1z"/>
            <path class="cir-10 st11" d="M411.5,12.8c-1.7-4.7-6.9-7-11.6-5.3s-7,6.9-5.3,11.6s6.9,7,11.6,5.3l0,0
                C410.9,22.6,413.2,17.4,411.5,12.8z"/>
            <path class="cir-11 st4" d="M318.7,191.7c-2.9,3-2.8,7.7,0.2,10.6s7.7,2.8,10.6-0.2s2.8-7.7-0.2-10.6
                C326.3,188.7,321.5,188.7,318.7,191.7L318.7,191.7z"/>
            <path class="cir-12 st12" d="M-75.6-51.4c-0.7-3-3.7-4.8-6.6-4c-3,0.7-4.8,3.7-4,6.6c0.7,3,3.7,4.8,6.6,4l0,0
                C-76.7-45.4-74.9-48.4-75.6-51.4z"/>
            <path class="cir-13 st13" d="M-88.2,228c-1-4.3-5.4-6.9-9.7-5.9c-4.3,1-6.9,5.4-5.9,9.7s5.4,6.9,9.7,5.9l0,0
                C-89.8,236.7-87.1,232.3-88.2,228z"/>
        </g>
        <g class="people" transform="translate(49.095 35.195)">
		<path class="girl-hair" d="M169.3-66.9c1.9-6.9,10.9-10.1,17.2-10.1s14.3,3.2,18,7.6c2.6,3.1,4.2,7,8,8.8c3.4,1.6,7.7,1.2,10.8,3.2
			c7.5,4.7,0.3,16.6,6.9,22.2c2.4,2,6.2,2.8,7.8,5.3c2.2,3.5-1.2,7.6-0.6,11.5c0.8,6.2,10.7,9.5,11.1,15.7
			c0.3,5.7-7.3,8.7-10.8,13.5c-1.6,2.2-2.3,4.9-4.3,6.8c-2.6,2.6-6.8,3.5-10.8,4c-3.4,0.6-7,0.6-10.4,0.1
			C200.3,19.4,193.3,7,181.3,5.1c-5.2-0.8-10.7,0.5-15.9-0.7c-7-1.7-11.9-8.5-10.4-14.6c0.8-3.3,3.1-6.2,3.1-9.6
			c-0.1-4.6-4.5-8.5-4.6-13.1c-0.1-5.7,8.3-10.7,8.2-16.4c-0.1-3.4-1.4-6.6-1.9-10c-1.1-6.8,4.2-9.5,10.9-8"/>
            <g class="girl-head" transform="translate(355.482 24.392)">
			<path class="face_1_ st9" d="M-155-68l-0.7,22.2c0,0-2.8,2.4-8.4,3.1c-3.5,0.5-7.1,0.1-10.5-1.1l0.3-4.8
				c0,0-12,2.8-12.2-7.7c0-0.7,0-1.5-0.1-2.1c-0.1-4-0.2-7.3-0.3-10.1c-0.1-8.7,0.7-12.5,6-16.6C-173.5-90.9-154.1-83.3-155-68z"/>
                <path class="shadow_1_" d="M-174.8-48.6c3.9-0.8,7.5-2.8,10.2-5.6l-10.1,10.8L-174.8-48.6z"/>
                <path class="hair_1_" d="M-182.9-84.3c0.6,3,3.6,4.9,6.6,5.6s6.1,0.7,9.1,1.6c2.9,0.9,5.8,3.1,6,6.1c-0.1,0.8,0,1.7,0.3,2.4
				c0.5,0.8,1.4,1.2,2.4,1.1c0.9-0.2,1.7-0.6,2.3-1.3c1.6-1.8,2.4-4.2,2-6.6s-1.3-4.6-2.8-6.4c-2.7-3.8-6.8-6.3-11.3-7.3
				c-4.6-0.9-9.3,0.5-12.7,3.7"/>
                <path class="mouth_1_" d="M-175.5-60c0.8-0.5,1.2-1.5,1.1-2.5c-0.1-0.3-0.3-0.9-0.8-0.8s-0.9,0.7-1.4,1s-1.5,0.1-1.9,0.8
				c-0.3,0.4-0.2,0.9,0.1,1.3C-177.6-59.5-176.4-59.5-175.5-60"/>
                <path class="left-cheek st14" d="M-160.7-65.4c-0.6-3-3.5-5-6.6-4.4c-3,0.5-5,3.4-4.5,6.4c0,0,0,0,0,0.1
				c0.6,3,3.5,5,6.6,4.5C-162.2-59.5-160.2-62.3-160.7-65.4L-160.7-65.4z"/>
                <path class="right-cheek st14" d="M-186.6-58.4c-0.1-4-0.2-7.3-0.3-10.1c1.5,0.9,2.6,2.4,2.9,4
				C-183.5-62.3-184.5-59.9-186.6-58.4z"/>
                <path class="ear_1_ st9" d="M-149.1-66.4c-0.6-3-3.5-5-6.5-4.4c-3,0.5-5,3.4-4.5,6.4c0,0,0,0,0,0.1c0.6,3,3.5,5,6.5,4.4
				S-148.6-63.4-149.1-66.4L-149.1-66.4z"/>
                <path class="ear-line_1_ st15" d="M-153.8-67.9c-1.8,0.1-3.2,1.5-3.2,3.3v0.1"/>
                <path class="nose-shadow_1_ st16" d="M-179.9-74.1l1.7-0.1l0.8,9.3l-4.1,0.3L-179.9-74.1z"/>
                <path class="left-eye" d="M-173.1-69.3c0,0.7-0.3,1.3-0.6,1.3s-0.6-0.6-0.6-1.3c0-0.7,0.3-1.3,0.6-1.3
				C-173.3-70.6-173.1-70-173.1-69.3z"/>
                <path class="right-eye_1_"
                      d="M-182.5-69.4c0,0.7-0.3,1.3-0.6,1.3s-0.6-0.6-0.6-1.3c0-0.7,0.3-1.3,0.6-1.3S-182.5-70.1-182.5-69.4z"
                />
                <path class="left-eyebrow" d="M-172.4-75.1c-0.1,0.5-0.8,0.8-1.7,0.7s-1.6-0.6-1.5-1.1s0.8-0.8,1.7-0.7
				C-173-76-172.3-75.6-172.4-75.1z"/>
                <path class="right-eyebrow_1_" d="M-181.8-75.3c0.2,0.5-0.3,1.1-1.1,1.4s-1.6,0.2-1.8-0.3s0.3-1.1,1.1-1.4
				C-182.8-75.9-181.9-75.8-181.8-75.3z"/>
		</g>
            <g class="boy-head" transform="translate(106.602)">
			<path class="face st4" d="M-146.8-74.9c0,0,17.2,50.4-16.9,33.8L-161-9l-26.3-23.8l7.8-31.7
				C-179.5-64.5-184-94.4-146.8-74.9z"/>
                <path class="hair" d="M-170-58.7c4.1,2.1,9.9-0.8,10.6-5.4c0.2-1.3,0.1-2.6,0.6-3.8c0.8-1.7,2.8-2.4,4.6-2.6s3.7,0.2,5.5-0.1
				c3.4-0.4,6.6-3.2,6.9-6.7c0.3-3.4-3.1-6.9-6.5-6.1c-1,0.2-1.9,0.7-2.8,1c-4.4,1.1-7.8-3.7-11.8-6c-5.6-3.2-13.7-0.3-16.1,5.7
				c-0.6,1.4-0.8,2.9-1.5,4.2c-1.4,2.7-4.2,4.3-6.3,6.4c-2.2,2.1-3.7,5.6-1.9,8.1c0.7,1,1.9,1.7,2.4,2.8c0.8,1.9-0.7,4-1,6.1
				c-0.4,3,2,5.9,4.9,6.6c3,0.5,6.1-0.5,8.2-2.7c2.1-2.2,3.6-4.9,4.3-7.8"/>
                <path class="shadow" d="M-158.9-39.1l-4.9-2.2l1.1,10.9L-158.9-39.1z"/>
                <path class="mouth" d="M-148.9-47.7c-0.7-0.8-0.9-1.8-0.6-2.8c0.1-0.3,0.5-0.9,1.1-0.7s0.8,1,1.2,1.4s1.5,0.5,1.8,1.2
				c0.2,0.5,0,1-0.4,1.3C-146.8-46.7-148.1-46.9-148.9-47.7"/>
                <path class="cheek st14" d="M-151.9-52.5c-0.4-3.3-3.3-5.6-6.6-5.3c-3.2,0.3-5.6,3.2-5.3,6.4c0,0,0,0,0,0.1
				c0.4,3.3,3.3,5.6,6.6,5.3S-151.5-49.2-151.9-52.5C-151.8-52.4-151.8-52.5-151.9-52.5z"/>
                <path class="ear st4" d="M-175.5-60c0.8-3.3,4.1-5.4,7.4-4.7c3.3,0.8,5.4,4,4.7,7.4s-4.1,5.4-7.4,4.7
				C-174.2-53.4-176.3-56.6-175.5-60L-175.5-60z"/>
                <path class="ear-line st17" d="M-170.3-61.4c2,0.2,3.5,1.9,3.3,3.9v0.1"/>
                <path class="nose st4" d="M-144.4-65.3l0.9,1.4l4.3,10.4l-3.5,1.8L-144.4-65.3z"/>
                <path class="nose-shadow st16" d="M-144.4-65.3l0.9,1.4l4.3,10.4l-3.5,1.8L-144.4-65.3z"/>
                <path class="eye" d="M-150-58.1c-0.1,0.8,0.1,1.5,0.4,1.6c0.4,0,0.8-0.6,0.9-1.4c0.1-0.8-0.1-1.5-0.4-1.6
				C-149.5-59.5-149.9-58.9-150-58.1z"/>
                <path class="eyebrow" d="M-152.3-64.5c0.1,0.5,1,0.8,1.9,0.6c0.9-0.2,1.6-0.8,1.5-1.4c-0.1-0.5-1-0.8-1.9-0.6
				C-151.8-65.7-152.5-65.1-152.3-64.5z"/>
		</g>
            <g class="girl-left-arm" transform="translate(408.014 66.268)">
			<path class="arm_1_ st9" d="M-179.7-60.7c0,0,14.5-4.8,35.1,1.6c23.6,7.3,29,34.2,28.1,43.1l18.8,6.1
				c3.7-13.5,3-27.9-1.8-41.1c-9.4-25.3-45.1-49.4-86.8-32.2L-179.7-60.7z"/>
                <path class="hand_1_ st9" d="M-96.6-15.3c-1,6-3.5,13.9-6.3,13.8c-0.6-0.1-1.1-0.3-1.5-0.8c-0.6,1.3-1.5,2.4-2.8,2.2
				c-0.9-0.2-1.7-0.9-1.9-1.8c-0.7,1.1-1.4,2-2.6,1.9c-1-0.2-1.8-0.9-2.1-1.9c-0.8,0.8-1.9,1.1-2.9,0.7c-1.5-0.7-1.2-2.6-0.8-5.8
				c0.4-2.7,0.9-7.7,1.1-11.8"/>
                <path class="elbow_1_ st14" d="M-105.4-58.6c-2,2.3-1.4,7.4,1.2,11.4c1.9,2.9,5,4.3,7,4c-0.6-3.7-4.3-13.2-6.7-16.7
				C-104.5-59.6-105-59.2-105.4-58.6z"/>
                <path class="hand-line-3_2_ st15" d="M-112.6-7.4c-0.2,1.9-0.6,3.8-1.2,5.6"/>
                <path class="hand-line-2_2_ st15" d="M-103.1-7.6c-0.2,1.9-0.6,3.8-1.2,5.6"/>
                <path class="hand-line-1_2_ st15" d="M-108-7.3c-0.1,1.9-0.6,3.8-1.2,5.6"/>
		</g>
            <g class="boy-left-arm" transform="translate(0 48.638)">
			<path class="Tracé_433_1_ st4" d="M-190.3-24.8c0.3,5.9,1.8,13.8,4.5,14c0.6,0,1.1-0.2,1.5-0.6c0.5,1.3,1.2,2.5,2.4,2.4
				c0.9-0.1,1.7-0.7,2.1-1.5c0.5,1.1,1.2,2.1,2.3,2.1c1-0.1,1.8-0.7,2.2-1.6c0.6,0.9,1.7,1.3,2.7,1c1.5-0.5,1.4-2.4,1.4-5.4
				c-0.1-2.6,0-7.5,0.3-11.4"/>
                <path class="Tracé_434_1_ st4" d="M-105.3-59.1c0,0-13.4-6.2-33.9-2.4c-23.6,4.4-31.8,29.7-31.8,38.3l-18.7,3.7
				c-2-13.4,0.2-27.1,6.3-39.3c11.8-23.3,48.9-42.5,87.1-21.2L-105.3-59.1z"/>
                <path class="Tracé_435_1_ st15" d="M-175.9-15.4c-0.1,1.9,0.1,3.7,0.6,5.6"/>
                <path class="Tracé_436_1_ st15" d="M-185-16.6c-0.1,1.9,0.1,3.7,0.6,5.6"/>
                <path class="Tracé_437_1_ st15" d="M-180.3-15.8c-0.1,1.9,0.1,3.7,0.5,5.6"/>
                <path class="Tracé_438_1_ st14" d="M-176.9-65.4c1.6,2.5,0.6,7.3-2.4,10.8c-2.2,2.6-5.3,3.5-7.2,3c1-3.5,5.6-12.2,8.3-15.3
				C-177.7-66.5-177.3-66-176.9-65.4z"/>
		</g>
            <g class="girl-right-arm" transform="translate(150.596 94.012)">
			<path class="Tracé_370_2_ st9" d="M-4.4-60.8C-16.3-50.8-28-45-38.9-42.7c-16,3.3-32.8,1.3-47.6-5.8l-0.3-24.6
				c0,0,16.5,7.2,33,5.8c19.3-1.6,32.5-15.3,32.5-15.3L-4.4-60.8z"/>
                <path class="Tracé_371_2_ st14"
                      d="M-55.7-41.3c0.7-3,4-5.4,8.2-5.7c4-0.2,7.4,1.6,8.6,4.2C-44.4-41.6-50-41-55.7-41.3z"/>
		</g>
            <g class="boy-right-arm" transform="translate(224.618 99.989)">
			<path class="arm st4" d="M-261.9-72.4c11.2,10.7,22.8,16.6,33.5,19.6c5.4,1.4,11,2.3,16.6,2.6c18.2,0.8,35.8-7,35.8-7
				l-5.6-20.7c-9.9,2.4-20.2,2.9-30.3,1.5c-19.1-2.8-31.6-17.2-31.6-17.2L-261.9-72.4z"/>
                <path class="elbow st14" d="M-211.8-50.2c-0.5-3-3.7-5.7-7.8-6.2c-3.9-0.5-7.4,0.9-8.8,3.5C-223-51.4-217.4-50.5-211.8-50.2
				z"/>
                <path class="hand st4"
                      d="M-182.5-57.7l14.8,5.1l10.1-19.2l-4.2-5.6l-4.4-1.5c-6.3-3.7-15.3,0.9-15.3,0.9L-182.5-57.7z"/>
                <path class="finger-4_1_ st4" d="M-157.2-64.8c1.6,0.5,3.2-0.3,3.8-1.7l0,0l0,0c0.5-1.6-0.2-3.2-1.7-3.8l-9.3-3.5
				c-1.6-0.5-3.2,0.2-3.8,1.7l0,0l0,0c-0.5,1.6,0.2,3.2,1.7,3.8L-157.2-64.8L-157.2-64.8z"/>
                <path class="finger-3_1_ st4" d="M-154.1-61.2L-154.1-61.2L-154.1-61.2c0.5-1.6-0.2-3.2-1.7-3.8l-9.3-3.5l0,0
				c-1.6-0.5-3.2,0.2-3.8,1.7l0,0c-0.5,1.6,0.2,3.2,1.7,3.8l9.3,3.5C-156.3-58.9-154.7-59.7-154.1-61.2z"/>
                <path class="finger-2_1_ st4" d="M-159.8-55.2c1.6,0.6,3.3-0.2,3.8-1.7l0,0l0,0c0.5-1.6-0.2-3.2-1.7-3.8l-9.3-3.5
				c-1.6-0.5-3.2,0.2-3.8,1.7l0,0l0,0c-0.5,1.6,0.2,3.2,1.7,3.8L-159.8-55.2L-159.8-55.2z"/>
                <path class="finger-1_1_ st4" d="M-163-50.8c1.6,0.5,3.2-0.2,3.8-1.7l0,0c0.5-1.6-0.2-3.2-1.7-3.8l-9.3-3.5
				c-1.6-0.6-3.2,0.2-3.8,1.7l0,0c-0.5,1.6,0.2,3.2,1.7,3.8L-163-50.8L-163-50.8z"/>
                <path class="hand-line-3_1_ st15" d="M-165.4-58.2c1.6,0.9,4.6,2.1,6,3.2"/>
                <path class="hand-line-2_1_ st15" d="M-163-63c2,1,5.2,2.5,6.9,3.6"/>
                <path class="hand-line-1_1_ st15" d="M-160.9-68.2c1.2,0.8,5.1,2.6,6,3.4"/>
		</g>
            <g class="girl-right-hand" transform="translate(224.631 107.82)">
			<path class="finger-4 st9" d="M-170.2-59.1L-170.2-59.1L-170.2-59.1c1.6,0.6,3.3-0.2,3.9-1.8l0.3-0.8l0,0
				c0.6-1.6-0.2-3.3-1.8-3.9l0,0l0,0c-1.6-0.6-3.3,0.2-3.9,1.8L-172-63C-172.6-61.5-171.8-59.7-170.2-59.1z"/>
                <path class="finger-3 st9" d="M-167.2-61.4c-0.5,1.4,0.2,2.9,1.5,3.4l0,0l0,0c1.4,0.5,2.9-0.2,3.4-1.5l0.3-0.8l0,0
				c0.5-1.5-0.2-2.9-1.5-3.4l0,0l0,0c-1.4-0.5-2.9,0.2-3.4,1.5L-167.2-61.4L-167.2-61.4z"/>
                <path class="finger-2 st9" d="M-174.5-60.5L-174.5-60.5c1.6,0.6,3.3-0.2,3.9-1.8l0.3-0.7l0,0c0.6-1.6-0.2-3.3-1.8-3.9l0,0
				l0,0c-1.6-0.6-3.3,0.2-3.9,1.8l-0.3,0.8C-176.8-62.8-176.1-61-174.5-60.5z"/>
                <path class="finger-1 st9" d="M-178.8-62.7L-178.8-62.7c1.4,0.5,2.8-0.2,3.3-1.6l0.1-0.4l0,0c0.5-1.4-0.2-2.8-1.6-3.3l0,0
				l0,0c-1.4-0.5-2.8,0.2-3.3,1.6l-0.1,0.4C-180.9-64.7-180.2-63.2-178.8-62.7z"/>
                <path class="thumb st9" d="M-158.6-85.7c-2.9-1.5-5.9-2.1-7.7-1.7c-0.1,0-0.2,0-0.2,0.1c0,0-0.1,0-0.1,0c0,0-0.1,0-0.1,0
				l-5.7,1.9c-1.7,0.6-2.7,2.6-2.1,4.4s2.6,2.7,4.4,2.1l5.6-1.9c0.2-0.1,0.3-0.1,0.5,0c0.1,0.1,0.2,0.1,0.3,0.2
				c0.9,0.7,2.4,2.6,5.7,2.4c2.5,0.6,4.6,0.4,5.3-0.7C-152-80.6-154.6-83.7-158.6-85.7z"/>
                <path class="hand-line-5 st15" d="M-176.5-63c0.3-1.2,0.7-2.3,1.3-3.2"/>
                <path class="hand-line-4 st15" d="M-171.8-60.9c0.3-1.5,0.7-2.9,1.4-4.2"/>
                <path class="hand-line-3 st15" d="M-167.1-59.5c0.8-1.1,1.2-2.4,1.4-3.7"/>
                <path class="hand-line-2 st15" d="M-155.3-78.6c-3.4,0.6-6.8-0.3-9.4-2.5"/>
                <path class="hand-line-1 st15" d="M-162.6-82.8c-3,2.7-6.5,4.2-10.5,3.5"/>
		</g>
            <g class="girl-shirt" transform="translate(316.654 63.159)">
			<path class="shirt-base_1_ st4" d="M-140.1-26.8l-8.8,36c0,0,40.6,3.1,61.5-17c0,0,20.2-82.4-31.8-76.7
				C-156.2-80.5-156.5-61.8-140.1-26.8z"/>
                <path class="sleeve-left_1_ st4" d="M-134.1-78.1C-96-97.6-55.2-85-55.2-85c-4.3,8.6-6.3,18.1-5.9,27.6
				c-13.6-2.2-26.7,3-43.7,5.8"/>
                <path class="sleeve-right_1_ st4" d="M-188.9-51.4c7.2-6.2,15.6-14.3,23.3-20.3c19.3-14.8,38.6-10.6,38.6-10.6
				s18.8,5.8-26.9,40.1c-7.1,5.3-11.5,8.9-16.9,13.7c-3.8-3-6.7-7.4-9.6-11.2C-183.3-43.4-187.2-46.9-188.9-51.4z"/>
                <path class="shirt-line-left_1_ st18" d="M-69.1-58.4c-0.4-9.7,1.4-19.3,5.2-28.2"/>
                <path class="shirt-line-right_1_ st19" d="M-182.6-56.3c3.6,8,10,16,17.7,22.3"/>
                <path class="shirt-line-boob st19" d="M-147.3-62.8c-2,5.5-2.2,11.4-0.4,17"/>
                <path class="shirt-line-neck st20" d="M-138.3-79.3c4.2,2.8,9.3,3.9,14.3,3.1c4.9-0.8,9.4-3.4,12.6-7.3"/>
		</g>
            <g class="boy-shirt" transform="translate(58.357 46.8)">
			<path class="shirt-base st12" d="M-112.9-20.7l-12.4,33.9c0,0-43.9,10.9-60.4-13.7c0,0,6.7-91.4,46.9-80.1
				C-102.5-70.4-98.7-56.1-112.9-20.7z"/>
                <path class="sleeve-right st12" d="M-76.7-40c-6.1-7.7-12.7-14.9-19.9-21.5c-11.3-10.1-24.8-17.3-39.5-21.1
				c0,0-17.2,11.2,25.2,49.4c6.6,5.9,10.2,9.8,15.3,14.1c4-2.6,7.7-5.7,10.9-9.2C-81.5-31.8-78.8-35.8-76.7-40z"/>
                <path class="sleeve-left st12" d="M-115.4-72.6C-149.6-95.4-189.9-88-189.9-88c3.1,9.1,4.1,18.7,3,28.3
				c13.2-0.6,24.6,4.6,40.6,9.1C-133.6-46.3-108.1-47.2-115.4-72.6z"/>
                <path class="shirt-line-right st19" d="M-81.1-44.7c-4.3,7.7-11.3,15-19.7,20.6"/>
                <path class="shirt-line-left st18" d="M-179.9-59.7c1.6-9.6,1.1-19.4-1.5-28.8"/>
		</g>
            <g class="girl-legs" transform="translate(299.823 142.384)">
			<path class="shoe-right_1_ st21" d="M-158,114.7l12.3-0.5l-1,18.9l-2.8-0.2l-1.1-2.1l-7.4,2.3l-29.5-0.2
				c0,0,13.6-1.7,20.9-4.8C-160.9,125.7-158.9,121.5-158,114.7L-158,114.7z"/>
                <path class="shoe-left_1_ st21" d="M-92.7,115.8l12.3-0.5l-1,18.9l-2.8-0.2l-1.1-2.1l-7.3,2.3l-29.5-0.2
				c0,0,13.6-1.7,20.9-4.8C-95.5,126.8-93.6,122.6-92.7,115.8L-92.7,115.8z"/>
                <path class="pants_1_ st12" d="M-128.1-88.2c0,0,31.1,16.8,56.9,2.7c0,0,9.7,23.8,0.6,56.5s-21.1,90.3-4.2,150.1
				c0,0-13.6,6.8-25.7,2.4c0,0-26-64-23.7-105.3c0,0-22.4,37.1-14.1,102.9c0,0-14.1,5.1-26.4,0.3c0,0-8.8-30.7-9.1-63.6
				c-0.2-32.9,8.1-69.4,20.2-92.9C-141.5-58.3-131.1-81.1-128.1-88.2z"/>
                <path class="pants-shadow_1_" d="M-140.5,84.7c0,0-5.6-75.8,27.2-125.6c0,0-9.7,22.1-11.4,60.4c0,0-2.4,5.7-4.9,11.5
				C-138.1,50.4-140.5,84.7-140.5,84.7z"/>
                <path class="pants-line-8_1_ st22"
                      d="M-76.9-81.1c6.2,30.6-4.3,61.9-8.7,93.9c-4.4,32-6.7,65.4,3.9,110.3"/>
                <path class="pants-line-7_1_ st22" d="M-71.3-72.2c1.2,0,2.4-0.4,3.4-1"/>
                <path class="pants-line-6_1_ st22" d="M-69.1-77.1c-0.9,0.7-2,1.1-3.1,1.2"/>
                <path class="pants-line-5_1_ st22" d="M-98.5-79.1c4.5,8.9,13.6,13,22.7,13.2"/>
                <path class="pants-line-4_1_ st22" d="M-93.2-79.9c3.8,5.8,10.3,9.2,17.2,9.3"/>
                <path class="pants-line-3_1_ st22" d="M-112.2-81.7c-1.5,8.3-1.6,16.7-0.2,25"/>
                <path class="pants-line-2_1_ st22" d="M-132.8-77.9c5.4,0.7,10.7-1.6,13.9-6"/>
                <path class="pants-line-1_1_ st22" d="M-130.6-81.8c2.8,0.2,5.6-1,7.3-3.2"/>
		</g>
            <g class="boy-legs" transform="translate(57.025 134.58)">
			<path class="shoe-right st21" d="M-102.9,122.2l-12.2-0.9l0.4,18.9l2.8-0.1l1.2-2.1l7.3,2.6l29.5,0.8c0,0-13.5-2.2-20.7-5.5
				C-100.4,133.2-102.2,129-102.9,122.2L-102.9,122.2z"/>
                <path class="shoe-left st21" d="M-168.9,121.2l-12.2-0.9l0.4,18.9l2.8-0.1l1.1-2.1l7.3,2.6l29.5,0.8c0,0-13.5-2.2-20.7-5.5
				C-166.4,132.3-168.2,128-168.9,121.2L-168.9,121.2z"/>
                <path class="pants st5" d="M-124.1-75c0,0-34.6,1.7-60.4-13.7c0,0-10.6,24.2-2.5,58.2s18.3,93.7-0.8,154.7
				c0,0,13.6,7.4,25.9,3.3c0,0,28.5-65.1,27.6-107.7c0,0,21.4,39,10.8,106.5c0,0,14.1,5.8,26.8,1.2c0,0,10-31.3,11.3-65.2
				S-91.3-9.4-102.7-34S-121.3-67.6-124.1-75z"/>
                <path class="pants-shadow" d="M-134.1,21.5c-0.4-12.9-16.3-27.7-23-36c-8.1-10-12.5-20.4-12.3-33.2c0,0-4.6,18,9.8,49
				c11.8,25.2,20,58.6,12.5,86C-147.1,87.2-133.1,51.7-134.1,21.5z"/>
                <path class="pants-line-9 st23"
                      d="M-127.1-74.2c-0.4,23.7,14.3,37.3,22.6,61.8c9.2,27.4,16.8,81.4,0,141"/>
                <path class="pants-line-8 st24" d="M-117-58.7c-0.6,3.9-1.8,7-5.1,9.1"/>
                <path class="pants-line-7 st25" d="M-119.6-63.7c0.2,3.6-1.2,8-4.5,9.6"/>
                <path class="pants-line-6 st25" d="M-134.1-56.5c-8.5,1.7-19.1,0.6-27-2.2"/>
                <path class="pants-line-5 st25" d="M-133.5-62.1c-9.3,1-18.8,0.1-27.6-2.6"/>
                <path class="pants-line-4 st24" d="M-177.5-63.2c-3.9-0.3-7.6-1.9-10.6-4.5"/>
                <path class="pants-line-3 st25" d="M-173.1-68.7c-5.1-0.1-10-1.9-14-5"/>
                <path class="pants-line-2 st24" d="M-168.3-70.7c-1,4.7-1.6,9.4-1.8,14.2"/>
                <path class="pants-line-1 st24" d="M-165.4-80.7c-0.6,1.7-1.2,3.4-1.7,5.2"/>
		</g>
	</g>
        <g class="text-bubbles" transform="translate(205.557)">
		<g class="right" transform="translate(114.017 30.8)">
			<path class="bubble_1_ st12" d="M-173.4-89.7h45.7c7.8,0,14.1,6.3,14.1,14l0,0v0.9c0,5.5-3.2,10.4-8.2,12.7l1.6,9.4
				l-12.6-8.1h-40.7c-7.8,0-14.1-6.3-14.1-14l0,0v-0.9C-187.3-83.4-181-89.7-173.4-89.7L-173.4-89.7z"/>
            <line class="bottom-line_1_ st26" x1="-125.5" y1="-72.7" x2="-150.5" y2="-72.7"/>
            <line class="top-line_1_ st26" x1="-125.5" y1="-79.7" x2="-173.5" y2="-79.7"/>
		</g>
            <g class="left">
			<path class="bubble" d="M-97.3-89.9h-75.3c-9.3,0-16.9,7.5-16.9,16.6v1c0,6.5,3.8,12.4,9.8,15.1l-2,11.2l15.1-9.7h69.2
				c9.3,0,16.9-7.5,16.9-16.6l0,0v-1C-80.4-82.4-88-89.9-97.3-89.9L-97.3-89.9z"/>
                <line class="bottom-line st26" x1="-132.5" y1="-65.9" x2="-171.5" y2="-65.9"/>
                <line class="middle-line st26" x1="-98.5" y1="-72.9" x2="-171.5" y2="-72.9"/>
                <line class="top-line st26" x1="-98.5" y1="-79.9" x2="-171.5" y2="-79.9"/>
		</g>
	</g>
</g>
</svg>
